<?xml version="1.0" encoding="UTF-8"?>
<svg id="uuid-685ccce2-01ca-4576-82c2-198112ef84b1" data-name="VOLUME" xmlns="http://www.w3.org/2000/svg" xmlns:xlink="http://www.w3.org/1999/xlink" viewBox="0 0 1372.6 1929.94">
  <defs>
    <style>
      .uuid-3386b586-1f35-4d2e-a27d-dbd9ba286070 {
        clip-path: url(#uuid-5be8915f-26f2-4b4f-a08f-d69bf3caa7b7);
      }

      .uuid-9288ab1f-1091-4110-b696-a78579946fc0 {
        clip-path: url(#uuid-7d20456a-6199-4d15-88bc-ff16dfce9522);
      }

      .uuid-4d2b77e1-a792-4dec-b3d4-e6df1a6c1b62 {
        clip-path: url(#uuid-dafceeec-cd6b-4a58-b9a5-2b6c299b35cc);
      }

      .uuid-366947fc-f51b-45c3-b66d-68a47146094d {
        clip-path: url(#uuid-9b548f56-c6b6-40ad-ab3c-6ca2db8da9a5);
      }

      .uuid-c1943bd9-38cb-4c11-9639-b4691fcda533 {
        fill: #f2f2f2;
      }

      .uuid-73b3e631-1e08-4057-a233-9039b8e0b57a {
        clip-path: url(#uuid-c3cce892-ee07-490f-b291-79801704ed3d);
      }

      .uuid-984801af-75e3-4ba4-9fe2-f245955c47a9 {
        clip-path: url(#uuid-c3a50389-2576-49f1-8b56-a04c2a400bf0);
      }

      .uuid-f91a6c52-b1b2-45f3-8422-acad804d97c1 {
        clip-path: url(#uuid-1269e1f2-b734-481e-a78b-1bf008509abb);
      }

      .uuid-b081a4b3-3e22-4660-849b-2e2fc320c83d {
        fill: #999;
      }

      .uuid-0a0674db-2509-4768-94a1-279ac94a951a {
        clip-path: url(#uuid-5bcb6697-7380-4b0b-a8a0-ca87d9d0c010);
      }

      .uuid-a2e23ae7-564c-4852-866c-a2c4aa0544a3 {
        fill: #ccc;
      }

      .uuid-56319c2f-4a67-4818-ace7-5edeea809001 {
        fill: #b3b3b3;
      }

      .uuid-f4a8ca2a-7c2e-4a1b-8209-ea93a08dfe5d {
        fill: gray;
      }

      .uuid-091edcc2-a2cd-480b-bc30-53b4ec45c43d {
        clip-path: url(#uuid-f649f6dc-1b60-4f71-b959-006e04b9c4dd);
      }

      .uuid-55254039-9941-4fd1-aa36-9ef2b1969e9e {
        fill: #e6e6e6;
      }
    </style>
    <clipPath id="uuid-7d20456a-6199-4d15-88bc-ff16dfce9522">
      <path class="uuid-a2e23ae7-564c-4852-866c-a2c4aa0544a3" d="M890.58,856.78c-6.08,52.44-11.77,109.65-16.3,162.14-7.8,91.88-15.22,185.74-17.85,278.08-153.43-12.6-306.49-25.08-459.77-37.24,14.71-72.22,17.78-145.94,23.28-219.25,3.78-55.1,7.18-111.61,9.53-166.91.78-17.75,1.44-35.49,1.91-53.27l459.2,36.45Z"/>
    </clipPath>
    <clipPath id="uuid-c3cce892-ee07-490f-b291-79801704ed3d">
      <path class="uuid-a2e23ae7-564c-4852-866c-a2c4aa0544a3" d="M1285.63,997.16c-50.2,80.64-170.44,62.3-196.24-28.43-11.82-40.83,3.73-87.35,37.33-113.41,47.21-37.6,117.55-28,153.36,20.51,26.38,34.47,28.54,84.64,5.54,121.32Z"/>
    </clipPath>
    <clipPath id="uuid-5bcb6697-7380-4b0b-a8a0-ca87d9d0c010">
      <path class="uuid-a2e23ae7-564c-4852-866c-a2c4aa0544a3" d="M1076.65,729.68c-.64,10.85-2.15,23.53-3.1,34.38-.89,6.59-3.11,22.71-4.05,29.29-.56,3.23-2.15,11.14-2.76,14.52-7.96,45.2-24.81,88.66-47.76,128.35-26.03,44.65-59.2,85.69-98.82,118.96-16.9-9.78-153-88.52-168.34-97.4.46-3.19,14.68-100.31,14.68-100.31.25-1.53-1.06-2.95-2.61-2.81l-115.73,8.97c-1.03.07-1.92.78-2.19,1.82,0,0-22.33,85.98-25.14,96.79-14.12,6.67-181.37,85.67-222.28,105-5.58-18.12-142.94-463.67-143.2-464.48.19-.15.38-.33.38-.33l1.25-1.06s2.52-2.13,2.52-2.14c54.97-44.61,118.59-77.87,184.63-102.87,22.26-8.24,46.62-16.07,69.57-22.08,47-12.62,95.37-20.25,143.87-23.73,20.51-1.37,45.76-1.92,66.43-2.53,34.7-.71,71.69-.77,106.42.26,53.12,1.39,106.36,5.02,159,12.21,25.68,3.62,51.56,7.87,76.55,14.67,2.75,18.97,4.9,38.14,6.7,57.26,6.15,65.33,8.43,131.75,3.98,197.28Z"/>
    </clipPath>
    <clipPath id="uuid-f649f6dc-1b60-4f71-b959-006e04b9c4dd">
      <path class="uuid-a2e23ae7-564c-4852-866c-a2c4aa0544a3" d="M1164.26,453.17l-26.99,187.97-12.16,84.59v.03s-.07.02-.1.02v-.03c-2.32.54-4.64,1.06-6.96,1.55-.07.02-.15.03-.21.05-18.52,3.74-64.11,10.94-117.1,4.4-63.59-7.85-131.62-45.07-142.44-51.18l48.3-266.58c.11-.03.25-.07.38-.1.05-.02.11-.03.16-.05,9.92-2.52,56.66-12.55,126.83,1.03,18.03,3.48,34.65,7.39,49.58,11.34,44.23,11.72,73.61,23.88,80.72,26.96Z"/>
    </clipPath>
    <clipPath id="uuid-9b548f56-c6b6-40ad-ab3c-6ca2db8da9a5">
      <path class="uuid-a2e23ae7-564c-4852-866c-a2c4aa0544a3" d="M759.52,1522.47l-86.81-6.46c-5.03-.42-9.3,3.89-8.93,8.91l6.28,255.36-331-.08c5.97-26.91,102.28-454.93,102.28-454.93.1-.49.07-.98-.13-1.42,163.35.13,487.12.39,489.6.39,1.19,3.11,173.09,449.6,175.61,456.16l-431.08-.11,6.08-247.09,78.1-5.82c3.01-.26,2.97-4.63,0-4.9Z"/>
    </clipPath>
    <clipPath id="uuid-5be8915f-26f2-4b4f-a08f-d69bf3caa7b7">
      <path class="uuid-a2e23ae7-564c-4852-866c-a2c4aa0544a3" d="M768.5,567.13c.26.56.42,1.16.42,1.81v48.3c.02,2.34-1.9,4.25-4.23,4.25-21.66-.11-51.93-.1-73.26-.46-21.54-.31-52.08-.67-73.31-1.34-1.34-.05-2.39-1.14-2.39-2.45-.02-7.52.21-15.17.57-22.59-.36-.43-.57-.96-.57-1.55-.02-7.52.21-15.17.57-22.59-.36-.43-.57-.96-.57-1.54-.02-7.52.21-15.17.57-22.61-.36-.41-.57-.95-.57-1.54-.02-7.52.21-15.17.57-22.59-.36-.43-.57-.96-.57-1.55-.02-7.52.21-15.15.57-22.59-.36-.42-.57-.95-.57-1.54-.02-7.52.21-15.17.57-22.59-.36-.43-.57-.96-.57-1.55-.02-7.52.21-15.15.57-22.59-.36-.43-.57-.95-.57-1.54-.03-8.63.29-17.44.72-25.88,48.07-.72,100.32-1.18,148.23-1.26,1.65-.02,2.99,1.34,2.99,2.99v46.65c.26.49.43,1.03.43,1.62v24.14c0,.59-.16,1.13-.43,1.6v20.91c.26.49.43,1.03.43,1.62v22.46c.25.51.41,1.08.39,1.68.03,7.44.05,14.86.02,22.3Z"/>
    </clipPath>
    <clipPath id="uuid-1269e1f2-b734-481e-a78b-1bf008509abb">
      <path class="uuid-a2e23ae7-564c-4852-866c-a2c4aa0544a3" d="M862.89,254.84c3.71,44-.8,88.86-15.5,130.59l-.83,2.34-.43,1.18c-.38,1.26-1.19,2.63-2.26,3.43-10.53.18-21.59.34-33.09.51l-6.37,32.69c11.51.65,23,1.32,34.47,1.99,1.65.05,2.83,1.83,2.19,3.37l-41.75,105.17c-.38.95-1.28,1.52-2.22,1.54,0,.03-227.92,4.18-227.92,4.2-3.09.07-5.71-2.04-6.42-4.89-11.72-40.44-22.36-82.7-31.91-123.69,10.46.33,20.94.67,31.42,1.03l-3.92-19.78c-9.99.05-19.68.1-28.97.15-2.75.02-5.1-1.73-5.98-4.18-4.07-12.72-7.03-25.26-9.53-38.25-6.49-35.19-8.09-71.4-4.72-107.02.38-3.29.8-6.46,1.49-9.84.23-1.16,1.26-1.96,2.4-1.96h25.88c10.76-29.57,29.96-56.2,56.48-73.49,42.04-27.31,101.53-29.7,147.92-12.67,31.27,11.49,57.59,35.01,74.08,63.73,4.18,7.21,7.85,14.71,10.95,22.43h29.18c1.13,0,2.08.78,2.34,1.83,1.62,6.59,2.34,12.95,3.02,19.6Z"/>
    </clipPath>
    <clipPath id="uuid-dafceeec-cd6b-4a58-b9a5-2b6c299b35cc">
      <path class="uuid-a2e23ae7-564c-4852-866c-a2c4aa0544a3" d="M620.35,572.41c-5.86,20.65-17.88,39.04-29.14,56.69-35.15,52.79-75.87,101.44-117,149.54-10.3,11.92-20.75,23.69-31.32,35.39l-.03.04-12.44,19.76c.97,1.18,1.68,2.64,2.09,4.29,2.1,8.09-5.67,15.15-13.2,13.36l-24.39,38.71h0c.06.47-.07.87-.29,1.21l-104.12,165.35c-.27.43-.68.73-1.14.86-12.16,3.57-24.47,4.32-36.96,3.63-16.51-1.05-32.92-5.55-47.74-12.81-3.27-1.47-7.76-4.21-10.98-5.91-3.09-2.1-7.47-4.74-10.35-6.97-13.43-9.88-25.2-22.48-33.87-36.76-6.57-10.99-11.88-22.9-14.31-35.53-.2-1.39.13-2.74.84-3.84l69.23-105.47c2.49-4.09,4.97-8.15,7.48-12.23,18.55-30.33,37.4-60.68,56.95-90.44-1.67-3.37-1.72-7.56.5-10.77,2.33-3.73,6.22-5.32,9.99-5.07,3.6-5.35,7.2-10.68,10.85-15.99h0c-6.45-16.49-10.64-33.51-14.59-50.57-.56-2.61-1.8-7.31-2.28-9.82-3.21-14.76-3.08-30.27.49-44.95,3.34-15.66,15.01-35.12,21.95-49.49,8.01-15.85,16.13-31.66,24.27-47.43,4.98-8.32,13.46-14.42,22.85-16.6,7.12-1.72,14.66-1.06,21.41,1.64,1.88-5.02,3.8-10.04,5.79-15.02,9.18-22.21,19.64-44.25,33.73-64.04,10.14-14.02,24.98-29.84,44.44-25.96,43.82,7.86,104.33,68.45,133.47,101.97,14.13,16.92,28.99,34.57,37.52,55.42,2.24,5.25,1.77,12.23.3,17.8Z"/>
    </clipPath>
    <clipPath id="uuid-c3a50389-2576-49f1-8b56-a04c2a400bf0">
      <path class="uuid-a2e23ae7-564c-4852-866c-a2c4aa0544a3" d="M1061.58,468.09l.09.14,39.41,74.45c10.84,20.49,14.19,44.26,9.45,66.94l-12.41,59.36,10.81,16.14c3.79-.25,7.72,1.26,10.17,4.71,2.67,3.76,2.63,8.18.84,11.72l86.41,128.9c.27.37.41.86.35,1.29l50.17,74.84c.28.42.41.92.35,1.4-4.84,30.8-23.43,58.44-48.17,76.91-21.4,16.31-48.07,26.1-75.07,26.51-7.35.12-14.72-.36-21.95-1.76-1.88-.4-4.4-.56-5.53-2.38-.52-1.26-47.69-72.54-79.35-120.89-17.6-25.64-35.05-51.39-52.09-77.4-.85-1.32-1.69-2.64-2.54-3.96-1.45.3-3,.31-4.59-.07-5.88-1.23-9.84-7.64-8.25-13.41.36-1.45.96-2.7,1.76-3.76-4.19-6.59-8.32-13.21-12.38-19.87-10.84-5.61-19.11-14.39-27.05-23.39-44.6-50.41-88.9-101.34-127.24-156.84-11.06-16.62-22.55-33.86-29.29-53.2-.5-1.56-1.36-4.77-1.69-6.38-1.06-4.57-.96-10.51.72-14.69,2.1-6.01,5.09-11.65,8.23-17.01,26.18-44.17,108.34-132.93,158.81-142.98,8.99-1.9,18.36.65,25.56,6.31,13.29,10.28,21.95,24.12,30.37,38.1,10.55,18.57,19.74,37.83,27.95,57.48,16.19-8.13,36.26-2.8,46.13,12.81Z"/>
    </clipPath>
  </defs>
  <path d="M893.49,852.09l-464.3-36.86c-1.27-.1-2.45.82-2.62,2.11-2.47,18.49-4.74,36.98-6.86,55.5-6.33,54.94-12.01,111.32-16.94,166.32-6.19,74.08-14.92,148.18-11.49,222.65l.02.36c.07,1.19,1,2.19,2.22,2.29,155.36,12.36,310.91,24.39,466.1,36.27,9.82-72.87,16.13-147.43,22-220.99,5.53-72.64,11.23-152.63,14.12-225.02.11-1.34-.9-2.53-2.26-2.63ZM890.58,856.78c-6.08,52.44-11.77,109.65-16.3,162.14-7.8,91.88-15.22,185.74-17.85,278.08-153.43-12.6-306.49-25.08-459.77-37.24-.16.82-.33,1.62-.49,2.44l-2.26-2.65c.92.07,1.83.15,2.75.21,14.71-72.22,17.78-145.94,23.28-219.25,3.78-55.1,7.18-111.61,9.53-166.91.78-17.75,1.44-35.49,1.91-53.27l-2.58-.21,2.65-2.26c-.02.82-.05,1.65-.07,2.47l459.2,36.45c.08-.82.18-1.62.28-2.44l2.26,2.63-2.53-.2Z"/>
  <g>
    <path class="uuid-a2e23ae7-564c-4852-866c-a2c4aa0544a3" d="M890.58,856.78c-6.08,52.44-11.77,109.65-16.3,162.14-7.8,91.88-15.22,185.74-17.85,278.08-153.43-12.6-306.49-25.08-459.77-37.24,14.71-72.22,17.78-145.94,23.28-219.25,3.78-55.1,7.18-111.61,9.53-166.91.78-17.75,1.44-35.49,1.91-53.27l459.2,36.45Z"/>
    <g class="uuid-9288ab1f-1091-4110-b696-a78579946fc0">
      <path class="uuid-56319c2f-4a67-4818-ace7-5edeea809001" d="M890.59,1034.81c-156.09,26.85-309.84,67.27-458.95,120.67-10.01,3.59-20.21,7.27-30.84,7.64-10.63.37-21.97-3.14-28.44-11.57-6.33-8.24-6.93-19.41-6.83-29.8.23-22.15,2.52-44.22,4.81-66.25,3.87-37.25,8.17-75.85,27.37-108.01,28.46-47.7,83.87-71.89,137.31-87.04,80.83-22.91,165.57-31.96,249.41-26.62,35.09,2.23,72.85,8.3,97.48,33.39,21.14,21.54,28.45,53.72,26.22,83.82-2.23,30.1-12.9,58.84-23.46,87.12.76-3.97,1.51-7.93,2.27-11.9"/>
    </g>
  </g>
  <path d="M1069.17,526.49c-63.49,0-115.14,51.65-115.14,115.13s51.65,115.14,115.14,115.14,115.14-51.65,115.14-115.14-51.65-115.13-115.14-115.13ZM1069.17,751.85c-60.78,0-110.24-49.45-110.24-110.24s49.46-110.22,110.24-110.22,110.24,49.45,110.24,110.22-49.45,110.24-110.24,110.24Z"/>
  <path class="uuid-a2e23ae7-564c-4852-866c-a2c4aa0544a3" d="M1179.41,641.61c0,60.79-49.45,110.24-110.24,110.24s-110.24-49.45-110.24-110.24,49.46-110.22,110.24-110.22,110.24,49.45,110.24,110.22Z"/>
  <path d="M1281.77,884.03s-87.86-209.23-87.89-209.25c-.18-.46-.49-.83-.93-1.11-36.55-20.51-82.58-17.44-119.21,1.1-21.71,10.58-40.8,26.86-54.78,46.59-6.6,9.45-12.31,19.62-16.22,30.49-.26.85-.69,1.73-.7,2.63l81.58,212.73c.75,2.03,2.34,3.76,4.41,4.77,14.03,6.13,29.26,8.91,44.45,9.84,14.61.74,29.91-.65,44.1-4.32,37.65-9.27,72.17-32.76,92.78-65.76,5.12-8.19,9.46-16.67,12.46-26.07.18-.52.16-1.1-.05-1.63ZM1255.27,918.75c-21.01,23.73-50.53,39.71-81.6,45.36-21.66,4.1-44.61,2.71-65.53-4.25-2.86-1.01-5.79-2.11-8.57-3.37l-92.54-202.09-.02.03v-.05l.02.02.05-.15c2.96-8.53,7.18-16.61,11.97-24.24,7.44-11.77,16.98-22.64,27.53-31.7,38.68-32.87,97.85-45.93,143.63-20.55-.02-.03-.02-.05-.02-.07.02,0,.03.05.08.1-.02-.02-.05-.02-.07-.03,1.01,4.33,80.52,192.98,86.62,207.21-5.02,12.33-12.78,23.77-21.56,33.77Z"/>
  <path class="uuid-a2e23ae7-564c-4852-866c-a2c4aa0544a3" d="M1276.83,884.98c-5.02,12.33-12.78,23.77-21.56,33.77-21.01,23.73-50.53,39.71-81.6,45.36-21.66,4.1-44.61,2.71-65.53-4.25-2.86-1.01-5.79-2.11-8.57-3.37l-92.54-202.09.05-.15c2.96-8.53,7.18-16.61,11.97-24.24,7.44-11.77,16.98-22.64,27.53-31.7,38.68-32.87,97.85-45.93,143.63-20.55,1.01,4.33,80.52,192.98,86.62,207.21Z"/>
  <path d="M372.69,650.91c-.77-45.69-30.29-88.84-72.1-106.9-77.24-33.46-164.05,22.66-165.59,106.9-1.62,76.48,70.08,135.87,144.93,118.76,54.33-11.7,94.55-63.41,92.77-118.76ZM365.3,650.91c-.92,58.49-50.8,105.53-109,103.77-55.43-.28-103.96-48.12-104.06-103.77-2.08-57.41,46.24-108.11,104.06-108.75,60.76-1.63,110.91,47.75,109,108.75Z"/>
  <path class="uuid-56319c2f-4a67-4818-ace7-5edeea809001" d="M365.3,650.91c-.92,58.49-50.8,105.53-109,103.77-55.43-.28-103.96-48.12-104.06-103.77-2.08-57.41,46.24-108.11,104.06-108.75,60.76-1.63,110.91,47.75,109,108.75Z"/>
  <path d="M357,761.7c-15.68-36.11-50.8-60.99-88.45-69.73-2.58-.49-8.11-1.86-10.66-2.24-2.26-.29-8.5-1.14-10.81-1.44-16.87-1.49-34.05-.15-50.48,4.05-13.4,3.68-26.64,8.89-38.33,16.51-.7.52-1.59.95-2.14,1.67l-62.3,219.12c-.49,1.73-.34,3.68.52,5.41,7.32,13.24,17.57,24.58,28.88,34.46,14.81,12.72,32.43,22.48,50.94,28.57,27.54,9.06,57.64,10.8,85.8,3.51,14.04-3.73,27.4-9.02,39.53-17.34.46-.31.8-.8.95-1.37l56.62-219.73c.13-.47.11-.98-.08-1.45ZM352.4,763.38s-.02-.05-.03-.08c-1.72,3.63-52.73,202.6-56.43,217.39.25-.13.47-.28.72-.43l-.95,1.39s.08-.34.23-.96c-11.41,6.9-24.52,11.38-37.53,14.12-31.17,6.42-64.49,1.49-92.9-12.67-19.97-9.78-37.66-24.8-50.35-43.07-1.85-2.75-3.66-5.57-5.23-8.5l-.7,3.02-.52-5.41c.38.8.78,1.6,1.23,2.39l50.2-217.06-.03.02s.02-.03.03-.03l.05-.23c.02.08,0,.16-.03.21l.13-.08c5.54-3.73,11.56-6.75,17.67-9.45,14.96-6.46,31.35-10.2,47.62-11.18,50.69-2.75,105.65,22.57,126.8,70.52.03-.08.05-.05.03.1Z"/>
  <path class="uuid-56319c2f-4a67-4818-ace7-5edeea809001" d="M352.37,763.29v.02c-1.72,3.63-52.73,202.6-56.43,217.39-11.41,6.9-24.52,11.38-37.53,14.12-31.17,6.42-64.49,1.49-92.9-12.67-19.97-9.78-37.66-24.8-50.35-43.07-1.85-2.75-3.66-5.57-5.23-8.5l50.2-217.06v-.02l.02-.02.13-.08c5.54-3.73,11.56-6.75,17.67-9.45,14.96-6.46,31.35-10.2,47.62-11.18,50.69-2.75,105.65,22.57,126.8,70.52Z"/>
  <path d="M309.6,1004.18c-.46-30.37-13.45-59.81-34.59-81.42-73.92-74.49-199.9-23.57-202.09,81.42-1.16,86.13,87.44,145.5,166.41,110.37,42.76-18.6,71.61-63.88,70.27-110.37ZM234.13,1102.05c-86.72,32.28-171.06-51.34-138.01-138.24,27.9-71.73,120.36-91.29,175.43-37.56,20.84,20.06,32.12,49.19,31.42,77.94-.31,42.79-28.8,83.2-68.83,97.87Z"/>
  <path class="uuid-56319c2f-4a67-4818-ace7-5edeea809001" d="M302.97,1004.18c-.31,42.79-28.8,83.2-68.83,97.87-86.72,32.28-171.06-51.34-138.01-138.24,27.9-71.73,120.36-91.29,175.43-37.56,20.84,20.06,32.12,49.19,31.42,77.94Z"/>
  <g>
    <path d="M1304.06,913.16c-15.95-60.97-79.92-98.45-140.94-83.19-62.7,14.76-102.02,79.46-86.39,142.03,14.96,64,82.17,102.57,145.11,84.85,61.67-16.58,99.37-82.21,82.22-143.7ZM1285.63,997.16c-50.2,80.64-170.44,62.3-196.24-28.43-11.82-40.83,3.73-87.35,37.33-113.41,47.21-37.6,117.55-28,153.36,20.51,26.38,34.47,28.54,84.64,5.54,121.32Z"/>
    <g>
      <path class="uuid-a2e23ae7-564c-4852-866c-a2c4aa0544a3" d="M1285.63,997.16c-50.2,80.64-170.44,62.3-196.24-28.43-11.82-40.83,3.73-87.35,37.33-113.41,47.21-37.6,117.55-28,153.36,20.51,26.38,34.47,28.54,84.64,5.54,121.32Z"/>
      <g class="uuid-73b3e631-1e08-4057-a233-9039b8e0b57a">
        <path class="uuid-56319c2f-4a67-4818-ace7-5edeea809001" d="M1083.06,848.54c2.84,45.04,30.89,85.97,67.7,112.08,36.81,26.11,81.54,38.93,126.22,45.27,6.65.94,14.25,2.34,17.65,8.13,2.77,4.72,1.59,10.96-1.52,15.47-3.1,4.51-7.79,7.63-12.43,10.53-29.88,18.69-62.93,33.01-97.79,38.22-34.86,5.21-71.65.88-102.76-15.68-31.11-16.56-55.93-45.98-63.55-80.39-7.62-34.41,3.51-73.18,30.51-95.83,11.59-9.72,25.44-16.27,39.1-22.77"/>
      </g>
    </g>
  </g>
  <path d="M1075.6,512.2c-1.46-13.16-3.05-26.25-5-39.39-.13-.89-.79-1.69-1.71-1.96-25.9-7.18-52.27-11.47-78.8-15.22-52.84-7.21-106.28-10.86-159.55-12.27-34.8-1.02-71.9-.96-106.67-.25-20.73.72-46.09,1-66.64,2.53-44.39,3.21-88.66,9.8-131.85,20.57-47.41,11.65-94.2,28.09-138.4,48.83-46.33,21.8-90.93,47.97-130.65,80.43-.65.55-3.31,2.81-3.85,3.27-.71.63-1.65,1.37-1.99,2.29,1.14.82,133.63,481.45,135.23,481.83,2.03,4.16,7.03,5.89,11.21,3.87.18-.07,226.87-120.49,227.06-120.58.63-.3,1.11-.88,1.28-1.59,0,0,10.45-40.24,17.91-68.94l87.61-1.92c-1.63,8.57-14.14,74.23-14.14,74.23-.38,1.9.48,3.89,2.25,4.87l170.27,95.12c.52.31,1.14.41,1.78.26l28.72-6.82c.84.25,1.8.11,2.53-.49,5.32-4.23,10.23-8.61,15.13-13.13,33.96-31.71,63.17-68.52,86.39-108.76,23.19-40.21,40.21-84.3,48.24-130.1.62-3.41,2.18-11.27,2.77-14.67,1.15-9.22,3.73-25.26,4.5-34.48.67-7.14,1.69-17.6,2.33-24.73.1-3.26,1.34-21.12,1.44-24.77,2.94-65.91-.29-132.46-7.41-198.01ZM890.77,1063.17l-164.39-96.78c1.03-5.91,13.29-76.11,13.29-76.11.53-2.51-1.57-4.95-4.13-4.76l-91.05,5.05c2.12-8.18,5.57-21.43,5.77-22.19l110.94-8.59c-.84,5.73-14.49,98.93-14.49,98.93-.13.95.32,1.97,1.21,2.47,0,0,154.94,90.44,165.48,96.61-7.67,1.82-21.22,5.04-22.63,5.38ZM1076.65,729.68c-.64,10.85-2.15,23.53-3.1,34.38-.89,6.59-3.11,22.71-4.05,29.29-.56,3.23-2.15,11.14-2.76,14.52-7.96,45.2-24.81,88.66-47.76,128.35-26.03,44.65-59.2,85.69-98.82,118.96-16.9-9.78-153-88.52-168.34-97.4.46-3.19,14.68-100.31,14.68-100.31.25-1.53-1.06-2.95-2.61-2.81l-115.73,8.97c-1.03.07-1.92.78-2.19,1.82,0,0-22.33,85.98-25.14,96.79-14.12,6.67-181.37,85.67-222.28,105-5.58-18.12-142.94-463.67-143.2-464.48.19-.15.38-.33.38-.33l1.25-1.06s2.52-2.13,2.52-2.14c54.97-44.61,118.59-77.87,184.63-102.87,22.26-8.24,46.62-16.07,69.57-22.08,47-12.62,95.37-20.25,143.87-23.73,20.51-1.37,45.76-1.92,66.43-2.53,34.7-.71,71.69-.77,106.42.26,53.12,1.39,106.36,5.02,159,12.21,25.68,3.62,51.56,7.87,76.55,14.67,2.75,18.97,4.9,38.14,6.7,57.26,6.15,65.33,8.43,131.75,3.98,197.28Z"/>
  <path class="uuid-b081a4b3-3e22-4660-849b-2e2fc320c83d" d="M913.4,1057.8c-7.67,1.82-21.22,5.04-22.63,5.38l-164.39-96.78c1.03-5.91,13.29-76.11,13.29-76.11.53-2.51-1.57-4.95-4.13-4.76l-91.05,5.05c2.12-8.18,5.57-21.43,5.77-22.19l110.94-8.59c-.84,5.73-14.49,98.93-14.49,98.93-.13.95.32,1.97,1.21,2.47,0,0,154.94,90.44,165.48,96.61Z"/>
  <g>
    <path class="uuid-a2e23ae7-564c-4852-866c-a2c4aa0544a3" d="M1076.65,729.68c-.64,10.85-2.15,23.53-3.1,34.38-.89,6.59-3.11,22.71-4.05,29.29-.56,3.23-2.15,11.14-2.76,14.52-7.96,45.2-24.81,88.66-47.76,128.35-26.03,44.65-59.2,85.69-98.82,118.96-16.9-9.78-153-88.52-168.34-97.4.46-3.19,14.68-100.31,14.68-100.31.25-1.53-1.06-2.95-2.61-2.81l-115.73,8.97c-1.03.07-1.92.78-2.19,1.82,0,0-22.33,85.98-25.14,96.79-14.12,6.67-181.37,85.67-222.28,105-5.58-18.12-142.94-463.67-143.2-464.48.19-.15.38-.33.38-.33l1.25-1.06s2.52-2.13,2.52-2.14c54.97-44.61,118.59-77.87,184.63-102.87,22.26-8.24,46.62-16.07,69.57-22.08,47-12.62,95.37-20.25,143.87-23.73,20.51-1.37,45.76-1.92,66.43-2.53,34.7-.71,71.69-.77,106.42.26,53.12,1.39,106.36,5.02,159,12.21,25.68,3.62,51.56,7.87,76.55,14.67,2.75,18.97,4.9,38.14,6.7,57.26,6.15,65.33,8.43,131.75,3.98,197.28Z"/>
    <g class="uuid-0a0674db-2509-4768-94a1-279ac94a951a">
      <path class="uuid-56319c2f-4a67-4818-ace7-5edeea809001" d="M232.24,520.15c14.33-27.48,38.92-48.33,65.26-64.66,84.86-52.61,188.36-63.39,287.95-70.52,106.81-7.65,216.35-12.34,318.82,18.77,30.19,9.16,60.72,22.28,80.68,46.71,36.46,44.61,25.32,113.61-8.04,160.58-50.12,70.56-136.48,103.15-212.76,144.04-106.17,56.91-199.02,135.21-295.93,206.76-36.87,27.22-78.45,54.73-124.18,51.73-34.71-2.28-66.48-22.61-88.56-49.48-22.08-26.87-35.5-59.82-45.45-93.15-21.66-72.61-28.21-149.7-19.11-224.93,6.56-54.24,22.02-109.12,56.35-151.63,48.74-60.36,127.04-86.78,200.98-110.3"/>
      <path class="uuid-55254039-9941-4fd1-aa36-9ef2b1969e9e" d="M767.06,830.99c9.29,2.9,17.91,10.02,19.69,19.59,1.59,8.56-2.39,17.02-4.91,25.35-4.76,15.78-4.28,33.09,1.36,48.57,10.51-18.43,19.54-37.7,26.99-57.57,3.72-9.93,7.08-20.74,4.3-30.98-3.54-13.03-16.51-21.74-29.77-24.29-8.1-1.56-50.14-3.21-51.21,9.28-.89,10.43,27.25,8.07,33.55,10.04Z"/>
    </g>
  </g>
  <path d="M1167.97,449.44c-.52-.23-53.08-23.93-133.08-39.39-68.72-13.29-115.52-4.22-127.89-1.23-.07.02-.15.03-.21.05-.25.07-.47.11-.69.16-6,1.31-11.9,2.93-17.67,4.99-.64.21-1.52.62-2.04,1.14l-51.6,270.5c-.34,1.88.51,3.89,2.27,4.89,49.71,26.76,103.41,48.7,160.24,53.03,42.76,2.48,85.67-2.37,127.22-12.65.49-.11.92-.21,1.31-.31.13-.02.26-.05.38-.08,1.1-.26,1.68-.41,1.73-.43.59-.15,1.1-.52,1.42-1.01.07-.1.11-.21.16-.31.05-.1.08-.18.11-.28.05-.13.08-.28.1-.43l.02-.13,39.64-275.93c.15-1.08-.42-2.12-1.42-2.58ZM984.06,735.24c-49.15-7.34-96.17-27.22-139.47-51.23l45.54-265.4-.23.08s-.05.03-.08.03c.16-.08.33-.28.38-.49l-.07.38h.02l.96-.34,1.95-.67c2.76-.85,5.52-1.65,8.32-2.37l-48.22,266.15c-.2,1.01.28,2.04,1.16,2.57.75.44,75.81,44.02,145.81,52.65,1.49.18,2.97.36,4.45.51-6.85-.41-13.7-1.03-20.52-1.86ZM1137.28,641.13l-12.16,84.59v.03s-.07.02-.1.02v-.03c-2.32.54-4.64,1.06-6.96,1.55-.07.02-.15.03-.21.05-18.52,3.74-64.11,10.94-117.1,4.4-63.59-7.85-131.62-45.07-142.44-51.18l48.3-266.58c.11-.03.25-.07.38-.1.05-.02.11-.03.16-.05,9.92-2.52,56.66-12.55,126.83,1.03,18.03,3.48,34.65,7.39,49.58,11.34,44.23,11.72,73.61,23.88,80.72,26.96l-26.99,187.97Z"/>
  <path class="uuid-b081a4b3-3e22-4660-849b-2e2fc320c83d" d="M1004.58,737.1c-6.85-.41-13.7-1.03-20.52-1.86-49.15-7.34-96.17-27.22-139.47-51.23l45.54-265.4h.02l.96-.34,1.95-.67c2.76-.85,5.52-1.65,8.32-2.37l-48.22,266.15c-.2,1.01.28,2.04,1.16,2.57.75.44,75.81,44.02,145.81,52.65,1.49.18,2.97.36,4.45.51Z"/>
  <g>
    <path class="uuid-a2e23ae7-564c-4852-866c-a2c4aa0544a3" d="M1164.26,453.17l-26.99,187.97-12.16,84.59v.03s-.07.02-.1.02v-.03c-2.32.54-4.64,1.06-6.96,1.55-.07.02-.15.03-.21.05-18.52,3.74-64.11,10.94-117.1,4.4-63.59-7.85-131.62-45.07-142.44-51.18l48.3-266.58c.11-.03.25-.07.38-.1.05-.02.11-.03.16-.05,9.92-2.52,56.66-12.55,126.83,1.03,18.03,3.48,34.65,7.39,49.58,11.34,44.23,11.72,73.61,23.88,80.72,26.96Z"/>
    <g class="uuid-091edcc2-a2cd-480b-bc30-53b4ec45c43d">
      <path class="uuid-55254039-9941-4fd1-aa36-9ef2b1969e9e" d="M1119.23,457.46c4.72,1.4,9.65,2.92,13.08,6.45,6.88,7.07,4.87,18.59,2.39,28.14-3.08,11.87-6.16,23.74-9.24,35.62-.51,1.98-1.75,4.46-3.77,4.08-1.13-.22-1.84-1.3-2.43-2.28-12.48-20.96-25.19-41.81-37.46-62.9-16.77-28.82,23.16-14.8,37.42-9.1Z"/>
    </g>
  </g>
  <path d="M549.6,661.96c-2.19,1.75-4.4,3.47-6.62,5.15,3.11-2.3,5.35-4.07,6.64-5.12l-.02-.03Z"/>
  <path d="M554.94,662.42c-.02-.11-.05-.23-.08-.36l-.05-.2-.05-.13-.02-.03-82.73-265.95c-.31-1.03-1.31-1.77-2.37-1.72-.57,0-58.23,1.21-137.1,21.63-66.81,17.29-105.04,45.05-115.58,53.52-.2.15-.38.29-.56.44-4.76,3.66-9.35,7.57-13.63,11.79-.75.8-1.73,1.62-2.13,2.7l67.72,266.93c.67,2.65,2.96,4.71,5.84,4.94,6.51.41,12.77.6,19.14.69,47.22.33,95.2-3.47,140.04-19.53,42.86-15.97,82.16-40.67,117.38-69.77.1-.08.2-.16.29-.23.18-.15.34-.28.51-.41s.33-.26.47-.38c.15-.11.29-.23.42-.34.43-.36.77-.64,1.03-.85.28-.23.46-.39.56-.46.02-.03.05-.05.05-.05.28-.23.51-.52.64-.85.08-.16.13-.33.18-.51.05-.28.07-.57.02-.87ZM421.69,731.45c-45.69,12.86-94.42,14.63-141.69,11.46l-74.47-257.31-.26.26s0-.02.02-.03c.11-.15.18-.38.13-.6l.11.38.72-.74,1.49-1.44c2.11-1.96,4.28-3.86,6.49-5.7l70.84,261.03c.28,1,1.13,1.72,2.16,1.81.34.02,13.76,1.13,34.02,1.13,28.25,0,69.75-2.16,107.38-12.37-2.29.74-4.61,1.45-6.93,2.13ZM549.61,662c-1.29,1.05-3.53,2.81-6.64,5.12-.07.07-.13.11-.21.16-.49.36-1.01.75-1.54,1.14-16.59,12.16-53.29,36.4-101.28,52.37-60.78,20.25-138.21,15.87-150.6,15.01l-70.96-261.46c.21-.18.46-.38.74-.6.02-.03.05-.05.08-.07,8.63-7.11,46.36-35.62,114.57-53.27,17.95-4.64,34.77-8.29,50.07-11.15,44.74-8.35,76.32-9.97,84.05-10.27l56.44,181.44,25.34,81.47.02.03s-.05.05-.08.07Z"/>
  <path class="uuid-b081a4b3-3e22-4660-849b-2e2fc320c83d" d="M428.62,729.33c-2.29.74-4.61,1.45-6.93,2.13-45.69,12.86-94.42,14.63-141.69,11.46l-74.47-257.31.72-.74,1.49-1.44c2.11-1.96,4.28-3.86,6.49-5.7l70.84,261.03c.28,1,1.13,1.72,2.16,1.81.34.02,13.76,1.13,34.02,1.13,28.25,0,69.75-2.16,107.38-12.37Z"/>
  <path class="uuid-56319c2f-4a67-4818-ace7-5edeea809001" d="M549.69,661.93s-.05.05-.08.07l-.02-.03c-2.19,1.75-4.4,3.47-6.62,5.15-.07.07-.13.11-.21.16-.49.36-1.01.75-1.54,1.14-16.59,12.16-53.29,36.4-101.28,52.37-60.78,20.25-138.21,15.87-150.6,15.01l-70.96-261.46c.21-.18.46-.38.74-.6.02-.03.05-.05.08-.07,8.63-7.11,46.36-35.62,114.57-53.27,17.95-4.64,34.77-8.29,50.07-11.15,44.74-8.35,76.32-9.97,84.05-10.27l56.44,181.44,25.34,81.47.02.03Z"/>
  <path d="M1112.29,1781.96l-177.5-461.05c-.34-.92-1.24-1.59-2.29-1.57l-586.23.47c-45.3,136.77-112.41,333.45-157.71,472.73.13,6.51,5.51,11.69,12.03,11.54.02,0,47.57-.98,120.9-2.5.67.31,1.39.57,2.14.74,2.45.54,4.9.16,6.98-.93,251.34-5.18,779.42-16.08,779.44-16.1,1.68-.02,2.83-1.8,2.24-3.33ZM675.33,1780.28l6.08-247.09,78.1-5.82c3.01-.26,2.97-4.63,0-4.9l-86.81-6.46c-5.03-.42-9.3,3.89-8.93,8.91l6.28,255.36-331-.08c5.97-26.91,102.28-454.93,102.28-454.93.1-.49.07-.98-.13-1.42-1.52,0-3.04-.02-4.54,0-.05.08-.07.18-.1.28-.03.13-101.09,389.19-118.22,456.08l-101.79-.03c40.36-137.91,93.04-323.87,132.6-456.4,0,0,34.85.03,87.5.08.43-1.14,1.67-1.8,2.88-1.49.8.2,1.41.77,1.67,1.49,163.35.13,487.12.39,489.6.39,1.19,3.11,173.09,449.6,175.61,456.16l-431.08-.11Z"/>
  <g>
    <path class="uuid-a2e23ae7-564c-4852-866c-a2c4aa0544a3" d="M759.52,1522.47l-86.81-6.46c-5.03-.42-9.3,3.89-8.93,8.91l6.28,255.36-331-.08c5.97-26.91,102.28-454.93,102.28-454.93.1-.49.07-.98-.13-1.42,163.35.13,487.12.39,489.6.39,1.19,3.11,173.09,449.6,175.61,456.16l-431.08-.11,6.08-247.09,78.1-5.82c3.01-.26,2.97-4.63,0-4.9Z"/>
    <g class="uuid-366947fc-f51b-45c3-b66d-68a47146094d">
      <path class="uuid-56319c2f-4a67-4818-ace7-5edeea809001" d="M406.39,1307.19c58.55-6.56,117.19-12.28,175.9-17.17,126-10.49,255.26-16.82,376.6,18.69,5.2,1.52,10.57,3.23,14.51,6.94,3.94,3.71,5.98,10.03,3.21,14.68-2.12,3.56-6.33,5.21-10.23,6.62-61.1,22.05-122.2,44.1-183.3,66.15-110.95,40.04-221.9,80.08-332.85,120.12-27.23,9.83-59.05,19.27-83.65,4.02-24.97-15.48-30.46-49.26-29.82-78.63.74-34.29,6.75-69.37,24.5-98.73,17.74-29.35,48.81-52.13,83.09-53.27"/>
    </g>
  </g>
  <path class="uuid-55254039-9941-4fd1-aa36-9ef2b1969e9e" d="M436.66,1323.84c-.05.08-.07.18-.1.28-.03.13-101.09,389.19-118.22,456.08l-101.79-.03c40.36-137.91,93.04-323.87,132.6-456.4,0,0,34.85.03,87.5.08Z"/>
  <path d="M516.61,1269.52c-2.06-21.09-26.89-32.14-43.15-17.51-11.02,9.6-11.21,28.1-.44,38.07,17.29,16.67,45.31,2.8,43.6-20.56ZM510.47,1269.65c-.69,14.56-18.44,20.63-28.48,11.08-10.23-9.46-4.3-27.25,9.87-28.65,10.1-1.21,19.53,7.13,18.6,17.57Z"/>
  <path d="M661.47,1276.05c-2.35-21.05-27.04-32.35-43.6-17.8-14.94,13.04-9.94,38.18,8.76,44.82,17.82,6.7,36.68-8.57,34.83-27.02ZM655.08,1276.18c-.88,14.22-18.11,19.71-27.84,10.53-9.92-9.17-4.32-26.33,9.37-27.92,10.15-1.36,19.55,6.83,18.47,17.39Z"/>
  <path d="M805.03,1270.06c-1.88-21.18-26.73-32.35-43.04-17.54-17.8,16.46-4.92,46.7,19.4,45,13.93-.78,24.88-14.04,23.64-27.46ZM799.21,1270.19c-.67,14.84-18.6,21.17-28.82,11.26-10.17-9.6-4.09-27.27,10.05-28.72,9.96-1.21,19.7,7.18,18.77,17.46Z"/>
  <path d="M948.42,1259.72c-.9-11.92-9.14-20.6-19.04-23.31-.47-6.21-.92-12.13-1.34-17.59-.21-2.08-.36-6.49-.74-8.52-1.62-9.66-10.84-16.48-20.48-15.77-132.54.41-416.06-2.55-552.37-3.87-13.71-.28-25.24,12.29-24.01,25.86.26,3.43.77,13.04,1.06,16.54.1,1.39.2,2.83.29,4.33-1.42.83-2.81,1.83-4.15,2.99-14.73,12.77-10.38,37.27,7.27,44.81.8,11.49,1.6,22.44,2.4,31.24,1.75,11.56,12.49,20.61,24.14,20.48h4.15c126.77.05,422.68-.83,552.78-1.23,6.47-.82,12.24-5.13,15.02-11,1.86-3.76,2.11-8.14,1.63-12.23-.69-8.4-1.41-17.9-2.14-27.84,9.25-3.91,16.23-13.13,15.51-24.9ZM337.73,1269c-2.39-2.26-3.81-5.02-4.4-7.91-.28-1.37-.36-2.76-.28-4.15.46-7.14,5.61-13.99,13.76-15.12.16-.03.33-.05.49-.07,9.58-1.24,19.45,6.82,18.18,17-.64,9.15-7.94,14.74-15.66,14.99-4.27.15-8.65-1.34-12.1-4.74ZM916.47,1329.99c-4.99.07-15.68-.2-20.55-.2-13.73-.13-52.23-.78-66.27-1-136.36-2.14-327.27-5.56-463.96-7.37-.9-.02-3.27-.07-4.14-.07-3.24-.02-6.34-1.85-7.83-4.72-1.27-2.21-1.06-5.12-1.31-7.55-.26-4.64-1.01-14.22-1.65-22.35,12.36-2.78,22.12-14.58,20.69-28.12-1.6-14.07-12.59-23.88-24.78-24.8l-.15-1.85-.87-11.02-.44-5.51c-.65-5.39,3.84-10.33,9.22-10.36,135.53-1.52,421.9-5.82,553.75-5.66,6.8-.18,13.06,5.05,14.17,11.75.61,7.6,1.23,15.84,1.83,24.37-6.33-.38-12.93,1.68-18.49,6.82-10.59,9.5-10.59,27.58,0,37.27,6.51,6.16,14.56,7.98,21.94,6.55.64,9.35,1.26,18.36,1.86,26.66,1.46,8.68-4.18,16.72-13.04,17.13ZM932.22,1275.11c-1.65.69-3.42,1.11-5.21,1.26-4.72.43-9.66-1.03-13.53-4.82-6.26-5.88-6.87-16.25-1.28-22.97,3.32-4.14,7.9-6.11,12.49-6.29,1.73-.07,3.48.11,5.16.54,7.31,1.81,13.45,8.04,13.01,17-.25,7.45-4.81,12.9-10.64,15.28Z"/>
  <g>
    <path class="uuid-55254039-9941-4fd1-aa36-9ef2b1969e9e" d="M942.86,1259.83c-.25,7.45-4.81,12.9-10.64,15.28-1.65.69-3.42,1.11-5.21,1.26-4.72.43-9.66-1.03-13.53-4.82-6.26-5.88-6.87-16.25-1.28-22.97,3.32-4.14,7.9-6.11,12.49-6.29,1.73-.07,3.48.11,5.16.54,7.31,1.81,13.45,8.04,13.01,17Z"/>
    <path class="uuid-55254039-9941-4fd1-aa36-9ef2b1969e9e" d="M929.52,1312.86c-.61-8.3-1.23-17.31-1.86-26.66-7.37,1.42-15.43-.39-21.94-6.55-10.59-9.69-10.59-27.77,0-37.27,5.56-5.13,12.16-7.19,18.49-6.82-.61-8.53-1.23-16.77-1.83-24.37-1.11-6.7-7.37-11.93-14.17-11.75-131.85-.16-418.22,4.14-553.75,5.66-5.38.03-9.87,4.97-9.22,10.36l.44,5.51.87,11.02.15,1.85c12.2.92,23.18,10.72,24.78,24.8,1.42,13.53-8.34,25.34-20.69,28.12.64,8.12,1.39,17.7,1.65,22.35.25,2.44.03,5.35,1.31,7.55,1.49,2.88,4.59,4.71,7.83,4.72.87,0,3.24.05,4.14.07,136.69,1.81,327.6,5.23,463.96,7.37,14.04.21,52.54.87,66.27,1,4.87,0,15.56.26,20.55.2,8.86-.41,14.5-8.45,13.04-17.13ZM473.02,1290.09c-10.77-9.97-10.58-28.48.44-38.07,16.26-14.63,41.09-3.58,43.15,17.51,1.72,23.36-26.3,37.24-43.6,20.56ZM626.64,1303.07c-18.7-6.64-23.7-31.78-8.76-44.82,16.56-14.55,41.24-3.25,43.6,17.8,1.85,18.46-17.02,33.72-34.83,27.02ZM781.39,1297.52c-24.32,1.7-37.2-28.54-19.4-45,16.31-14.81,41.16-3.65,43.04,17.54,1.24,13.42-9.71,26.68-23.64,27.46Z"/>
    <path class="uuid-55254039-9941-4fd1-aa36-9ef2b1969e9e" d="M799.21,1270.19c-.67,14.84-18.6,21.17-28.82,11.26-10.17-9.6-4.09-27.27,10.05-28.72,9.96-1.21,19.7,7.18,18.77,17.46Z"/>
    <path class="uuid-55254039-9941-4fd1-aa36-9ef2b1969e9e" d="M655.08,1276.18c-.88,14.22-18.11,19.71-27.84,10.53-9.92-9.17-4.32-26.33,9.37-27.92,10.15-1.36,19.55,6.83,18.47,17.39Z"/>
    <path class="uuid-55254039-9941-4fd1-aa36-9ef2b1969e9e" d="M510.47,1269.65c-.69,14.56-18.44,20.63-28.48,11.08-10.23-9.46-4.3-27.25,9.87-28.65,10.1-1.21,19.53,7.13,18.6,17.57Z"/>
    <path class="uuid-55254039-9941-4fd1-aa36-9ef2b1969e9e" d="M365.49,1258.75c-.64,9.15-7.94,14.74-15.66,14.99-4.27.15-8.65-1.34-12.1-4.74-2.39-2.26-3.81-5.02-4.4-7.91-.28-1.37-.36-2.76-.28-4.15.46-7.14,5.61-13.99,13.76-15.12.16-.03.33-.05.49-.07,9.58-1.24,19.45,6.82,18.18,17Z"/>
  </g>
  <g>
    <g>
      <path class="uuid-a2e23ae7-564c-4852-866c-a2c4aa0544a3" d="M768.5,567.13c.26.56.42,1.16.42,1.81v48.3c.02,2.34-1.9,4.25-4.23,4.25-21.66-.11-51.93-.1-73.26-.46-21.54-.31-52.08-.67-73.31-1.34-1.34-.05-2.39-1.14-2.39-2.45-.02-7.52.21-15.17.57-22.59-.36-.43-.57-.96-.57-1.55-.02-7.52.21-15.17.57-22.59-.36-.43-.57-.96-.57-1.54-.02-7.52.21-15.17.57-22.61-.36-.41-.57-.95-.57-1.54-.02-7.52.21-15.17.57-22.59-.36-.43-.57-.96-.57-1.55-.02-7.52.21-15.15.57-22.59-.36-.42-.57-.95-.57-1.54-.02-7.52.21-15.17.57-22.59-.36-.43-.57-.96-.57-1.55-.02-7.52.21-15.15.57-22.59-.36-.43-.57-.95-.57-1.54-.03-8.63.29-17.44.72-25.88,48.07-.72,100.32-1.18,148.23-1.26,1.65-.02,2.99,1.34,2.99,2.99v46.65c.26.49.43,1.03.43,1.62v24.14c0,.59-.16,1.13-.43,1.6v20.91c.26.49.43,1.03.43,1.62v22.46c.25.51.41,1.08.39,1.68.03,7.44.05,14.86.02,22.3Z"/>
      <g class="uuid-3386b586-1f35-4d2e-a27d-dbd9ba286070">
        <path class="uuid-56319c2f-4a67-4818-ace7-5edeea809001" d="M584.04,399.45c27.56-1.42,55.78-1,81.93,7.83,6.36,2.15,12.62,4.82,17.98,8.84,17.11,12.83,21.71,36.13,24.85,57.29,6.71,45.27,12.46,90.8,13.04,136.56.11,9-1.11,19.9-9.25,23.74-4.65,2.19-10.11,1.21-15.15.19-28-5.68-55.99-11.36-83.99-17.04-11.86-2.41-24.63-5.33-32.53-14.5-8.33-9.67-8.94-23.57-9.14-36.33-.71-45.5-1.43-90.99-2.14-136.49-.14-9.02-.25-18.27,2.73-26.79s9.74-16.3,18.62-17.89"/>
      </g>
    </g>
    <path d="M768.5,567.13c.03-7.44.02-14.86-.02-22.3.02-.6-.15-1.18-.39-1.68v-22.46c0-.59-.16-1.13-.43-1.62v-20.91c.26-.47.43-1.01.43-1.6v-24.14c0-.59-.16-1.13-.43-1.62v-46.65c0-1.65-1.34-3.01-2.99-2.99-47.91.08-100.15.54-148.23,1.26-.42,8.43-.75,17.25-.72,25.88,0,.59.21,1.11.57,1.54-.36,7.44-.59,15.07-.57,22.59,0,.59.21,1.13.57,1.55-.36,7.42-.59,15.07-.57,22.59,0,.59.21,1.11.57,1.54-.36,7.44-.59,15.07-.57,22.59,0,.59.21,1.13.57,1.55-.36,7.42-.59,15.07-.57,22.59,0,.59.21,1.13.57,1.54-.36,7.44-.59,15.09-.57,22.61,0,.57.21,1.11.57,1.54-.36,7.42-.59,15.07-.57,22.59,0,.59.21,1.13.57,1.55-.36,7.42-.59,15.07-.57,22.59,0,1.31,1.05,2.4,2.39,2.45,21.23.67,51.77,1.03,73.31,1.34,21.33.36,51.6.34,73.26.46,2.34,0,4.25-1.91,4.23-4.25v-48.3c0-.65-.16-1.26-.42-1.81ZM760.41,613c-21.15.07-49.12.15-68.98.46-20.65.26-49.84.65-70.81,1.26-.05-6.33-.31-12.6-.67-19.11,21.15.64,50.56.98,71.48,1.28,14.2.23,33.82.33,51.46.39,5.9.05,11.75.07,17.52.08v15.64ZM760.41,588.87c-1.37,0-2.8,0-4.25.02-3.76,0-7.5.02-11.26.03-18.14.07-38.77.18-53.47.41-20.65.26-49.84.65-70.81,1.26-.05-6.34-.31-12.62-.67-19.13,21.14.51,50.56.75,71.48,1h1.23c22.92.44,45.8.74,67.75.77v15.64ZM760.83,564.73c-11.18.03-22.38.05-33.56.18-12.96.11-27.02.34-41.37.64-20.11.2-46.11.49-65.29.92-.05-6.36-.31-12.64-.67-19.16,7.34.1,34.83.44,34.85.44,11.75.1,23.9.2,36.17.26,23.41.36,46.78.59,69.86.64-.02,5.36-.02,10.72,0,16.08ZM761.24,541.02c-13.98.07-41.63.2-52.55.31-7.52.11-15.12.23-22.75.36-10.54.07-20.99.13-31.14.23l-34.18.43c-.05-6.36-.31-12.65-.67-19.19,7.32.05,34.85.25,34.85.25,6.83.03,16.92.05,28.36.08,26.37.36,52.86.61,78.1.62,0,4.1-.02,12.42-.02,16.92ZM761.66,517.27c-26.46.03-54.16.26-81.71.64-10.15.03-19.03.05-25.16.08l-34.18.23c-.05-6.36-.31-12.65-.67-19.19,7.34.1,34.83.43,34.85.43,34.47.31,72.4.47,106.87.52v17.29ZM619.94,474.89c7.32.05,34.85.25,34.85.25,6.8.03,16.84.05,28.25.08,26.4.36,52.93.61,78.2.62v17.31c-34.41.05-72.05.2-106.45.51l-34.18.43c-.05-6.37-.31-12.65-.67-19.19ZM761.66,469c-26.51.02-54.24.26-81.81.64-10.12.02-18.95.05-25.06.07l-34.18.25c-.05-6.37-.31-12.67-.67-19.21,7.32.07,34.85.26,34.85.26,22.61.07,80.8.21,106.87.28v17.72ZM761.66,445.28c-25.88.07-84.53.21-106.87.28l-34.18.25c-.05-6.6-.33-13.13-.7-19.93,45.87.7,95.87,1.14,141.75,1.26v18.14Z"/>
  </g>
  <g>
    <path class="uuid-a2e23ae7-564c-4852-866c-a2c4aa0544a3" d="M862.89,254.84c3.71,44-.8,88.86-15.5,130.59l-.83,2.34-.43,1.18c-.38,1.26-1.19,2.63-2.26,3.43-10.53.18-21.59.34-33.09.51l-6.37,32.69c11.51.65,23,1.32,34.47,1.99,1.65.05,2.83,1.83,2.19,3.37l-41.75,105.17c-.38.95-1.28,1.52-2.22,1.54,0,.03-227.92,4.18-227.92,4.2-3.09.07-5.71-2.04-6.42-4.89-11.72-40.44-22.36-82.7-31.91-123.69,10.46.33,20.94.67,31.42,1.03l-3.92-19.78c-9.99.05-19.68.1-28.97.15-2.75.02-5.1-1.73-5.98-4.18-4.07-12.72-7.03-25.26-9.53-38.25-6.49-35.19-8.09-71.4-4.72-107.02.38-3.29.8-6.46,1.49-9.84.23-1.16,1.26-1.96,2.4-1.96h25.88c10.76-29.57,29.96-56.2,56.48-73.49,42.04-27.31,101.53-29.7,147.92-12.67,31.27,11.49,57.59,35.01,74.08,63.73,4.18,7.21,7.85,14.71,10.95,22.43h29.18c1.13,0,2.08.78,2.34,1.83,1.62,6.59,2.34,12.95,3.02,19.6Z"/>
    <g class="uuid-f91a6c52-b1b2-45f3-8422-acad804d97c1">
      <path class="uuid-56319c2f-4a67-4818-ace7-5edeea809001" d="M624.53,280.23c8.16,8.45,18.84,14.59,25.25,24.44,8.69,13.34,7.79,30.51,6.78,46.4-1.01,15.89,1.25,20.29,10.6,33.18,9.34,12.89,12.06,18.77,37.24,14.96,5.31,55.09,10.62,110.19,15.92,165.28-45.4,11.3-92.85,14.27-139.3,8.73-24.28-2.9-49.76-8.86-67.05-26.15-22.48-22.46-25.18-57.4-26.55-89.15-3.27-75.96-6.54-151.91-9.8-227.87-1.81-42.1.32-92.25,35.85-114.9,29.48-18.79,107.04-11.76,114.63,30.93,8.32,46.79-50.06,86.01-3.56,134.16Z"/>
      <path class="uuid-55254039-9941-4fd1-aa36-9ef2b1969e9e" d="M791.34,213.22c2.59,4.07,4.91,9.28,2.64,13.54-2.5,4.69-8.95,5.29-14.23,4.69-28.52-3.28-51.84-23.38-73.2-42.57-7.68-6.9-7.85-16.68,3.28-20.08,8.85-2.71,23.73,2.58,32.09,5.57,20.07,7.17,37.94,20.83,49.43,38.86Z"/>
      <path class="uuid-c1943bd9-38cb-4c11-9639-b4691fcda533" d="M808.54,440.57c-7.45,19.42-17.25,37.94-29.11,55.03-1.37,1.98-3.23,4.16-5.63,3.93-3.5-.34-4.27-5.08-4-8.59,1-13.01,2.94-25.95,5.81-38.68-7.32-2-34.1-7.16-14.45-14.16,5.53-1.97,46.24,5.46,47.38,2.47Z"/>
    </g>
  </g>
  <g>
    <path d="M862.89,254.85c-.69-6.66-1.41-13.01-3.03-19.6-.26-1.05-1.21-1.83-2.33-1.83h-29.18c-3.11-7.72-6.77-15.22-10.95-22.43-16.5-28.72-42.81-52.24-74.08-63.73-46.4-17.04-105.88-14.65-147.92,12.66-26.52,17.3-45.72,43.93-56.48,73.5h-25.88c-1.14,0-2.17.8-2.4,1.96-.68,3.38-1.11,6.55-1.49,9.84-3.36,35.62-1.76,71.82,4.73,107.02,2.5,12.99,5.46,25.53,9.53,38.25.88,2.45,3.23,4.2,5.98,4.18,9.29-.05,18.98-.09,28.97-.14l3.92,19.78c-10.48-.36-20.96-.71-31.42-1.03,9.55,40.99,20.19,83.25,31.91,123.69.72,2.84,3.33,4.95,6.42,4.89,0-.02,227.92-4.17,227.92-4.21.95,0,1.85-.58,2.22-1.53l41.75-105.17c.64-1.54-.54-3.32-2.19-3.37-11.47-.67-22.96-1.34-34.47-2l6.37-32.69c11.49-.16,22.56-.33,33.09-.5,1.06-.81,1.88-2.18,2.25-3.44l.43-1.17.83-2.34c14.7-41.73,19.21-86.59,15.5-130.59ZM549.42,238.32c.55-1.63,1.14-3.27,1.76-4.9,11.02-29.23,31.43-56.43,60.45-71.58,39.07-21.01,94.15-21.96,135-5.33,34.58,13.84,61.15,42.96,75.9,76.91.74,1.62,1.4,3.25,2.04,4.9,2.01,5.04,3.75,10.15,5.2,15.33-36.71-.13-220.95-.91-284.41-1.17,1.11-4.73,2.45-9.47,4.06-14.16ZM543.86,261.19c61.61-.26,250.77-1.01,286.11-1.18h6.4s1.05-.01,1.05-.01c2.44-.12,4.45,1.6,4.92,3.89.12.55.1,1.12.02,1.68l-.15.88-1.34,7.33-2.68,14.68-1.33,7.32-.67,3.66-.14.7c-.35,1.33-1.26,2.5-2.45,3.14-.84.46-1.57.56-2.54.66l-3.01.34-4.39.52c-.22.03-.44.05-.67.08-6.8.8-15.03,1.77-23.95,2.83-2.37.28-4.81.56-7.27.85-24.72,2.91-53.08,6.25-71.42,8.4-.12,0-.21.02-.33.04-1.22.13-2.21,1.17-2.21,2.43-.01,2.89-.08,9.24-.14,17-.15,14.89-.35,35.06-.46,46.46-.02,3.38-.05,6-.07,7.45l-.03,3.4v.15c.12,1.57-.7,2.52-2.16,2.55l-1.78-.02-28.36-.26-28.36-.28h-1.76c-.2-.01-.18-.03-.23-.03-.59-.03-1.13-.51-1.23-1.08-.02-.06-.02-.15-.02-.21v-.18s-.01-.44-.01-.44l.03-3.55c.02-1.55.05-4.3.08-7.85.1-11.39.3-31.05.43-45.73.08-7.88.13-14.32.16-17.33.03-1.75-.96-3.35-2.47-4.12-.47-.24-1.01-.41-1.57-.47-11.65-1.33-42.56-4.76-69.7-7.78-2.27-.27-4.53-.51-6.75-.77-8.2-.92-15.84-1.77-22.23-2.49-4.35-.49-8.12-.91-11.1-1.25-1.21-.15-2.29-.27-3.22-.38-1.34-.28-2.45-1.41-2.66-2.8l-.9-5.29-3.61-21.19-.92-5.29-.21-1.33-.12-.65-.06-.33c-.39-2.06,1.34-4.15,3.45-4.1h.03c3.12-.02,7.18-.03,12-.05ZM644.47,340.91c-9.68,12.93-27.53,19.06-43.83,12.13-15.46-6.34-23.57-21.92-22.32-37.06,1.06.13,2.15.25,3.23.38l62.92,24.55ZM600.58,318.52c17.9,2.02,35.09,3.98,44.18,5.01.04,3.16.08,7.43.12,12.26l-44.3-17.27ZM607.15,362.6c13.88,2.19,28.16-2.74,37.88-12.65.11,11.85.22,24.36.31,32.55.03,3.59.04,6.37.06,7.89l.03,3.55v.44c-.08,4.41,3.44,8.48,7.83,9.01,1.21.26,29.66-.3,31.55-.2l28.36-.26,1.78-.02c3.8.08,7.49-2.79,8.26-6.54.18-.73.23-1.7.23-2.68-.02-1.26-.08-2.55-.05-3.35-.02-1.49-.05-4.07-.08-7.4-.08-9.11-.22-23.77-.35-36.9,4.3,5.89,10.2,10.79,17.54,13.93,7.87,3.4,16.01,4.28,23.64,3.11v60.28c-52.18-2.79-104.63-5.31-156.99-7.39v-53.37ZM722.74,321.64c14.12-1.55,33.65-3.7,52.83-5.79l-52.18,18.03c-.21-.42-.39-.86-.56-1.31-.03-4.48-.06-8.28-.09-10.93ZM731.48,345.37c-2.29-2.12-4.23-4.51-5.82-7.09l67.38-23.28c.16,1.51.23,3.06.21,4.64-.81,31.49-38.8,47.65-61.77,25.73ZM533.85,381.97c-12.26-34.42-18.06-71.14-19.48-107.62-.44-11.95-.56-24.14.83-36.03h22.02c-1.54,4.64-2.86,9.35-3.97,14.11h-1.42c-7.56-.2-13.73,7.37-12.13,14.73.24,1.29.95,5.95,1.22,7.27l3.57,21.2c.68,4.4,1.13,9.45,4.87,12.51,1.57,1.39,3.5,2.38,5.54,2.84.69.16,1.47.25,1.81.28l5.22.59,13.96,70.24-22.04-.12ZM552.77,313.09c5.18.59,11.6,1.31,18.68,2.12-1.44,12.43,2.35,25.5,12.19,35.26,5.59,5.58,11.99,9.17,18.61,11.05v54.26c-10.69-.41-21.38-.82-32.06-1.2l-3.45-20.09-2.12-12.37-11.85-69.03ZM835.21,432.42l-39.8,100.3-221.05-4.06c-9.25-35.73-19.5-69.91-30.73-105.23,6.9.32,13.78.63,20.66.94,2.55.12,5.08.22,7.63.33,75.47,3.25,150.42,5.4,226.19,6.98,1.7.03,3.4.08,5.1.12,10.64.21,21.31.42,32,.62ZM807.47,383.84c-.6,3.05-1.19,6.09-1.78,9.12-2.14,10.92-4.28,21.8-6.34,32.35-10.09-.58-20.19-1.15-30.31-1.69v-61.59c18.05-4.95,32.27-21.43,31.83-42.39-.05-2.24-.24-4.39-.59-6.49,7.95-.86,15.29-1.66,21.53-2.37-4.15,21.16-9.22,46.93-14.34,73.06ZM838.35,382.14c-.21.54-.52,1.34-.83,2.1-8.34-.11-16.66-.22-24.98-.34l14.35-73.66,4.83-.52c1.58-.13,3.22-.51,4.61-1.27,2.66-1.38,4.67-3.91,5.42-6.79.22-.88.79-3.92.95-4.79.87-4.82,3.3-16.93,4.19-21.97.42-2.92,2.28-9.36,1.56-12.14-.81-5.18-5.86-9.25-11.03-9.07l-2.35-.02c-.59-2.17-1.26-4.31-1.85-6.46-.92-2.99-1.91-5.95-2.99-8.89h25.25c.46,2.39.8,4.95,1.08,7.44,4.2,46-1.6,93.17-18.21,136.38Z"/>
    <path class="uuid-f4a8ca2a-7c2e-4a1b-8209-ea93a08dfe5d" d="M793.25,319.64c-.81,31.49-38.8,47.65-61.77,25.73-2.29-2.12-4.23-4.51-5.82-7.09l67.38-23.28c.16,1.51.23,3.06.21,4.64Z"/>
    <path class="uuid-f4a8ca2a-7c2e-4a1b-8209-ea93a08dfe5d" d="M644.47,340.91c-9.68,12.93-27.53,19.06-43.83,12.13-15.46-6.34-23.57-21.92-22.32-37.06,1.06.13,2.15.25,3.23.38l62.92,24.55Z"/>
    <path d="M568.66,269.29c-11.43-.44-17.62,13.83-9.43,21.94,8.06,8.32,22.38,1.96,21.89-9.45-.18-6.56-5.77-12.37-12.46-12.49ZM562.25,281.78c-.25-9.35,13.86-9.5,13.57,0-.62,8.5-12.98,8.39-13.57,0Z"/>
    <path d="M639.55,285.05c-.23-6.6-5.88-12.33-12.5-12.47-4.28-.18-7.83,1.7-10.18,4.56-1.26,1.55-2.19,3.4-2.68,5.36-.98,4.07-.11,8.61,3.35,12.06,6.57,6.82,17.28,3.89,20.84-3.58.75-1.59,1.19-3.37,1.19-5.31,0-.21,0-.41-.02-.62ZM633.5,287.62c-2.68,5.66-12.26,4.71-12.83-2.57-.02-.72.05-1.41.18-2.01.52-2.29,2.04-3.82,3.89-4.56,3.25-1.31,7.5-.18,8.91,3.47.36.88.54,1.93.51,3.11-.08.96-.31,1.83-.65,2.57Z"/>
    <path d="M676.26,277.55c-5.38,4.64-5.74,13.8-.54,18.83,8.24,8.66,22.92,2.03,22.3-9.69-.46-10.72-13.8-16.53-21.76-9.14ZM679.22,286.69c-.43-9.35,13.71-9.58,13.21,0-.7,7.98-12.47,7.81-13.21,0Z"/>
    <path d="M755.97,282.37c-.47-1.83-1.37-3.51-2.58-4.95-2.35-2.83-5.84-4.71-9.6-4.81-8.27-.38-13.86,6.96-13.31,14.16.15,1.8.67,3.6,1.63,5.25.54.93,1.23,1.83,2.06,2.66,8.19,8.6,22.79,2.03,22.21-9.63-.03-.92-.18-1.81-.43-2.68ZM738.17,287.46c-.34-.7-.57-1.5-.65-2.4-.05-1.23.15-2.31.56-3.22,1.49-3.55,5.75-4.67,8.94-3.33,1.73.72,3.14,2.16,3.63,4.33.15.67.21,1.41.18,2.22-.59,7.18-10.04,7.88-12.65,2.4Z"/>
    <path d="M802.18,269.31c-11.39-.41-17.52,13.8-9.38,21.85,8.01,8.27,22.26,1.98,21.82-9.38-.16-6.56-5.79-12.37-12.44-12.47ZM795.67,281.78c-.18-9.38,13.91-9.51,13.68,0-.61,8.58-13.11,8.48-13.68,0Z"/>
  </g>
  <g>
    <path class="uuid-a2e23ae7-564c-4852-866c-a2c4aa0544a3" d="M620.35,572.41c-5.86,20.65-17.88,39.04-29.14,56.69-35.15,52.79-75.87,101.44-117,149.54-10.3,11.92-20.75,23.69-31.32,35.39l-.03.04-12.44,19.76c.97,1.18,1.68,2.64,2.09,4.29,2.1,8.09-5.67,15.15-13.2,13.36l-24.39,38.71h0c.06.47-.07.87-.29,1.21l-104.12,165.35c-.27.43-.68.73-1.14.86-12.16,3.57-24.47,4.32-36.96,3.63-16.51-1.05-32.92-5.55-47.74-12.81-3.27-1.47-7.76-4.21-10.98-5.91-3.09-2.1-7.47-4.74-10.35-6.97-13.43-9.88-25.2-22.48-33.87-36.76-6.57-10.99-11.88-22.9-14.31-35.53-.2-1.39.13-2.74.84-3.84l69.23-105.47c2.49-4.09,4.97-8.15,7.48-12.23,18.55-30.33,37.4-60.68,56.95-90.44-1.67-3.37-1.72-7.56.5-10.77,2.33-3.73,6.22-5.32,9.99-5.07,3.6-5.35,7.2-10.68,10.85-15.99h0c-6.45-16.49-10.64-33.51-14.59-50.57-.56-2.61-1.8-7.31-2.28-9.82-3.21-14.76-3.08-30.27.49-44.95,3.34-15.66,15.01-35.12,21.95-49.49,8.01-15.85,16.13-31.66,24.27-47.43,4.98-8.32,13.46-14.42,22.85-16.6,7.12-1.72,14.66-1.06,21.41,1.64,1.88-5.02,3.8-10.04,5.79-15.02,9.18-22.21,19.64-44.25,33.73-64.04,10.14-14.02,24.98-29.84,44.44-25.96,43.82,7.86,104.33,68.45,133.47,101.97,14.13,16.92,28.99,34.57,37.52,55.42,2.24,5.25,1.77,12.23.3,17.8Z"/>
    <g class="uuid-4d2b77e1-a792-4dec-b3d4-e6df1a6c1b62">
      <path class="uuid-56319c2f-4a67-4818-ace7-5edeea809001" d="M391.35,372.78c28.35,5.42,57.73,3.19,86.09,8.53,28.36,5.35,57.67,21.04,66.8,48.42,6.42,19.27,1.63,40.29-3.61,59.92-50.49,189.13-138.99,365.97-236.86,535.51-12.08,20.92-25.41,42.83-46.91,53.85-23.79,12.2-52.77,8.35-77.95-.64-32.22-11.49-63-32.66-76.19-64.22-15.15-36.28-4.33-77.69,7.81-115.08,56.21-173.06,137.91-337.36,236.45-490.32,9.77-15.17,20.13-30.66,35.16-40.63s36.08-13.13,50.88-2.81"/>
    </g>
  </g>
  <g>
    <path d="M620.35,572.41c1.47-5.57,1.95-12.55-.3-17.8-8.53-20.85-23.39-38.5-37.52-55.42-29.14-33.52-89.65-94.11-133.47-101.97-19.46-3.88-34.3,11.94-44.44,25.96-14.09,19.79-24.55,41.83-33.73,64.04-1.99,4.98-3.91,10-5.79,15.02-6.75-2.7-14.28-3.35-21.41-1.64-9.39,2.18-17.87,8.28-22.85,16.6-8.14,15.78-16.26,31.58-24.27,47.43-6.94,14.37-18.62,33.83-21.95,49.49-3.56,14.67-3.69,30.19-.49,44.95.48,2.51,1.73,7.21,2.28,9.82,3.95,17.06,8.14,34.08,14.59,50.56h0c-3.65,5.32-7.25,10.65-10.85,16-3.77-.24-7.66,1.34-9.99,5.07-2.23,3.2-2.17,7.4-.5,10.77-19.55,29.76-38.4,60.11-56.95,90.44-2.5,4.08-4.99,8.14-7.48,12.23l-69.23,105.47c-.71,1.1-1.04,2.45-.84,3.84,2.44,12.63,7.75,24.53,14.31,35.53,8.67,14.28,20.44,26.88,33.87,36.76,2.88,2.22,7.26,4.87,10.35,6.97,3.21,1.7,7.7,4.44,10.98,5.91,14.81,7.26,31.23,11.77,47.74,12.81,12.48.69,24.79-.06,36.96-3.63.46-.13.87-.44,1.14-.86l104.12-165.35c.22-.34.35-.74.29-1.2h0s24.39-38.72,24.39-38.72c7.53,1.79,15.3-5.27,13.2-13.36-.41-1.65-1.12-3.1-2.09-4.29l12.44-19.76.03-.04c10.57-11.71,21.02-23.47,31.32-35.39,41.13-48.1,81.85-96.75,117-149.54,11.26-17.65,23.28-36.04,29.14-56.69ZM285.49,666.73c-2.05-8.23-4.11-16.83-4.34-25.34-.6-12.68,1.4-25.49,5.86-37.38,12.23-27.57,27.18-56.52,39.77-83.89,3.12-5.89,10.74-12.35,18.28-14.16,6.02-1.71,12.53-1.41,18.47.57-8.49,23.42-15.55,47.33-20.66,71.73-.2.98.31,2.01,1.28,2.39,1.1.45,2.35-.11,2.77-1.21,8.24-19.35,19.65-50.19,32.72-80.4.74.36,1.47.7,2.21,1.01,4.87,2.04,10.03,2.92,15.07,4.47,12.61,3.58,25.01,7.92,37.21,12.77,3.63,1.47,7.24,2.99,10.85,4.56l-97.2,194.14c-5.87-1.19-11.82-1.96-17.78-2.31-11.66-.48-23.53.28-34.83,3.22h-.02c-1.76-17.07-5.59-33.66-9.65-50.18ZM448.83,523.57c26.24,11.68,51.54,25.91,73.24,44.77,4.4,3.76,8.7,7.7,12.9,11.76l-113.23,180.87c-17.18-21.94-42.5-37.46-69.73-44l96.82-193.4ZM283.05,741.11c2.78,1.37,4.56,4.78,2.36,8.48-2.31,3.28-5.93,3.26-8.3,1.52-2.09-1.51-3.22-4.35-1.72-7.47,1.89-3.34,5.18-3.75,7.66-2.52ZM336.87,974.98h0c-.23.41-.49.81-.74,1.19-1.08,1.72-2.14,3.41-3.24,5.11-22.99,36.42-44.21,70.25-44.96,72.33.06,0,.1,0,.15-.03-.14.18-.2.18-.15.03-11.32,2.86-23.44,3.2-35.05,2.09-15.61-1.57-31.05-6.43-44.86-13.82-3.03-1.52-7.17-4.28-10.15-5.99-2.77-2.09-6.89-4.69-9.52-6.93-18.2-14.39-32.4-34.21-39.32-56.45-.85-2.92-1.67-5.9-2.23-8.89l-1.13,1.9.82-3.81c.09.64.21,1.28.31,1.91l42.26-70.04,3.06-5.05,29.6-49.08c8.82-13.62,17.55-27.26,26.17-40.94,6.97-1.85,14.21-2.76,21.4-3.12,5.61-.26,12.5-.05,18.11.55,2.81.23,6.18.86,8.98,1.25,40.34,7.5,78.03,35.87,90.68,75.69,1.68,5.18,2.98,10.8,3.54,16.15-24.37,38.51-49.54,78.49-53.73,85.94ZM394.02,883.62c-5.4-30.97-26.62-57.89-53.33-73.84-1.98-1.08-6.16-3.66-8.16-4.64-4.4-2.04-9.71-4.74-14.32-6.27-11.62-4.45-24.19-6.84-36.61-7.66-10.14-.44-20.51.09-30.49,2.19,7.76-12.39,15.46-24.83,23.02-37.37l.11.07c8.33,4.61,18.38-3.15,16-12.3-.73-3-2.53-5.27-4.85-6.68,3.07-5.19,6.11-10.4,9.12-15.63h0s.13-.05.13-.05l.71-.21c11.12-3.03,22.89-3.78,34.39-3.31,14.07.83,28.03,4.15,41.02,9.6,1.76.85,6.53,3.08,8.21,3.87,1.82,1.04,6.02,3.33,7.9,4.5,24.2,14.42,43.3,37.82,50.2,65.27.89,3.69,1.64,7.54,1.96,11.17.16-.27.26-.44.31-.56-.16.3-.24.62-.25.96v.04s-.02.09-.02.09c-.02-.16-.03-.36-.05-.52-1.26,2.09-5.61,8.99-11.84,18.84-4.81-2.67-11.45-1.73-14.85,3.69-3.26,4.78-1.51,11.73,3.11,14.89-6.55,10.31-13.9,21.95-21.44,33.88ZM427.66,843.94c-1.46,2.1-3.43,2.87-5.3,2.71-1.44-.1-2.8-.77-3.81-1.81-1.55-1.61-2.24-4.11-.9-6.84,1.72-3.05,4.62-3.64,6.99-2.77,1.34.49,2.51,1.44,3.23,2.66.97,1.64,1.12,3.81-.21,6.05ZM442.71,807.63c-1.03-6.75-2.94-13.16-5.37-19.45-3.3-8.46-7.64-16.35-12.88-23.61l113.61-181.48c7.92,7.86,15.43,16.17,22.44,24.73,5.91,7.39,11.97,15.34,17.15,23.29-40.73,61.86-87.67,119.45-134.96,176.52ZM582.64,623.57c-.74,1.16-1.51,2.29-2.26,3.45-4.63-7.92-9.73-15.46-15.19-22.81-17.57-23.73-38.84-45.23-63.08-62.18-29.15-19.58-61.23-34.39-94.64-44.96-7.97-2.13-16.08-5.64-24.36-5.94,14.49-32.58,30.78-63.17,46.91-76.19,2.68-2.04,5.5-3.69,8.15-4.44,9.77-2.2,19.92,2.44,29.26,6.85,27.13,14.14,51.26,34.95,73.59,55.99,16.86,16.2,32.87,33.35,47.29,51.75,7.02,9.08,13.83,18.39,18.97,28.56,1.75,3.62,3.54,7.13,3.1,11.16-.21,2.37-.84,5.32-1.5,7.59-5.77,18.25-16.08,34.67-26.23,51.18Z"/>
    <path d="M399.48,787.4c-2.29-9.48-15.27-12.06-20.76-3.65-3.99,5.41-1.52,13.66,4.43,16.51,8.58,4.51,18.82-3.61,16.33-12.86ZM385.25,787.64c3.6-7.18,13.58-1.29,9.27,5.51-4.22,5.4-11.63.64-9.27-5.51Z"/>
    <path d="M347.01,752.8c-2.33-9.29-15.08-11.7-20.4-3.43-3.77,5.25-1.56,13.28,4.17,16.09,8.49,4.66,18.78-3.44,16.23-12.66ZM332.4,752.81c3.85-7.18,13.95-1.24,9.65,5.74-4.27,5.64-12.26.57-9.65-5.74Z"/>
  </g>
  <g>
    <path class="uuid-a2e23ae7-564c-4852-866c-a2c4aa0544a3" d="M1061.58,468.09l.09.14,39.41,74.45c10.84,20.49,14.19,44.26,9.45,66.94l-12.41,59.36,10.81,16.14c3.79-.25,7.72,1.26,10.17,4.71,2.67,3.76,2.63,8.18.84,11.72l86.41,128.9c.27.37.41.86.35,1.29l50.17,74.84c.28.42.41.92.35,1.4-4.84,30.8-23.43,58.44-48.17,76.91-21.4,16.31-48.07,26.1-75.07,26.51-7.35.12-14.72-.36-21.95-1.76-1.88-.4-4.4-.56-5.53-2.38-.52-1.26-47.69-72.54-79.35-120.89-17.6-25.64-35.05-51.39-52.09-77.4-.85-1.32-1.69-2.64-2.54-3.96-1.45.3-3,.31-4.59-.07-5.88-1.23-9.84-7.64-8.25-13.41.36-1.45.96-2.7,1.76-3.76-4.19-6.59-8.32-13.21-12.38-19.87-10.84-5.61-19.11-14.39-27.05-23.39-44.6-50.41-88.9-101.34-127.24-156.84-11.06-16.62-22.55-33.86-29.29-53.2-.5-1.56-1.36-4.77-1.69-6.38-1.06-4.57-.96-10.51.72-14.69,2.1-6.01,5.09-11.65,8.23-17.01,26.18-44.17,108.34-132.93,158.81-142.98,8.99-1.9,18.36.65,25.56,6.31,13.29,10.28,21.95,24.12,30.37,38.1,10.55,18.57,19.74,37.83,27.95,57.48,16.19-8.13,36.26-2.8,46.13,12.81Z"/>
    <g class="uuid-984801af-75e3-4ba4-9fe2-f245955c47a9">
      <path class="uuid-56319c2f-4a67-4818-ace7-5edeea809001" d="M729.4,495.57c3.78-23.1,27.22-39.64,50.61-40.51,23.39-.87,45.74,11.23,62.43,27.65,16.69,16.41,28.63,36.92,40.59,57.04,93.11,156.71,199.04,305.79,316.38,445.28,9.28,11.03,19.2,25.62,13,38.63-4.53,9.51-15.87,13.44-26.23,15.36-36.92,6.87-75.49.11-110.15-14.33-34.66-14.44-65.78-36.26-94.82-60.07-126.35-103.62-217.37-248.51-260.5-406.12-3.51-12.84-6.74-26.06-5.52-39.32,1.23-13.25,7.7-26.72,19.41-33.05-7.41-11.07-14.83-22.14-22.24-33.21"/>
      <path class="uuid-55254039-9941-4fd1-aa36-9ef2b1969e9e" d="M939.43,376.77c5.48,2.46,9.04,7.78,12.11,12.94,5.29,8.91,9.98,18.17,14.03,27.71,1.19,2.8,2.32,6.04,1.01,8.78-1.65,3.43-6.13,4.2-9.94,4.31-16.27.45-32.38-3.16-48.04-7.6-13.76-3.9-31.17-17.22-16.4-30.64,9.68-8.79,34.41-21.27,47.23-15.51Z"/>
    </g>
  </g>
  <g>
    <path d="M1015.44,455.28c-8.22-19.66-17.41-38.91-27.95-57.48-8.42-13.98-17.08-27.82-30.37-38.1-7.2-5.66-16.56-8.2-25.56-6.31-50.47,10.05-132.63,98.81-158.81,142.98-3.15,5.36-6.14,11-8.23,17.01-1.69,4.18-1.78,10.12-.72,14.69.34,1.6,1.19,4.82,1.69,6.38,6.74,19.33,18.23,36.57,29.29,53.2,38.34,55.49,82.64,106.43,127.24,156.84,7.94,9,16.2,17.78,27.05,23.39,4.06,6.66,8.19,13.27,12.38,19.87-.8,1.07-1.4,2.32-1.76,3.76-1.59,5.77,2.37,12.18,8.25,13.41,1.6.38,3.14.37,4.59.07.85,1.32,1.69,2.64,2.54,3.96,17.04,26.01,34.49,51.76,52.09,77.4,31.66,48.35,78.83,119.63,79.35,120.89,1.13,1.82,3.65,1.98,5.53,2.38,7.23,1.4,14.6,1.89,21.95,1.76,27-.41,53.67-10.2,75.07-26.51,24.74-18.46,43.33-46.1,48.17-76.91.06-.48-.06-.99-.35-1.4l-50.17-74.84c.06-.42-.08-.92-.35-1.29l-86.41-128.9c1.79-3.53,1.84-7.95-.84-11.72-2.45-3.44-6.39-4.96-10.17-4.71l-10.81-16.14,12.41-59.36c4.74-22.69,1.39-46.45-9.45-66.94l-39.41-74.45-.09-.14c-9.88-15.61-29.94-20.94-46.13-12.81ZM804.82,580.77c-11.24-16.82-22.83-33.45-28.92-52.52-.51-2.12-1.22-4.95-1.11-7.11.02-1.62.24-2.34.77-4.01,1.78-5.19,4.35-10.09,7.15-14.93,24.33-39.57,57.13-74.49,92.13-104.97,15.77-12.99,47.42-38.96,68.17-35.09,24.56,7.36,48.9,58.24,59.98,81.01.23.51.46,1.03.7,1.53-9.3,2.05-18.31,4.72-27.3,7.66-30.56,10.13-59.8,23.93-86.83,41.52-29.25,19.2-53.86,45.26-73.94,73.76-3.05,4.44-6.07,8.91-8.85,13.53-.26.45-.5.9-.73,1.35-.4-.58-.83-1.16-1.22-1.74ZM934.06,475.94l103.09,192.28h-.01c-27.03,7.28-51.71,23.46-68.47,45.94l-118.35-177.78c8.51-9.02,17.58-17.49,27.15-25.26,17.44-13.8,36.63-25.26,56.59-35.17ZM892.54,691.59c-28.55-33.39-56.67-67.22-82.17-102.93,2.83-3.11,4.54-6.89,6.94-10.27,2.38-3.75,6.33-9.34,8.93-12.98,6.54-8.95,13.6-17.6,21.13-25.85l118.66,178.28c-.36.5-.7,1.03-1.04,1.53-4.55,7.02-8.31,14.56-11.14,22.45-2.01,5.63-3.59,11.35-4.52,17.29v.02c-.91-1.65-1.88-3.24-2.9-4.79-4.31-6.69-9.57-12.55-14.89-18.4-13.07-14.57-26.26-29.52-39.01-44.35ZM968.89,799.38c-1.22-.33-2.39-1.08-3.32-2.41-.97-1.5-1.21-2.99-.99-4.31.36-2.18,2.03-3.94,4.06-4.68,2.37-.88,5.21-.32,7.02,2.6,1.4,2.58.89,5.01-.52,6.69-1.49,1.77-3.95,2.71-6.25,2.1ZM980.63,805.22c-.8-1.18-1.62-2.34-2.42-3.5,3.23-3.48,4.28-8.95,1.19-13.5-3.13-4.71-8.86-5.87-13.41-4.01-4.34-6.15-8.72-12.28-13.17-18.36,0,.24-.03.44-.04.67l-.35-1.19c.14.18.26.36.39.53.2-3.59.85-7.4,1.62-11.07,9.48-42.92,47.96-75.05,90.03-84.04,2.78-.44,6.17-1.2,8.95-1.51,5.57-.74,12.48-1.16,18.1-1.02,7.75.17,15.55.95,23.08,2.88l.18.04s-.12-.06-.13-.17c.01,0,.02,0,.03.02l.1.15c.81,1.09,4.5,6.59,10.1,14.98-2.8,1.23-5.13,3.6-6.07,7.01-1.94,6.02,2.18,13.07,8.45,14.36,4,.95,7.61-.27,10.13-2.58,7.39,11.13,15.99,24.05,24.8,37.31-10.65-2.2-21.74-2.5-32.59-1.74-12.4,1.15-24.89,3.91-36.4,8.7-4.53,1.71-9.81,4.43-14.14,6.66-1.84,1.09-6.14,3.63-8.01,4.86-25.7,16.34-45.85,43.03-50.92,73.36-6.47-9.64-12.97-19.24-19.51-28.84ZM1252.99,907.67c.01-.07.03-.11.04-.16.09.21.08.24-.04.16-1.22,7.58-3.74,15.27-6.83,22.37-8.62,19.92-23.02,37.41-40.71,49.94-20.57,15.03-45.96,23.84-71.54,23.71-7.21-.02-14.55-.64-21.53-2.33l.92,1.33-2.25-1.65c.45.12.87.22,1.33.32l-47.37-69.24-3.37-4.89-11.32-16.57c-15.32-23.97-30.91-47.76-46.73-71.41.51-4.73,1.56-9.61,2.89-14.17,11.52-40.15,48.42-69.58,88.52-78.2,2.78-.44,6.15-1.22,8.94-1.5,5.58-.75,12.5-1.18,18.09-1.06,7.77.17,15.57.98,23.09,2.9l.18.04c-.05-.02-.13-.09-.15-.18.04.03.08.09.15.18h0c2.31,3.21,30.17,45.22,56.97,85.44,1.1,1.65,2.2,3.29,3.27,4.93,23.76,35.66,45.85,68.58,47.43,70.04ZM1111.93,689.59c1.19.39,2.3,1.29,3.11,2.81.49.96.67,1.88.61,2.77-.05,1.6-.9,2.99-2.14,3.93-2.21,1.73-5.64,1.94-7.78-.8-2.44-3.33-.83-6.73,1.79-8.21,1.33-.77,2.94-1.01,4.41-.49ZM1097.33,544.66c10.38,19.62,13.6,42.38,9.06,64.1l-12.12,57.92c-11.46-2.73-23.47-3.14-35.19-2.34-5.96.52-11.89,1.47-17.72,2.81l-103.51-193.07c3.58-1.74,7.18-3.42,10.8-5.07,18.38-8.16,37.4-15.31,56.9-20.28,12.23,26.73,23.12,54.18,32.84,81.9.36,1.09,1.55,1.71,2.65,1.34,1.12-.34,1.72-1.53,1.36-2.64-7.64-23.64-15.88-47.13-25.34-70.14,14.29-7.34,32.14-2.71,40.9,11.09l39.36,74.38Z"/>
    <path d="M990.77,739.77c-1.86,6.01,2.35,12.98,8.59,14.18,9.93,2.27,17.44-9.22,11.67-17.38-5.38-7.74-17.69-6.16-20.26,3.2ZM997.74,744.97c-4.35-6.42,5.56-12.8,9.49-6,3.22,6.24-5.43,11.48-9.49,6Z"/>
    <path d="M1042.09,703.66c-1.81,6.1,2.49,13.05,8.76,14.21,9.85,2.14,17.34-9.19,11.6-17.32-5.32-8.01-17.75-6.37-20.35,3.11ZM1049.28,708.88c-4.08-6.41,5.49-12.45,9.49-6,3.26,6.37-5.39,11.59-9.49,6Z"/>
  </g>
</svg>