<?xml version="1.0" encoding="UTF-8"?>
<svg id="uuid-5ab7040a-6591-40c9-b101-d348cf5240d9" data-name="Layer 3" xmlns="http://www.w3.org/2000/svg" xmlns:xlink="http://www.w3.org/1999/xlink" viewBox="0 0 1080 1080">
  <defs>
    <style>
      .uuid-0d8cb412-2859-4b7a-a59f-d8ea811d730a, .uuid-2f78151f-07d8-453c-ad65-e02b0401c432 {
        fill: #29abe2;
      }

      .uuid-f06a30b5-fd0c-4306-ab88-a491986ab1c7 {
        clip-path: url(#uuid-14c1e17b-4b4e-49cb-ab7d-07128a8fd985);
      }

      .uuid-35437701-7971-4ff6-a6c3-2bb47d0bf40b, .uuid-e1668190-e5fb-49ff-a25d-ae18a2d09a5f {
        fill: #1f81ba;
      }

      .uuid-886af04a-22a6-4912-a3e1-d39cca066e1b {
        stroke-linecap: round;
      }

      .uuid-886af04a-22a6-4912-a3e1-d39cca066e1b, .uuid-e446e71c-0095-49b1-9eff-e2f2a977fe60, .uuid-1ea08e98-7e5e-4b98-a758-2f12147dc5d5, .uuid-b0a070e0-3c88-408a-8f4d-03cb32762306 {
        fill: none;
      }

      .uuid-886af04a-22a6-4912-a3e1-d39cca066e1b, .uuid-1ea08e98-7e5e-4b98-a758-2f12147dc5d5, .uuid-9afd334b-1006-4301-8e49-3e08e02ffc02, .uuid-e1668190-e5fb-49ff-a25d-ae18a2d09a5f, .uuid-2f78151f-07d8-453c-ad65-e02b0401c432 {
        stroke-width: 2px;
      }

      .uuid-886af04a-22a6-4912-a3e1-d39cca066e1b, .uuid-1ea08e98-7e5e-4b98-a758-2f12147dc5d5, .uuid-9afd334b-1006-4301-8e49-3e08e02ffc02, .uuid-e1668190-e5fb-49ff-a25d-ae18a2d09a5f, .uuid-2f78151f-07d8-453c-ad65-e02b0401c432, .uuid-b0a070e0-3c88-408a-8f4d-03cb32762306 {
        stroke: #000;
        stroke-miterlimit: 10;
      }

      .uuid-f3d22c5a-14de-4b2b-b34f-b888d8a29993 {
        fill: #151a36;
      }

      .uuid-2ff2e0a9-9f23-4fcb-bd77-5499184d4f70 {
        fill: #fff;
      }

      .uuid-ea463359-a1f4-4a35-abd4-06ec5b4b5690, .uuid-9afd334b-1006-4301-8e49-3e08e02ffc02 {
        fill: red;
      }

      .uuid-a76bf66b-31a9-4672-9942-c6dd0e8af79e {
        clip-path: url(#uuid-3e2bb444-e65c-40b4-9ac5-20881abdc54a);
      }

      .uuid-7256ee01-6786-4702-85dd-78eb45558ca9 {
        fill: #832117;
      }

      .uuid-b0a070e0-3c88-408a-8f4d-03cb32762306 {
        stroke-width: 3px;
      }
    </style>
    <clipPath id="uuid-3e2bb444-e65c-40b4-9ac5-20881abdc54a">
      <path class="uuid-ea463359-a1f4-4a35-abd4-06ec5b4b5690" d="M235.9,859.26l-11.77-11.77v-119.82l11.77-11.81h100.35l11.77,11.81v43.91h-55.69v-9.72h-12.51v51.44h12.51v-9.72h55.69v43.91l-11.77,11.77h-100.34ZM474.66,859.26v-45.96h-68.2v-97.44h-55.69v143.4h123.89ZM601.3,859.26v-131.59l-11.77-11.81h-100.34l-11.77,11.81v131.59h55.69v-48.69h12.51v48.69h55.69ZM533.1,764.57v-2.72h12.51v2.72h-12.51ZM716.17,859.26l11.78-11.77v-71.1l-11.77-11.81h-56.43v-2.72h68.2v-46h-112.12l-11.77,11.81v71.09l11.77,11.81h56.43v2.72h-68.2v45.96h112.11ZM854.59,859.26v-143.4h-55.69v48.72h-12.51v-48.72h-55.69v143.4h55.69v-48.69h12.51v48.69h55.69Z"/>
    </clipPath>
    <clipPath id="uuid-14c1e17b-4b4e-49cb-ab7d-07128a8fd985">
      <path class="uuid-0d8cb412-2859-4b7a-a59f-d8ea811d730a" d="M233.09,707.29l-8.97-8.97v-86.08l8.96-9h72.23l8.96,9v32.67h-41.64v-6.92h-6.88v34.58h6.88v-6.92h41.64v32.67l-8.97,8.97h-72.22ZM404.38,707.29v-34.72h-48.52v-69.32h-41.64v104.04h90.15ZM494.47,707.29v-95.04l-8.96-9h-72.23l-8.96,9v95.04h41.64v-34.64h6.88v34.64h41.64ZM584.57,707.29v-95.04l-8.96-9h-81.19v104.04h41.64v-69.29h6.88v69.29h41.64ZM674.66,707.29v-46.52l-5.47-5.49,5.47-5.47v-46.55h-41.64v34.66h-6.88v-34.66h-41.64v104.04h41.64v-34.64h6.88v34.64h41.64ZM764.76,707.29v-34.72h-6.92v-34.58h6.92v-34.74h-90.15v104.04h90.15ZM854.85,707.29v-46.52l-5.47-5.49,5.47-5.47v-37.56l-8.96-9h-81.19v104.04h41.64v-34.64h6.88v34.64h41.64Z"/>
    </clipPath>
  </defs>
  <path class="uuid-f3d22c5a-14de-4b2b-b34f-b888d8a29993" d="M795.4,884.76c-.92,0-1.84-.06-2.76-.17-.91.11-1.83.17-2.75.17h-62.69c-1.62,0-3.23-.18-4.8-.53-1.57.35-3.17.53-4.78.53h-175.51c-.92,0-1.84-.06-2.75-.17-.91.11-1.83.17-2.76.17h-189.33c-1.62,0-3.23-.18-4.8-.53-1.57.35-3.17.53-4.78.53h-103.24c-5.87,0-11.39-2.29-15.55-6.45l-13.83-13.82c-4.16-4.16-6.45-9.69-6.45-15.56v-122.71c0-4.83,1.55-9.43,4.42-13.22-2.87-3.79-4.42-8.39-4.42-13.23v-88.97c0-5.78,2.35-11.45,6.44-15.54l11-11.03c4.1-4.12,9.78-6.48,15.58-6.48h21.57c-13.85-8.28-22.45-23.16-22.45-39.71,0-2.21.16-4.43.48-6.63l-9.64-22.79-4.51-2.81c-7.11-4.46-11.11-12.7-10.22-21l.64-6.01c-3.99-8.04-6.08-16.94-6.08-25.93,0-13.25,4.5-26.05,12.73-36.4l.81-7.61c.99-9.31,7.79-16.99,16.92-19.1l48.13-11.09c1.57-.37,3.25-.57,4.95-.57.28,0,.56,0,.84.02l2.67-10.76c-6.8-2.83-12.67-7.6-16.84-13.85-.95-1.44-1.88-2.99-2.76-4.65-.19-.37-.35-.67-.49-.96-3.28-6.45-5.71-14.17-7.25-22.96-1.31-1.83-2.37-3.82-3.17-5.92-4.74-4.82-7.41-11.25-7.41-18.11,0-3.08.54-6.07,1.61-8.94-.08-5.91,1.86-11.62,5.61-16.32,2.2-2.75,4.91-5,7.97-6.64,7.91-14.14,26.69-34.2,69.54-34.2,40.38,0,59.13,17.52,67.6,31.14h.27c7.89,0,15.23,3.53,20.15,9.69,4.68,5.86,6.55,13.34,5.21,20.68.27,1.51.41,3.04.41,4.59,0,5.44-1.71,10.7-4.87,15.08-.57,2.33-1.44,4.54-2.59,6.59v5.27c.28,0,.57,0,.85,0,1.72,0,3.46.11,5.15.32,14.06,1.73,26.11,9.85,35.1,23.59l54.06-7.22c6.72-3.61,14.25-5.51,21.92-5.51.26,0,.53,0,.8,0l26.43-8.56,3.13-2.27c1.42-3.35,3.55-6.39,6.21-8.88,1.14-7.7,4.55-14.76,10.01-20.66,7.58-8.19,15.57-11.66,21.77-13.07,1.37-1.19,2.78-2.33,4.22-3.39,1.48-10.64,3.19-22.47,5.21-35.99,1.59-10.69,10.94-18.76,21.75-18.76.51,0,1.04.03,1.56.06.04,0,.08,0,.12,0,2.16.17,5.28.57,8.62,1.53l4.03-5.46c.4-3.2,1.23-6.32,2.51-9.3.91-3.49,2.67-6.68,5.1-9.31.37-1.19.82-2.35,1.35-3.48.07-.83.17-1.65.32-2.47-.36-.39-.7-.79-1.03-1.21-2.57-1.93-4.71-4.39-6.27-7.23-1.51-2.77-2.44-5.79-2.73-8.87-1.03-2.81-1.5-5.82-1.37-8.81,0-.06.05-.82.06-.91.25-2.98,1.1-5.89,2.47-8.54.63-2.83,1.8-5.53,3.43-7.92.04-.06.08-.11.12-.17.27-.38.49-.68.73-.98,1.79-2.29,4.03-4.23,6.55-5.69,2.01-1.99,4.38-3.6,6.96-4.72.37-.17.73-.31,1.09-.44,2.55-.96,5.24-1.44,7.97-1.44.37,0,.73,0,1.1.03,1.55-.33,3.13-.5,4.72-.5s3.04.15,4.54.46c2.84.57,5.55,1.69,7.98,3.29,2.94-1.4,6.18-2.15,9.5-2.15,1.49,0,2.96.15,4.39.44,4.13-3.8,9.45-6.36,15.54-7.39,1.87-.32,3.68-.47,5.54-.47,6.39,0,11.32,1.87,14.94,4.12,2.08-.56,4.24-.84,6.47-.84.19,0,1.44.02,1.49.02,13.35.33,26.06,2.99,37.79,7.9,17.07,7.18,29.86,19.24,36.99,34.89,6.98,15.33,8.33,33.78,3.88,53.35-2.8,12.41-8.82,24.2-17.25,34,2,3.62,3.15,7.71,3.33,11.98.36,8.51-3.34,16.77-9.91,22.12-.87.76-2.21,1.93-3.51,3.06-1.31,1.42-2.76,2.68-4.32,3.75l-3.58,3.08c-1.14.98-1.46,1.25-1.66,1.41-4.8,3.92-10.88,6.08-17.14,6.08-.78,0-1.55-.03-2.32-.1-8.37,7.53-17.77,12.48-27.54,14.48l2.2,23.51.48,5.08c.32-.27.63-.55.95-.82,3.44-2.94,7.6-4.72,12.06-5.18,2.62-.27,5.33-.41,8.04-.41,21.25,0,43.93,8.29,69.35,25.36,7.72,5.27,14.5,10.53,20.79,16.14,4.84,4.32,7.43,10.42,7.35,16.68,2.32,2.44,4.42,5.05,6.27,7.8,11.25,16.71,13.2,37.4,5.35,56.77-.08.22-.18.44-.28.66-5.59,12.87-15.41,23.31-27.85,29.69-6.31,9.23-13.51,18.68-21.46,28.13-3.35,3.94-7.71,9.06-12.49,14.11-.84,9.17-3.68,17.69-8.27,25.11h34.19c5.81,0,11.49,2.36,15.59,6.48l11.01,11.04c4.08,4.1,6.42,9.75,6.42,15.53v40.46c0,1.36-.12,2.7-.37,4.03.25,1.33.37,2.67.37,4.03v51.47c0,1.14-.09,2.27-.26,3.39v148.58c0,12.13-9.87,22-22,22h-62.69ZM486.96,577.75c.65,0,1.3.03,1.97.1.67-.06,1.33-.1,1.98-.1h23.45c-12.46-6.02-23.52-12.4-33.83-19.49-12.34-8.59-25.91-19.61-34.72-34.67-1.47,2.34-3.36,4.37-5.57,6l-3.29,34.59c4.23,3.35,7.11,8.18,8.01,13.57h41.99Z"/>
  <path class="uuid-2ff2e0a9-9f23-4fcb-bd77-5499184d4f70" d="M869.84,428.86c-2.45-3.64-5.37-6.91-8.62-9.77,1.52-4.45.33-9.54-3.36-12.83-5.95-5.31-12.37-10.3-19.7-15.3-23.72-15.92-44.58-23.66-63.78-23.66-2.36,0-4.71.12-7.01.36-2.42.25-4.72,1.24-6.57,2.82-2.48,2.13-5.92,5.17-9.92,8.99-1.85-.15-3.69-.29-5.52-.41-.21-.68-.48-1.34-.81-1.96l-.56-6-1.09-11.54-1.08-11.54-1.08-11.54-.99-10.59c.85.08,1.7.13,2.56.13,1.45,0,2.9-.11,4.22-.32,10.25-1.53,19.94-6.98,28.47-15.88,1.76.6,3.62.92,5.52.92,4,0,7.86-1.38,10.89-3.89.04-.03,1.39-1.19,1.39-1.19l4.05-3.48c1.25-.8,2.37-1.78,3.35-2.91,1.5-1.3,3.15-2.74,4.1-3.57,4.22-3.38,6.58-8.59,6.35-14.06-.21-5.15-2.7-9.87-6.74-12.91,10.19-9.3,17.75-21.76,20.9-35.69,8.06-35.5-5.02-64.21-34.99-76.81-10.57-4.43-22.07-6.83-34.17-7.13-.1,0-.4-.01-.46-.01-.25,0-.52-.01-.78-.01-2.03,0-3.86.36-5.6,1.1-.86.37-1.65.85-2.4,1.41-.35-.4-.72-.79-1.12-1.16-2.27-2.12-6.24-4.63-12.29-4.63-1.23,0-2.51.1-3.87.33-7.75,1.31-11.69,5.55-13.63,8.85-.17.3-.32.59-.47.88-.18-.13-.35-.27-.53-.4-5.01-3.59-11.84-2.76-15.88,1.71-1.4-1.11-2.98-1.93-4.68-2.38-1.66-1.45-3.68-2.47-5.87-2.91-.84-.17-1.7-.26-2.56-.26-1.33,0-2.65.21-3.91.62-.63-.1-1.27-.15-1.91-.15-1.56,0-3.09.28-4.55.84-.15.05-.29.11-.44.18-1.92.82-3.58,2.08-4.88,3.66-1.88.84-3.56,2.14-4.85,3.8-.16.2-.3.4-.45.61-1.19,1.74-1.91,3.72-2.15,5.75-1.15,1.75-1.86,3.78-2.04,5.91-.01.17-.02.33-.03.49-.09,2.14.36,4.26,1.28,6.16-.02,2.15.51,4.3,1.59,6.28,1.1,2,2.69,3.64,4.59,4.78,1.18,1.85,2.84,3.4,4.83,4.44.32.17.65.31.99.45-1.64,2.68-2.37,5.7-2.26,8.67-1.17,1.92-1.92,4.01-2.28,6.16-2.41,1.8-4.01,4.39-4.58,7.22-1.38,2.97-2.19,6.26-2.28,9.73-2.09,2.83-6.29,8.52-10.11,13.69-1.72-.66-3.45-1.29-5.21-1.87-2.96-1.02-5.89-1.41-7.84-1.56-.31-.02-.62-.04-.92-.04-5.9,0-10.98,4.32-11.86,10.24-1.68,11.24-3.8,25.65-5.8,40.27-3.29,2.05-6.25,4.41-8.89,6.94-4.96.66-12.13,3.06-19.06,10.55-5.69,6.14-7.65,13.02-7.77,19.1-3.63,2.15-6.33,5.69-7.37,9.89l-6.75,4.89c-.07.05-.12.1-.19.15l-29.66,9.6c-.73-.04-1.46-.07-2.19-.07-6.83,0-13.21,1.89-18.67,5.17l-59.45,7.94c-1.2-.25-2.42-.45-3.65-.61-6.3-11.42-16.17-21.66-30.54-23.43-1.29-.16-2.61-.24-3.92-.24-3.79,0-7.42.68-10.88,1.85,0-.19.03-.38.03-.57v-19.52c1.38-1.78,2.4-3.87,2.93-6.2l.42-1.86c2.55-2.82,4.11-6.55,4.11-10.64,0-1.57-.23-3.08-.66-4.51l.27-1.18c1.07-4.7-.04-9.57-3.05-13.34s-7.51-5.93-12.33-5.93h-6.19c-5.66-11.96-21.06-31.14-61.68-31.14s-56.52,19.81-62.29,31.93c-2.88.95-5.45,2.7-7.4,5.14-2.69,3.38-3.85,7.62-3.3,11.85-1.1,2.16-1.74,4.59-1.74,7.18,0,5.09,2.41,9.62,6.14,12.53.65,2.82,2.02,5.3,3.88,7.29,1.18,7.83,3.26,15.86,6.77,22.74.11.23.23.46.35.69.7,1.31,1.45,2.59,2.26,3.81,4.66,6.98,12.22,11.41,20.61,12.22l-1.29,5.18-1.84,7.44-1.85,7.44-1.84,7.43-.18.71c-1.06.35-2.1.69-3.14,1.04-1.69-.87-3.57-1.32-5.46-1.32-.9,0-1.81.1-2.7.31l-48.13,11.09c-4.98,1.15-8.69,5.33-9.23,10.42l-1.14,10.65c-7.67,8.59-12.35,19.91-12.35,32.3,0,8.71,2.32,16.88,6.35,23.95l-.97,9.06c-.49,4.57,1.68,9.01,5.57,11.45l7.2,4.49,12.03,28.45c-.55,2.5-.85,5.11-.85,7.78,0,15.38,9.61,28.55,23.14,33.85l.6,12.17c.07,1.3.35,2.54.79,3.69h-33.65c-3.19,0-6.25,1.28-8.5,3.54l-11.01,11.04c-2.25,2.25-3.51,5.3-3.51,8.47v88.97c0,3.19,1.27,6.24,3.52,8.49l4.73,4.73-4.74,4.76c-2.25,2.25-3.51,5.29-3.51,8.47v122.71c0,3.19,1.27,6.24,3.52,8.49l13.83,13.82c2.25,2.25,5.3,3.52,8.48,3.52h103.24c1.66,0,3.29-.36,4.78-1.01,1.47.64,3.09,1.01,4.8,1.01h189.33c.95,0,1.87-.11,2.76-.32.88.21,1.8.32,2.75.32h175.51c1.66,0,3.29-.36,4.78-1.01,1.47.64,3.09,1.01,4.8,1.01h62.69c.95,0,1.87-.11,2.75-.32.89.21,1.81.32,2.76.32h62.69c6.62,0,12-5.38,12-12v-149.47c.17-.8.26-1.64.26-2.5v-51.47c0-1.39-.24-2.75-.69-4.03.45-1.28.69-2.65.69-4.03v-40.46c0-3.17-1.26-6.22-3.5-8.47l-11.01-11.05c-2.25-2.26-5.31-3.53-8.5-3.53h-58.19c12.58-7.66,22.02-21.26,22.51-39.4,5.4-5.48,10.37-11.3,14.59-16.26,8.47-10.08,15.94-19.98,22.34-29.53,11.22-5.08,20.43-14.19,25.5-25.95.04-.08.07-.16.1-.24,6.61-16.26,5.03-33.57-4.35-47.51ZM490.91,587.75c-.67,0-1.33.07-1.98.18-.65-.11-1.3-.18-1.97-.18h-52.25l.5-5.18c.57-5.92-3.27-11.25-8.84-12.74l4.38-46.06c1.6-.96,2.59-1.58,2.85-1.75,1.77-1.12,3.21-2.68,4.19-4.52,3.89-7.36,6.69-15.92,8.66-25.07,1.74,27.47,21.74,45.06,39.74,57.59,15.76,10.83,33.65,20.1,55.87,28.92,2.58,2.06,5.77,3.34,9.26,3.55,5.28,1.94,10.35,3.7,15.25,5.26h-75.66Z"/>
  <g>
    <g>
      <g>
        <g>
          <path class="uuid-0d8cb412-2859-4b7a-a59f-d8ea811d730a" d="M585.21,579.52s-78.88-23.83-111.61-60.03,7.79-88.57,26.89-81.67c19.09,6.89,27.66,18.58,27.66,18.58,0,0,2.73-9.74,13.25-6.62s20.6,28.05,20.6,28.05l44.08,49.38,6.62,42.38-5.28,9.74-22.22.19Z"/>
          <path d="M585.05,580.65c-10.87-2.83-21.54-6.39-32.05-10.33-20.94-7.93-41.49-17.47-60.02-30.19-19.9-13.86-36.87-30.24-34.45-56.55,1.05-11.65,5.8-22.71,12.78-31.98,6.21-7.86,14.75-16.09,25.42-16.5,1.17.04,2.52.23,3.65.59,5.76,1.99,11.16,4.95,16.19,8.35,4.72,3.3,8.99,7.01,12.49,11.66,0,0-2.03.37-2.03.37,2.07-6.39,7.94-9.44,14.34-7.49,10.01,3.09,17.64,19.73,21.67,28.8-1.13-1.64,44.08,49.44,43.87,49.05,0,0,.22.25.22.25l.05.33s6.62,42.38,6.62,42.38c0,0,.06.38.06.38,0,0-.18.34-.18.34,0,0-5.28,9.74-5.28,9.74,0,0-.32.59-.32.59,0,0-.67,0-.67,0l-22.39.18h0ZM585.38,578.38l22.04-.21s-1,.6-1,.6c0,0,5.28-9.74,5.28-9.74,0,0-.12.72-.12.72,0,0-6.62-42.38-6.62-42.38,1.92,2.86-44.24-49.5-43.8-48.8-3.54-7.84-7.42-15.96-13.08-22.5-2.38-2.7-5.15-5.1-8.76-5.63-4.63-.92-8.67,1.88-10.06,6.24,0,0-.66,2.08-.66,2.08-3.66-4.85-8.66-8.77-13.79-12.04-4.86-2.98-10.09-5.53-15.54-7.16-1.32-.41-2.92-.28-4.27-.1-12.67,3.04-22.64,17.62-27.11,29.22-5.86,14.6-4.87,32.01,4.81,44.72,6.42,8.43,15.16,15.41,23.86,21.58,27.21,18.65,58.03,31.74,88.82,43.39h0Z"/>
        </g>
        <path class="uuid-2f78151f-07d8-453c-ad65-e02b0401c432" d="M534.73,559.94s32.97-16.08,37.65-45.44c4.68-29.37,29.81,21.29,29.81,21.29,0,0,.71,31.55-23.61,41.59l-43.85-17.43Z"/>
        <g>
          <polygon class="uuid-0d8cb412-2859-4b7a-a59f-d8ea811d730a" points="767.88 527.63 764.95 582.1 613.97 577.17 605.51 481.71 767.88 527.63"/>
          <path d="M768.69,527.05c-1.04,18.57-2.23,37.06-3.46,55.36-.02.1-151.21-3.42-151.32-3.34,0,0-1.69-.04-1.69-.04,0,0-.13-1.69-.13-1.69l-7.57-95.54s-.11-1.44-.11-1.44c0,0,1.38.39,1.38.39l162.91,46.3h0ZM767.06,528.21l-161.82-45.54,1.27-1.05,9.35,95.38s-1.82-1.72-1.82-1.72c-.12.17,152.25,6.09,150.62,6.8.73-18.11,1.5-36.02,2.41-53.87h0Z"/>
        </g>
        <g>
          <path class="uuid-0d8cb412-2859-4b7a-a59f-d8ea811d730a" d="M600.76,410.11s50.27-14.67,111.84-18.32,120.04,18.32,120.04,18.32c0,0-7.38,104.68-49.03,130.21,0,0-69.89-35.23-123.4-35.74s-62.43,26.04-62.43,26.04c0,0-27.25-43.4,2.97-120.51Z"/>
          <path d="M600.09,409.37c.85-.42,1.44-.5,2.18-.72,0,0,1.78-.48,1.78-.48,27.36-7.17,55.28-12.17,83.39-15.24,14.54-1.53,29.55-2.76,44.22-2.43,14.69.25,29.61,1.78,44.09,4.19,19.67,3.33,39.09,8.05,57.94,14.74-1.51,18.14-4.31,36.11-8.38,53.84-6.4,26.5-17.13,62.41-41.18,77.91,0,0-.41.29-.41.3,0,0-.57-.25-.57-.25-24.73-10.89-50.21-20.25-76.4-26.87-19.84-4.98-40.59-8.22-61.05-6.28-15.7,1.35-32.97,5.73-43.66,17.99-1.72,1.95-3.23,4.39-4.15,6.79,0,0-.96-1.69-.96-1.69-9.94-18.55-12.1-40.18-11.11-60.89.24-2.73.63-9.03,1.12-11.65.82-6.42,2.09-12.87,3.54-19.16.92-4.45,2.95-10.58,4.14-15.02,1.7-5.03,3.61-10.08,5.45-15.06h0ZM601.44,410.85s-4.9,14.19-4.9,14.19c-1.2,4.42-3.17,10.47-4.1,14.88-1.43,6.23-2.7,12.61-3.5,18.96-.51,2.56-.86,8.83-1.11,11.51-.99,20.25,1.15,41.61,10.8,59.71,0,0-1.79.21-1.79.21.67-2.1,1.78-4.11,3-5.91,8.74-12.64,24.36-18.66,38.96-21.06,33.9-5.36,67.74,4.1,99.33,15.54,15.73,5.9,31.1,12.67,45.94,20.56,0,0-.97.04-.97.04,4.97-3.05,9.25-7.16,12.96-11.71,17.94-22.82,25.53-54.31,30.89-82.41,2.08-11.69,3.72-23.5,4.69-35.32,0,0,.65,1.01.65,1.01-18.42-6.49-37.57-11.13-56.86-14.39-16.78-2.85-34.11-4.29-51.14-4.25-41.45,1.18-82.81,8.11-122.85,18.45h0Z"/>
        </g>
        <g>
          <rect class="uuid-2f78151f-07d8-453c-ad65-e02b0401c432" x="677.81" y="305.21" width="48.38" height="11.59" transform="translate(-25.96 66.88) rotate(-5.36)"/>
          <rect class="uuid-2f78151f-07d8-453c-ad65-e02b0401c432" x="678.89" y="316.75" width="48.38" height="11.59" transform="translate(-27.04 67.03) rotate(-5.36)"/>
          <rect class="uuid-2f78151f-07d8-453c-ad65-e02b0401c432" x="679.97" y="328.29" width="48.38" height="11.59" transform="translate(-28.11 67.18) rotate(-5.36)"/>
          <rect class="uuid-2f78151f-07d8-453c-ad65-e02b0401c432" x="681.06" y="339.83" width="48.38" height="11.59" transform="translate(-29.18 67.33) rotate(-5.36)"/>
          <rect class="uuid-2f78151f-07d8-453c-ad65-e02b0401c432" x="682.14" y="351.37" width="48.38" height="11.59" transform="translate(-30.25 67.48) rotate(-5.36)"/>
          <rect class="uuid-2f78151f-07d8-453c-ad65-e02b0401c432" x="683.22" y="362.91" width="48.38" height="11.59" transform="translate(-31.32 67.63) rotate(-5.36)"/>
          <rect class="uuid-2f78151f-07d8-453c-ad65-e02b0401c432" x="684.3" y="374.45" width="48.38" height="11.59" transform="translate(-32.4 67.79) rotate(-5.36)"/>
          <g>
            <rect class="uuid-0d8cb412-2859-4b7a-a59f-d8ea811d730a" x="685.38" y="386" width="48.38" height="11.59" transform="translate(-33.47 67.94) rotate(-5.36)"/>
            <path d="M684.18,387.64c16.5-1.73,33.16-3.42,49.76-4.96,0,0,.18.99.18.99l2.11,11.44s.38,2.06.38,2.06l-2.21.16s-48.27,3.49-48.27,3.49l-1,.07c-.44-4.39-.73-8.9-.95-13.25h0ZM685.72,388.92c.52,3.67.98,7.2,1.31,10.81l-1.09-.9,48.08-5.55-1.84,2.21-.05-11.64,1.09.9c-15.82,1.49-31.58,2.84-47.5,4.16,0,0,15.91-1.32,0,0Z"/>
          </g>
        </g>
        <g>
          <path class="uuid-0d8cb412-2859-4b7a-a59f-d8ea811d730a" d="M577.88,396.04s-27.02,68.97-5.68,106.67c0,0,48.29,10.96,78.14-21.6,0,0,11.59-80.57,13.97-93.01,0,0-55.67-13.42-86.43,7.95Z"/>
          <path d="M578.67,396.66c-10.55,29.86-21.71,75.98-5.59,105.55,0,0-.65-.48-.65-.48,6.77,1.34,13.84,1.83,20.8,1.72,10.45-.2,20.93-1.9,30.69-5.69,6.47-2.49,12.64-5.93,18.06-10.26,2.76-2.11,5.23-4.58,7.63-7.08,0,0-.25.53-.25.53-.88-7.98.59-15.69,1.74-23.51,3.56-23.28,7.11-46.53,12.23-69.55,0,0,.75,1.16.75,1.16-7.15-1.6-14.49-2.67-21.83-3.37-21.51-1.8-44.95-1.11-63.59,10.97h0ZM577.1,395.42c18.34-12.76,43.8-13.59,65.34-11.72,7.72.71,15.36,1.93,22.98,3.58-1.77,14.21-3.92,33.66-5.87,47.65-1.04,7.77-2.09,15.53-3.21,23.29-1.13,7.82-1.9,15.62-5,23.03,0,0-.21.51-.21.51,0,0-.04.03-.04.03-2.48,2.58-5.02,5.12-7.87,7.29-5.58,4.45-11.92,8-18.58,10.56-16.7,6.35-35.14,7.29-52.66,4.05,0,0-.43-.09-.43-.09,0,0-.22-.4-.22-.4-16.35-29.21-5.44-77.84,5.76-107.78h0Z"/>
        </g>
        <path class="uuid-2f78151f-07d8-453c-ad65-e02b0401c432" d="M673.07,232.67l-19.24,26.06,47.08,46.42c6.17,6.08,16.08,6.08,22.25,0l31.17-30.75-29.02-35.55-38.4-24.44-13.84,18.27Z"/>
        <path class="uuid-e1668190-e5fb-49ff-a25d-ae18a2d09a5f" d="M694.68,227.36c-3.28,4.31-6.51,8.71-9.71,13.12-6.12-.93-10.81-6.21-10.81-12.59,0-2.79.9-5.37,2.43-7.47,1.23,1.66,5.85,6.54,17.52,6.48.2.16.39.32.57.46Z"/>
        <path class="uuid-2f78151f-07d8-453c-ad65-e02b0401c432" d="M699.65,227.89c0,6.43-4.77,11.75-10.96,12.61-.58.09-1.18.13-1.78.13-.66,0-1.31-.05-1.94-.15,3.2-4.41,6.43-8.81,9.71-13.12-.18-.14-.37-.3-.57-.46-11.67.06-16.29-4.82-17.52-6.48,1.28-1.79,3.03-3.23,5.07-4.15.63-.29,1.3-.52,1.98-.71,1.05-.27,2.14-.42,3.27-.42,7.03,0,12.74,5.71,12.74,12.75Z"/>
        <path class="uuid-1ea08e98-7e5e-4b98-a758-2f12147dc5d5" d="M730.26,257.32c-1.66,5.11-6.46,8.8-12.12,8.8s-10.08-3.4-11.91-8.2c.63-.82,1.25-1.64,1.86-2.46l22.17,1.86Z"/>
        <path class="uuid-1ea08e98-7e5e-4b98-a758-2f12147dc5d5" d="M708.09,255.46c-.61.82-1.23,1.64-1.86,2.46-.33-.85-.56-1.74-.7-2.67l2.56.21Z"/>
        <path class="uuid-2f78151f-07d8-453c-ad65-e02b0401c432" d="M730.88,253.38c0,1.38-.22,2.7-.62,3.94l-24.73-2.07c-.09-.61-.14-1.23-.14-1.87,0-7.04,5.71-12.75,12.75-12.75s12.74,5.71,12.74,12.75Z"/>
        <g>
          <path class="uuid-0d8cb412-2859-4b7a-a59f-d8ea811d730a" d="M778.68,266.86l17,12.63c1.8,1.34,1.89,4,.19,5.45l-13.1,11.21c-1.26,1.08-3.1,1.12-4.41.11l-8.01-7.3s7.44-12.09,8.33-22.11Z"/>
          <path d="M778.27,265.95c3.84,2.57,12.44,8.01,16.04,10.68.43.31,1.6,1.13,2.01,1.43,2.98,1.86,3.14,6.28.32,8.38-1.47,1.28-5.47,4.76-6.99,6.09,0,0-4.68,4.03-4.68,4.03l-1.23,1.05c-1.85,1.53-4.74,1.49-6.55-.07-2.83-2.67-5.55-5.47-8.07-8.47,3.58-6.03,6.7-12.56,8.13-19.46.18-1.09.5-2.74,1.01-3.66h0ZM779.09,267.77c.24.65.45.87.28,1.47-1.35,7.22-4.5,13.93-8.16,20.25,0,0-.2-1.3-.17-1.26,2.81,1.94,6.25,4.77,8.38,6.67.63.47,1.55.46,2.16-.03,0,0,1.13-.95,1.13-.95,3.51-3.01,8.57-7.26,12.1-10.22.91-.72.92-2.22-.01-2.94-.47-.4-1.48-1.14-1.97-1.54-3.09-2.39-10.65-8.82-13.73-11.44h0Z"/>
        </g>
        <circle class="uuid-2f78151f-07d8-453c-ad65-e02b0401c432" cx="788.43" cy="289.04" r="3.62"/>
        <g>
          <path d="M694.14,172.71c.14-.18.19-.41.14-.64-.05-.22-.2-.41-.4-.51l-2.17-1.09-.47-.85.2-2.41c.02-.23-.06-.46-.22-.62-.17-.16-.39-.24-.62-.21l-2.41.25-.86-.46-1.13-2.14c-.1-.2-.29-.35-.52-.39-.22-.05-.46,0-.64.15l-1.89,1.51-.97.09-2.11-1.2c-.2-.11-.44-.13-.65-.05-.21.09-.38.26-.45.47l-.77,2.3-.78.59-2.41.14c-.23.02-.44.13-.58.31-.13.19-.18.42-.12.65l.59,2.34-.33.92-1.96,1.42c-.19.14-.3.35-.32.58,0,.22.08.45.24.61l1.78,1.65.21.95-.88,2.26c-.09.21-.07.45.04.65s.31.34.54.38l2.38.44.7.68.48,2.37c.04.23.19.42.39.52.2.11.44.13.65.04l2.24-.93.95.2,1.69,1.74c.15.15.35.24.55.24.02,0,.04-.01.07-.01.22,0,.43-.14.56-.33l1.39-1.98.9-.35,2.37.55c.22.05.45,0,.64-.14.18-.14.29-.35.3-.58l.09-2.42.57-.79,2.29-.81c.21-.08.39-.24.46-.46.08-.21.06-.45-.06-.65l-1.23-2.09.05-.97,1.49-1.92ZM691.16,176.18l.88,1.49-1.63.58c-.15.05-.28.14-.36.27l-.86,1.16c-.09.12-.14.27-.14.42l-.07,1.73-1.69-.39c-.15-.03-.3-.02-.44.04l-1.35.51c-.15.05-.27.15-.36.28l-.99,1.42-1.2-1.24c-.11-.12-.24-.19-.4-.22l-1.41-.29s-.1-.02-.15-.02c-.1,0-.2.02-.29.06l-1.6.66-.35-1.7c-.03-.15-.1-.29-.21-.4l-1.03-1.01c-.11-.11-.25-.18-.4-.2l-1.71-.31.63-1.61c.06-.15.08-.31.04-.45l-.32-1.41c-.03-.15-.11-.29-.23-.39l-1.26-1.18,1.4-1.02c.12-.09.22-.21.27-.36l.49-1.36c.05-.14.06-.3.03-.45l-.43-1.67,1.73-.1c.15,0,.3-.06.42-.15l1.15-.88c.12-.09.21-.22.26-.36l.55-1.65,1.5.86c.13.07.29.11.44.09l1.44-.11c.15-.02.3-.07.42-.17l1.35-1.09.81,1.54c.07.13.18.24.31.32l1.28.68c.13.07.28.1.43.08l1.73-.18-.15,1.73c-.02.14.02.3.09.44l.71,1.25c.07.14.18.24.32.32l1.55.77-1.06,1.37c-.1.12-.15.27-.16.42l-.09,1.44c-.01.16.03.31.11.44Z"/>
          <path class="uuid-0d8cb412-2859-4b7a-a59f-d8ea811d730a" d="M691.05,175.74l.09-1.44c.01-.15.06-.3.16-.42l1.06-1.37-1.55-.77c-.14-.08-.25-.18-.32-.32l-.71-1.25c-.07-.14-.11-.3-.09-.44l.15-1.73-1.73.18c-.15.02-.3-.01-.43-.08l-1.28-.68c-.13-.08-.24-.19-.31-.32l-.81-1.54-1.35,1.09c-.12.1-.27.15-.42.17l-1.44.11c-.15.02-.31-.02-.44-.09l-1.5-.86-.55,1.65c-.05.14-.14.27-.26.36l-1.15.88c-.12.09-.27.14-.42.15l-1.73.1.43,1.67c.03.15.02.31-.03.45l-.49,1.36c-.05.15-.15.27-.27.36l-1.4,1.02,1.26,1.18c.12.1.2.24.23.39l.32,1.41c.04.14.02.3-.04.45l-.63,1.61,1.71.31c.15.02.29.09.4.2l1.03,1.01c.11.11.18.25.21.4l.35,1.7,1.6-.66c.09-.04.19-.06.29-.06.05,0,.1.01.15.02l1.41.29c.16.03.29.1.4.22l1.2,1.24.99-1.42c.09-.13.21-.23.36-.28l1.35-.51c.14-.06.29-.07.44-.04l1.69.39.07-1.73c0-.15.05-.3.14-.42l.86-1.16c.08-.13.21-.22.36-.27l1.63-.58-.88-1.49c-.08-.13-.12-.28-.11-.44ZM683.42,178.59c-2.24,0-4.05-1.81-4.05-4.04s1.81-4.05,4.05-4.05,4.04,1.81,4.04,4.05-1.81,4.04-4.04,4.04Z"/>
          <path d="M683.42,170.5c-2.24,0-4.05,1.81-4.05,4.05s1.81,4.04,4.05,4.04,4.04-1.81,4.04-4.04-1.81-4.05-4.04-4.05ZM683.42,177.06c-1.39,0-2.52-1.13-2.52-2.51s1.13-2.52,2.52-2.52,2.51,1.13,2.51,2.52-1.13,2.51-2.51,2.51Z"/>
        </g>
        <path d="M737.1,159.2c-1.34-1.25-3.35-1.67-5.97-1.24-2.54.43-4.32,1.46-5.28,3.1-1.41,2.4-.46,5.14-.42,5.26.14.4.56.63.98.55l2.85-.57.34,11.34c.01.25.12.48.31.63.19.16.43.23.68.2l3.8-.55c.31-.04.56-.24.67-.52.05-.1.07-.22.07-.34l-.19-11.9,3.11-.62c.29-.06.52-.26.62-.52.04-.07.06-.16.07-.24.01-.12.24-2.82-1.64-4.58ZM731.29,176.63l-.33-10.67,2.26-.45.18,10.82-2.11.3ZM734.9,163.42l-5.7,1.14-2.32.46c-.12-.76-.18-2.01.45-3.09.69-1.18,2.07-1.94,4.08-2.27,2.06-.34,3.58-.07,4.51.79.82.76,1.04,1.86,1.1,2.54l-2.12.43Z"/>
        <polygon class="uuid-0d8cb412-2859-4b7a-a59f-d8ea811d730a" points="733.4 176.33 731.29 176.63 730.96 165.96 733.22 165.51 733.4 176.33"/>
        <path class="uuid-0d8cb412-2859-4b7a-a59f-d8ea811d730a" d="M737.02,162.99l-2.12.43-5.7,1.14-2.32.46c-.12-.76-.18-2.01.45-3.09.69-1.18,2.07-1.94,4.08-2.27,2.06-.34,3.58-.07,4.51.79.82.76,1.04,1.86,1.1,2.54Z"/>
        <path class="uuid-0d8cb412-2859-4b7a-a59f-d8ea811d730a" d="M754.01,162.09s-15.32,24.51-12.77,53.11c3.21,35.9,27.57,56.94,27.57,56.94,0,0,44.43-8.94,44.43-59.74s-59.23-50.3-59.23-50.3Z"/>
        <path d="M754.49,162.96c.06,0,.12,0,.16-.04.01,0,.05-.06.03-.02-.55.95-1.12,1.95-1.62,2.93-7.61,14.79-12.06,31.57-10.88,48.26.51,6.7,1.9,13.57,3.95,19.96,4.65,13.99,12.6,27.2,23.34,37.33,0,0-.85-.22-.85-.22,6.39-2.28,12.56-5.41,18.12-9.23,11.3-7.53,19.47-19.24,22.61-32.45,2.44-10.64,2.94-22.15-.19-32.7-6.76-22.73-32.06-32.39-53.87-33.63,0,0-.64-.03-.64-.03,0,0-.32,0-.32,0,0,0-.14,0-.14,0,.11,0,.23-.05.31-.13h0ZM753.52,161.22c.53-.23,1.26-.1,1.83-.12,10.2.25,20.39,2.25,29.83,6.2,26.96,11.34,34.04,36.16,27.93,63.09-4.82,21.31-22.75,39.65-44.6,42.83-14.89-14.03-24.78-33.14-27.68-53.33-2.93-19.46,2.1-39.52,11.36-56.67.38-.59.75-1.54,1.32-2.01h0Z"/>
        <path class="uuid-2f78151f-07d8-453c-ad65-e02b0401c432" d="M766.99,291.08c-11.14,15.52-17.68,29.89-37.28,15.83-8.6-6.17-8.25-21.7.29-36.15.01,0,.01-.01.01-.02.03-.05.06-.11.1-.16.03-.05.04-.07.04-.07.79-1.34,1.67-2.68,2.61-3.99,1.29-1.79,2.64-3.47,4.06-5.03.45-.5.92-.99,1.39-1.47,5.02-5.15,10.64-8.8,16-10.61.77-.26,1.54-.48,2.3-.66,5.1-1.23,9.86-.69,13.53,1.94,18.26,13.1,8.09,24.86-3.05,40.39Z"/>
        <g>
          <path class="uuid-0d8cb412-2859-4b7a-a59f-d8ea811d730a" d="M770.83,293.83c-11.2,15.48-27.57,22.8-36.71,16.24-9.14-6.56-7.51-24.45,3.62-39.98,11.14-15.52,27.67-22.93,36.71-16.24,9.37,6.94,7.56,24.52-3.62,39.98Z"/>
          <path d="M772.02,294.7c-6.55,9.01-15.77,17.42-27.27,19.14-5.96.94-12.64-1.64-15.5-7.17-8.75-17.82,8.35-43.68,24.01-52.31,11.02-6.49,24.49-5.8,27.88,8.51,2.12,11.36-2.83,22.69-9.12,31.84h0ZM769.64,292.97c6.08-8.49,11-19.05,9.25-29.65-2.74-12.87-14.97-12.98-24.62-7.21-6.18,3.57-11.43,8.74-15.59,14.57-5.95,8.62-10.53,19.34-8.7,29.87,1.27,7.19,7.18,11.43,14.38,10.23,10.44-1.8,19.05-9.56,25.28-17.82h0Z"/>
        </g>
        <path class="uuid-0d8cb412-2859-4b7a-a59f-d8ea811d730a" d="M690.64,199.37c-2.39,3.35-5.71,7.96-7.99,11.12-1.44,2-1.08,4.78.82,6.35l12.57,10.36-16.77,24.26c-1.35,1.96-1.02,4.62.77,6.19l10.42,9.11c2,1.75,5.05,1.49,6.72-.58l18.26-22.52,24.09,18.66c8.11-8.04,17.41-11.87,17.41-11.87l-59.41-51.89c-2.08-1.82-5.28-1.45-6.89.8Z"/>
        <path d="M757.6,249.7l-1.09-.95-31.56-27.56c-5.33-4.66-19.33-16.89-24.48-21.38-.38-.29-2.27-2.06-2.62-2.26-2.43-1.92-6.28-1.31-8.02,1.23-1.8,2.52-6.38,8.86-8.12,11.32-1.26,1.82-1.2,4.33-.05,6.17.33.53.75,1.01,1.25,1.39l1.78,1.48c1.91,1.57,6.62,5.45,9.42,7.76.2.16.39.32.57.46-3.28,4.31-6.51,8.71-9.71,13.12-2.41,3.3-4.79,6.62-7.16,9.91-2.02,2.68-1.42,6.78,1.17,8.85.66.59,4.31,3.85,5.05,4.51,0,0,4.07,3.57,4.07,3.58.77.65,1.62,1.54,2.6,1.94,2.88,1.45,6.57.39,8.37-2.25.23-.29.46-.58.7-.87,1.18-1.47,2.36-2.95,3.51-4.43.99-1.26,1.97-2.53,2.95-3.8.63-.82,1.25-1.64,1.86-2.46,2.59-3.41,5.11-6.86,7.57-10.36l21.16,16.39,2.1,1.63.69.53c5.48-5.47,12.04-9.95,19.19-12.91l-1.2-1.04ZM756.29,251.21c-.39-.33-.78-.68-1.18-1.01-1.16.55-2.27,1.14-3.38,1.77-4.43,2.49-8.56,5.51-12.25,9.04l.67.52-1.32.09c.22-.21.43-.42.65-.61l-1.27-.99-22.15-17.14-.73-.57c-5.16,5.54-10.18,11.2-15.02,17-1.45,1.71-2.9,3.47-4.32,5.22-.76,1.17-2.29,1.76-3.59,1.14-.46-.17-1.3-1.03-1.69-1.33-2.04-1.77-6.14-5.34-8.2-7.08-.22-.22-1.24-1.01-1.4-1.22-1.04-1.02-1.02-2.75-.13-3.87,2.56-3.86,5.15-7.76,7.71-11.67,2.94-4.49,5.86-9.01,8.68-13.53-.02,0-.69-.55-.69-.55-2.32-1.91-8.49-6.99-10.72-8.83-.59-.51-1.66-1.26-2.32-2.03-.27-.3-.47-.59-.57-.88-.47-1.12-.38-2.48.31-3.48l2.67-3.73,5.4-7.52c1.03-1.49,3.18-1.97,4.75-1.09.59.28,2.44,2.07,2.95,2.45,14.22,12.36,39.61,34.66,55.06,48.1.3.27.6.53.9.79.47-.23.95-.45,1.45-.67l-.27,1.68Z"/>
        <circle class="uuid-2f78151f-07d8-453c-ad65-e02b0401c432" cx="739.09" cy="246.94" r="3.62"/>
        <circle class="uuid-2f78151f-07d8-453c-ad65-e02b0401c432" cx="721.7" cy="232.48" r="3.62"/>
        <circle class="uuid-2f78151f-07d8-453c-ad65-e02b0401c432" cx="704.31" cy="218.02" r="3.62"/>
        <circle class="uuid-2f78151f-07d8-453c-ad65-e02b0401c432" cx="686.91" cy="203.56" r="3.62"/>
        <path class="uuid-1ea08e98-7e5e-4b98-a758-2f12147dc5d5" d="M696.25,226.83c-.34.02-.67.03-.99.04-.08.01-.15.01-.22.01-.32.01-.63.02-.93.02"/>
        <path class="uuid-1ea08e98-7e5e-4b98-a758-2f12147dc5d5" d="M676.59,220.42c-.26-.34-.37-.55-.37-.55"/>
        <line class="uuid-1ea08e98-7e5e-4b98-a758-2f12147dc5d5" x1="730.88" y1="257.37" x2="730.26" y2="257.32"/>
        <line class="uuid-1ea08e98-7e5e-4b98-a758-2f12147dc5d5" x1="705.53" y1="255.25" x2="704.84" y2="255.19"/>
        <path class="uuid-e1668190-e5fb-49ff-a25d-ae18a2d09a5f" d="M730.26,257.32c-1.66,5.11-6.46,8.8-12.12,8.8s-10.08-3.4-11.91-8.2c.63-.82,1.25-1.64,1.86-2.46l22.17,1.86Z"/>
        <path class="uuid-e1668190-e5fb-49ff-a25d-ae18a2d09a5f" d="M736.82,261.49c-1.42,1.56-2.77,3.24-4.06,5.03-.94,1.31-1.82,2.65-2.61,3.99,0,0-.01.02-.04.07-.02.03-.05.09-.1.16,0,.01,0,.02-.01.02-.75,1.18-4.5,6.05-14.76,5.61-8.92-.38-13.55-6.65-15.47-10.22,1.18-1.47,2.36-2.95,3.51-4.43.99-1.26,1.97-2.53,2.95-3.8,1.83,4.8,6.48,8.2,11.91,8.2s10.46-3.69,12.12-8.8l-22.17-1.86c2.59-3.41,5.11-6.86,7.57-10.36l21.16,16.39Z"/>
        <path class="uuid-1ea08e98-7e5e-4b98-a758-2f12147dc5d5" d="M730.11,270.58s-.05.09-.1.16"/>
        <path class="uuid-1ea08e98-7e5e-4b98-a758-2f12147dc5d5" d="M699.77,266.15c-.78-1.45-1.11-2.45-1.11-2.45"/>
        <g>
          <path class="uuid-0d8cb412-2859-4b7a-a59f-d8ea811d730a" d="M638.67,250.27l-6.07,44.69s43.66,9.63,64.58,24.92l14.73-19.59s-41.17-42.3-73.24-50.02Z"/>
          <path d="M639.24,251.1c-1.81,14.77-3.64,29.35-5.65,44,0,0-.78-1.11-.78-1.11,5.69,1.3,11.3,2.81,16.89,4.43,16.7,5.05,33.58,10.64,48.06,20.66,0,0-1.39.21-1.39.21,0,0,13.73-20.34,13.73-20.35,0,0,.19,2.94.18,2.92-10.29-10.58-21.44-20.56-33.21-29.52-8.86-6.66-18.14-12.88-28.28-17.4-2.08-.95-4.25-1.78-6.42-2.51-1.13-.37-2.05-.66-3.15-1.34h0ZM638.11,249.44c1.55.12,3.38.42,4.92.97,20.23,6.59,37.51,19.81,53.76,33.16,6.19,5.34,12.5,10.63,18.1,16.67-.79.97-16.57,19.75-17.49,21.02-14.38-10.21-31.49-15.85-48.24-20.93-5.55-1.61-11.15-3.11-16.76-4.4,0,0-.9-.21-.9-.21,0,0,.12-.91.12-.91,2.04-15.15,4.26-30.36,6.5-45.38h0Z"/>
        </g>
        <line class="uuid-1ea08e98-7e5e-4b98-a758-2f12147dc5d5" x1="679.99" y1="238.59" x2="665.63" y2="256.78"/>
        <line class="uuid-1ea08e98-7e5e-4b98-a758-2f12147dc5d5" x1="711.91" y1="265.3" x2="696.64" y2="285.42"/>
        <path class="uuid-1ea08e98-7e5e-4b98-a758-2f12147dc5d5" d="M658.65,252.21s12.38,5.75,17.34,17.32"/>
        <line class="uuid-1ea08e98-7e5e-4b98-a758-2f12147dc5d5" x1="668.43" y1="259.71" x2="666.64" y2="262.45"/>
        <path class="uuid-886af04a-22a6-4912-a3e1-d39cca066e1b" d="M715.78,213.34s11.53-17.87,3.21-28.21-19.43,0-13.31,6.77c6.13,6.77,17.33-15.57,1.83-26.68"/>
        <path class="uuid-886af04a-22a6-4912-a3e1-d39cca066e1b" d="M726.8,224.13s-5.85-13.22,4.16-13.55,1.22-19.3.95-20.6"/>
        <g>
          <path class="uuid-0d8cb412-2859-4b7a-a59f-d8ea811d730a" d="M842.01,489.24l-44.19,54.47s-15.22,6.19-26.79-6.06c-11.57-12.25-5.51-28.15-5.51-28.15l26.1-59.39,50.38,39.14Z"/>
          <path d="M843.01,489.13c-7.5,12.02-16.64,24.17-25.94,35.25-5.91,6.94-12.17,14.22-18.86,20.26-8.88,3.22-19.49,1.71-26.42-4.91-5-4.47-8.18-10.93-8.69-17.62-.35-4.65.08-9.47,1.87-13.8,0,0,.78-1.78.78-1.78l24.98-56.83s.52-1.17.52-1.17c17.33,13.44,34.63,27.05,51.78,40.6h0ZM841.02,489.35c-16.78-12.81-33.4-25.55-50-38.46l1.53-.39-24.96,56.79c-.27.61-.91,2.06-1.15,2.64-2.78,8.51-1.77,18.65,4.14,25.61,0,0,1.2,1.43,1.2,1.43.45.42,1.6,1.51,2.03,1.92,4.51,3.83,10.47,5.74,16.38,5.33,2.47-.13,5.01-.62,7.26-1.44,0,0-.4.3-.4.3,12.46-19.97,27.32-36.93,43.97-53.73h0Z"/>
        </g>
        <g>
          <path class="uuid-0d8cb412-2859-4b7a-a59f-d8ea811d730a" d="M481.9,519.48s23.57,16.69,35.65,2.27,11.27-20.39,11.27-20.39l-46.92,18.12Z"/>
          <path d="M481.9,519.48c8.86,4.18,19.19,8.86,28.84,5.28,2.13-.95,4.01-2.36,5.54-4.19,3.24-3.94,6.42-8.01,8.89-12.45,1.1-2.08,2.22-4.28,2.52-6.59,0,0,2.27-.31,2.27-.31.16,1.54-.2,2.98-.61,4.42-1.2,3.91-3.3,7.47-5.57,10.8-3.21,4.46-6.39,9.4-11.75,11.45-10.59,3.89-22.03-1.7-30.13-8.41h0Z"/>
        </g>
        <g>
          <circle class="uuid-0d8cb412-2859-4b7a-a59f-d8ea811d730a" cx="827.62" cy="455.95" r="36.55"/>
          <path d="M799.53,482.47c-14.18-15.31-13.02-39.8,2.3-53.85,30.93-27.72,76.91,4.71,61.24,43.23-11.06,25.64-44.8,31.25-63.55,10.62h0ZM802.56,479.61c21.17,21.33,57.97,7.5,59.54-22.65,1.11-19.04-14.38-35.88-33.46-36.44-31.58-.99-47.86,36.54-26.08,59.09h0Z"/>
        </g>
        <g>
          <circle class="uuid-0d8cb412-2859-4b7a-a59f-d8ea811d730a" cx="763.94" cy="546.46" r="33.29"/>
          <path d="M737.95,570.99c-9.46-10.29-11.71-26.2-5.52-38.68,16.83-33.83,66.63-22.8,67.26,15.17-.47,32.57-39.7,47.63-61.74,23.51h0ZM741.52,567.62c14.73,15.07,41.39,10.4,50.24-8.69,11.96-25.48-12.92-52.33-39.3-42.63-21.31,7.91-26.83,35.45-10.94,51.32h0Z"/>
        </g>
        <g>
          <path class="uuid-0d8cb412-2859-4b7a-a59f-d8ea811d730a" d="M528.15,456.39s-15.78,39.84,1.75,45.49c17.53,5.65,17.92-11.69,17.92-11.69l-19.68-33.8Z"/>
          <path d="M529.22,456.81c-2.52,8.88-4.79,17.96-5.18,27.15-.25,9.58,1.77,16.53,12.58,16.65,2.63-.04,4.87-.85,6.75-2.74,1.88-1.89,3.29-4.64,4.47-7.68.45,1.61.45,3.29.25,4.98-.54,5.64-5.6,10.33-11.34,10.22-4.6,0-9.35-1.05-12.75-4.25-6.67-7.33-4.97-18.28-3.14-27.05,1.45-6.28,3.53-12.31,6.24-18.12,0,0,2.13.84,2.13.84h0Z"/>
        </g>
        <line class="uuid-1ea08e98-7e5e-4b98-a758-2f12147dc5d5" x1="516.1" y1="523.09" x2="549.84" y2="550.11"/>
        <line class="uuid-1ea08e98-7e5e-4b98-a758-2f12147dc5d5" x1="527.81" y1="505.34" x2="563.47" y2="534.68"/>
        <circle class="uuid-2f78151f-07d8-453c-ad65-e02b0401c432" cx="566.61" cy="556.35" r="4.48"/>
        <g>
          <path class="uuid-0d8cb412-2859-4b7a-a59f-d8ea811d730a" d="M768.99,380.52s-56.99,47.31-56.53,90.63c0,0,36.98,32.93,78.85,18.86,0,0,49.1-64.93,57.19-74.67,0,0-42.25-38.66-79.51-34.82Z"/>
          <path d="M769.38,381.44c-6.39,5.65-13.35,12.27-19.34,18.82-12.23,13.36-23.51,27.99-30.71,44.71-3.59,8.29-5.86,17.2-5.87,26.17,0,0-.33-.74-.33-.74,17.48,13.75,40.01,22.85,62.49,20.58,5.05-.56,10.09-1.73,14.88-3.4.01,0-1.23.88-1.22.88,9.63-12.28,34.27-43.64,43.66-55.44,4.9-6.13,9.74-12.28,14.8-18.33,0,0,.09,1.38.09,1.38-11.05-9.66-23.37-18.13-36.51-24.71-12.97-6.44-27.33-11.08-41.94-9.92h0ZM768.61,379.6c22.22-2.3,44.91,9.28,62.87,21.33,6.41,4.38,12.57,9.09,18.4,14.29-8.51,11-20.33,27.04-28.71,38.42,0,0-27.81,37.92-27.81,37.92,0,0-.47.65-.47.65-3.75,1.14-7.55,2.16-11.43,2.68-7.17,1.1-14.58,1.01-21.72-.12-17.75-2.85-34.3-11.27-47.92-22.87,0,0-.33-.29-.33-.29,0,0,0-.44,0-.44-.2-33.46,32.88-70.78,57.15-91.56h0Z"/>
        </g>
        <g>
          <path class="uuid-0d8cb412-2859-4b7a-a59f-d8ea811d730a" d="M747.09,519s21.02,15.6,19.49,31.12-6.46,29.63-6.46,29.63c0,0-169.96,5.71-182.73-3.94-12.77-9.65-25.79-83.19-2.81-100.55s65.89,17.71,65.89,17.71c0,0,15.5-7.24,25.11-2.65s22.38,14.62,22.38,14.62l59.14,14.05Z"/>
          <path d="M747.73,517.64c8.88,6.5,19.32,17.07,21.02,28.35.63,5.95-.73,11.91-1.62,17.76-1.07,5.73-2.38,11.32-4.14,17,0,0-.68,1.97-.68,1.97-53.67,1.35-107.4,2.98-161.05-.11-5.73-.43-11.48-.92-17.18-1.95-2.47-.49-5.23-.99-7.64-2.36-3.28-2.19-5.09-5.75-6.74-9.07-4.83-10.64-7.17-22.1-8.77-33.55-.99-7.61-1.5-15.28-1.32-22.99.55-26.96,9.79-50.84,41.59-42.91,15.05,4.06,28.21,12.4,40.22,22.02,0,0-1.58-.2-1.58-.2,4.2-1.84,8.47-3.17,12.99-3.9,3.4-.53,7-.65,10.41.19,5.44,1.64,10.16,5.11,14.87,8.08,3.68,2.48,7.25,5.05,10.77,7.78-3.03-1.12,59.48,14.15,58.84,13.87h0ZM746.46,520.36l-58.85-13.95-.31-.07-.27-.2c-6.85-5.22-14.05-10.39-21.73-14.27-7.49-3.49-16.86-.54-24.19,2.47,0,0-.87.38-.87.38-6.07-4.77-12.75-8.92-19.54-12.63-14.42-7.58-37.09-16.63-48.88-.63-12.03,18.51-7.4,54.89-1.34,75.33,1.08,3.53,2.32,7,3.87,10.23,1.25,2.52,2.61,5.16,4.78,6.81,3.36,1.56,7.58,1.91,11.34,2.44,11.17,1.25,22.44,1.62,33.7,1.93,45.26.92,90.6-.13,135.85-1.5,0,0-2.76,2.03-2.76,2.03,3.23-9.1,5.69-18.81,6.95-28.45,1.2-10.75-7.59-20.42-14.86-27.38-.96-.89-2.04-1.81-3.06-2.64,0,0-.06-.05-.02-.02.06.04.12.07.19.1h0Z"/>
        </g>
        <g>
          <path class="uuid-0d8cb412-2859-4b7a-a59f-d8ea811d730a" d="M689.24,505.43s11.62,25.82,10.6,39.85-10.6,36.37-10.6,36.37v-76.21Z"/>
          <path d="M690.61,504.81c2.87,6.08,5.3,12.28,7.42,18.67,2.05,6.53,3.86,13.07,4,20.05-.26,10.19-3.76,20.1-7.01,29.64-1.19,3.13-2.07,6.38-4.4,9.06l-2.76-1.18c.24-3.43,1.75-6.36,2.83-9.46,3.18-9.02,6.57-18.53,7.01-28.09.03-6.3-1.58-12.78-3.35-18.89-1.81-6.28-4.05-12.5-6.48-18.57l2.74-1.23h0Z"/>
        </g>
        <g>
          <path class="uuid-0d8cb412-2859-4b7a-a59f-d8ea811d730a" d="M734.77,516.07s8.6,13.97,7.83,30.39-8.94,35.18-8.94,35.18l1.1-65.57Z"/>
          <path d="M736.04,515.28c11.9,20,9.9,37.96,2.71,59.1-.94,2.73-1.8,5.48-3.71,7.86l-2.75-1.2c.31-2.86,1.43-5.44,2.35-8.08,3.54-10.45,6.52-21.44,5.88-32.52-.67-8.18-3.19-16.38-7.03-23.59,0,0,2.55-1.57,2.55-1.57h0Z"/>
        </g>
        <g>
          <line class="uuid-e446e71c-0095-49b1-9eff-e2f2a977fe60" x1="640.47" y1="492.97" x2="660.39" y2="502.87"/>
          <polygon points="641.37 491.16 660.6 502.45 660.18 503.3 639.57 494.78 641.37 491.16 641.37 491.16"/>
        </g>
        <polyline class="uuid-b0a070e0-3c88-408a-8f4d-03cb32762306" points="605.51 473.23 606.7 511.57 608.81 579.75"/>
        <line class="uuid-b0a070e0-3c88-408a-8f4d-03cb32762306" x1="699.84" y1="532.46" x2="607.62" y2="507.06"/>
        <line class="uuid-b0a070e0-3c88-408a-8f4d-03cb32762306" x1="696.94" y1="563.58" x2="608.81" y2="554.45"/>
        <circle class="uuid-2f78151f-07d8-453c-ad65-e02b0401c432" cx="715.28" cy="574.69" r="3.91"/>
        <circle class="uuid-2f78151f-07d8-453c-ad65-e02b0401c432" cx="720.38" cy="554.45" r="3.91"/>
        <circle class="uuid-2f78151f-07d8-453c-ad65-e02b0401c432" cx="552.31" cy="566.06" r="4.48"/>
        <circle class="uuid-2f78151f-07d8-453c-ad65-e02b0401c432" cx="719.19" cy="531.13" r="3.91"/>
        <circle class="uuid-2f78151f-07d8-453c-ad65-e02b0401c432" cx="713.49" cy="513.81" r="3.91"/>
      </g>
      <g>
        <g>
          <path class="uuid-ea463359-a1f4-4a35-abd4-06ec5b4b5690" d="M383.45,383.47s18.87-36.25,41.33-33.49,28.6,37.34,28.6,37.34l-50.35,16.92-19.58-20.78Z"/>
          <path d="M382.46,383.6c-.04-.48.3-.94.51-1.35,4.22-7.56,9.2-14.71,15.24-20.94,24-24.95,46.59-9.87,54.68,19.25.7,2.43,1.21,4.91,1.64,7.43,0,0-.82.28-.82.28l-50.35,16.92s-.61.2-.61.2c-6.81-7.21-13.59-14.52-20.28-21.79h0ZM384.44,383.33c6.5,6.73,12.92,13.44,19.31,20.23,0,0-1.05-.26-1.05-.26l50.35-16.92s-.67,1.14-.67,1.12c-6.47-28.82-26.39-51.23-52.6-24.62-5.89,6.04-10.9,13.01-15.08,20.35,0,0-.2.36-.2.36l-.1.18-.02.04s-.04.08,0-.02c.06-.13.07-.31.03-.45h0Z"/>
        </g>
        <g>
          <circle class="uuid-ea463359-a1f4-4a35-abd4-06ec5b4b5690" cx="259.98" cy="452.86" r="36.55"/>
          <path d="M297.57,452.86c.49,26.97-27.4,45.98-52.42,35.81-32.07-13.12-32-58.34.11-71.35,25.13-9.98,52.18,8.66,52.31,35.54h0ZM295.48,452.86c.45-19.11-16.51-35.47-35.5-34.86-18.75.13-34.43,16.19-34.17,34.86-.26,18.36,15.76,34.57,34.17,34.54,19.14.46,35.37-15.39,35.5-34.54h0Z"/>
        </g>
        <g>
          <path class="uuid-ea463359-a1f4-4a35-abd4-06ec5b4b5690" d="M616.73,306.84s-7.43-1.91-15.43,6.74-3.06,18.9-3.06,18.9l12.09-2.3,6.41-23.35Z"/>
          <path d="M615.87,307.35c.05.2.43.45.56.45,0,0-.03,0-.03,0l-.12-.02c-5.15-.68-10.08,2.21-13.6,5.78-5.05,4.6-6.27,12.38-3.54,18.5,0,0-1.09-.55-1.09-.55l12.08-2.3-.78.72c2.06-7.55,4.25-15,6.51-22.58h0ZM617.6,306.34c-2.01,7.98-4.1,16.1-6.31,24.11,0,0-.17.6-.17.6,0,0-.61.12-.61.12l-12.08,2.3-.77.15s-.32-.7-.32-.7c-4.26-10.29.45-20,9.83-25.17,2.89-1.56,6.32-2.45,9.62-1.91.22.02.69.26.82.51h0Z"/>
        </g>
        <g>
          <path class="uuid-ea463359-a1f4-4a35-abd4-06ec5b4b5690" d="M603.68,330.19s10.17-34.98,39.53-37.53,67.15,17.71,61.28,41.66-38.55,20.91-38.55,20.91c0,0-11.94,24.74-40.31,23.08s-21.95-48.12-21.95-48.12Z"/>
          <path d="M602.21,329.88c5.91-19.04,20.93-38.27,42.29-39.24,19.77-1.03,41.83,5.91,55.4,20.87,5.64,6.23,8.99,15.43,6.5,23.79-4.44,17.54-24.6,22.77-40.56,20.93,0,0,1-.56.99-.56-2.18,4.19-5,7.82-8.25,11.12-8.91,9.19-22.08,14.07-34.83,12.56-22.05-2.93-23.4-32.07-21.54-49.47h0ZM605.15,330.5c-1.71,15.73-1.18,43.59,18.93,46.4,16.81,2.17,33.05-7.43,40.96-22.1,0,0,.24-.57.25-.57,0,0,.75,0,.75,0,7.66.09,15.56-1.08,22.4-4.16,10.06-4.09,17.08-15.63,13.62-26.34-6.96-19.99-37.68-30.4-57.3-29.23-19.86.63-33.69,18.52-39.6,36h0Z"/>
        </g>
        <circle class="uuid-9afd334b-1006-4301-8e49-3e08e02ffc02" cx="592.79" cy="338.24" r="3.91"/>
        <g>
          <path class="uuid-ea463359-a1f4-4a35-abd4-06ec5b4b5690" d="M577.64,349.04l26.04-18.85s23.66-.34,27.74,23.66-12.09,28.26-12.09,28.26l-22.81,1.36-18.89-34.43Z"/>
          <path d="M576.66,348.82c8.72-6.5,17.57-13.03,26.43-19.44,0,0,.26-.19.26-.19,0,0,.31,0,.31,0,17.12.18,28.66,11.3,30.07,28.25,1.24,10.93-2.58,22.81-13.86,26.67-3.92.37-7.89.33-11.83.35-3.61,0-8.51.02-12.08.03-6.51-11.85-12.96-23.81-19.3-35.68h0ZM578.61,349.26c6.35,11.26,12.61,22.44,18.79,33.73l-.94-.52c3.27-.44,8.04-.98,11.36-1.36,3.78-.47,7.57-.86,11.38-1.07,0,0-.41.06-.41.06,11.74-4.14,12.72-18.21,10.26-28.82-2.56-12-13.47-19.45-25.37-20.08,0,0,.57-.19.57-.19-8.5,6.16-17.01,12.19-25.65,18.26h0Z"/>
        </g>
        <g>
          <path class="uuid-ea463359-a1f4-4a35-abd4-06ec5b4b5690" d="M542.07,361.25l37.61-12.17s12.6-1.36,18.04,11.06-1.19,23.32-1.19,23.32c0,0-44.09,21.28-44.43,20.77s-10.03-42.98-10.03-42.98Z"/>
          <path d="M541.2,360.76c12.64-4.26,25.41-8.51,38.17-12.63,2.19-.25,4.29.04,6.34.53,10.46,2.3,15.95,13.7,15.06,23.74-.31,4.09-1.43,8.01-3.43,11.68-6.44,4.77-13.5,8.42-20.7,11.82-7.79,3.59-15.48,7.44-23.55,10.59-.48.16-1.25.28-1.9-.02-.55-.22-1.03-.66-1.2-1.08-.37-.75-.52-1.64-.72-2.43-1.33-6.02-2.72-12.54-3.91-18.56-1.32-6.49-2.63-13.51-3.78-20.05-.04-.35-.32-1.79-.37-2.16-.02-.14-.04-.16-.09-.54-.03-.31,0-.63.07-.89h0ZM542.94,361.75c.12-.02.21-.11.23-.18,0-.15.04.07.08.17.13.41.47,1.67.6,2.1,3.33,11.68,6.66,24.8,9.73,36.58,0,0,.68,2.59.68,2.59-.02-.04-.07-.09-.12-.11-.19-.25-.57-.71-1.08-.9-.47-.21-.91-.2-1.26-.16,5.96-2.66,15.99-7.56,22.59-10.68,7.03-3.38,14.14-6.51,21.71-8.59,0,0-.43.39-.42.38,6.31-10.91,3.25-29.11-10.44-32.34-1.77-.45-3.71-.64-5.45-.52l.2-.04c-12.32,3.99-24.61,7.86-37.04,11.71h0Z"/>
        </g>
        <g>
          <circle class="uuid-ea463359-a1f4-4a35-abd4-06ec5b4b5690" cx="538.56" cy="385.34" r="24.34"/>
          <path d="M564.58,385.34c.32,23.68-27.99,35.44-44.61,18.58-12.73-13.07-8.04-35.3,8.85-42.06,16.57-6.78,35.56,5.41,35.75,23.48h0ZM561.21,385.34c.27-20.71-24.42-31.2-39.04-16.38-8.77,8.61-8.43,24.02.54,32.23,14.09,13.62,38.04,3.74,38.51-15.85h0Z"/>
        </g>
        <g>
          <circle class="uuid-ea463359-a1f4-4a35-abd4-06ec5b4b5690" cx="277.11" cy="538.04" r="24.34"/>
          <path d="M302.66,538.04c.43,13.99-11.53,26.32-25.55,26.32-28.79-.37-36.38-38.92-9.84-50.07,16.61-6.72,35.18,5.91,35.39,23.75h0ZM300.24,538.04c.37-20.75-24.96-30.92-39.25-16.12-11.05,11.37-7.03,30.7,7.58,36.72,14.66,6.24,31.49-4.51,31.66-20.6h0Z"/>
        </g>
        <g>
          <path class="uuid-ea463359-a1f4-4a35-abd4-06ec5b4b5690" d="M459.86,374.29l69.52-9.28s15.32,5.94,15.32,22.8-15.32,24.26-15.32,24.26l-59.74,25.28-9.78-63.04Z"/>
          <path d="M459.06,373.7c23.4-3.3,46.96-6.58,70.46-9.71,2.67,1.02,5.07,2.37,7.29,4.1,8.07,6.13,11.34,16.13,9.42,25.97-1.8,8.8-8.04,16.3-15.86,20.52-1.38.58-14.96,6.54-16.68,7.27,0,0-14.27,6.12-14.27,6.12-9.59,4.07-18.97,8.5-29.37,10.29,0,0-1.18.5-1.18.5-3.38-21.67-6.62-43.44-9.79-65.06h0ZM460.66,374.89c3.41,20.83,6.75,41.51,9.97,62.29,0,0-1.38-.77-1.38-.77,8.52-6.21,18.19-9.84,27.78-13.89,0,0,14.3-5.97,14.3-5.97,1.94-.78,15.37-6.31,16.96-6.96,5.91-3.12,10.96-8.43,13.09-14.83.95-2.76,1.36-5.83,1.2-8.76-.13-6.04-3.03-11.81-7.52-15.85-1.79-1.66-3.89-3.15-6.04-4.21,0,0,.49.06.49.06-22.94,3.07-45.81,5.99-68.85,8.89h0Z"/>
        </g>
        <g>
          <path class="uuid-ea463359-a1f4-4a35-abd4-06ec5b4b5690" d="M294.28,465.16l9.28,69.52s-5.94,15.32-22.8,15.32-24.26-15.32-24.26-15.32l-25.28-59.74,63.04-9.78Z"/>
          <path d="M294.88,464.36c3.3,23.4,6.58,46.96,9.71,70.46-.99,2.69-2.37,5.07-4.1,7.29-5.07,6.73-13.39,10.34-21.78,9.69-11.09-.53-21.09-8.71-25.02-18.92-7.78-18.56-16.09-38.86-23.38-57.54,0,0-.5-1.18-.5-1.18,21.67-3.38,43.44-6.62,65.06-9.79h0ZM293.68,465.96c-20.83,3.41-41.51,6.75-62.29,9.97,0,0,.77-1.38.77-1.38,6.22,13.56,12.87,28.77,18.88,42.51.82,1.96,6.54,15.27,7.23,16.87,3.62,6.52,9.85,11.81,17.17,13.54,8.61,1.89,17.01-.5,22.99-7.11,1.66-1.79,3.12-3.91,4.21-6.04,0,0-.06.49-.06.49-3.07-22.94-5.99-45.81-8.89-68.85h0Z"/>
        </g>
        <g>
          <polygon class="uuid-ea463359-a1f4-4a35-abd4-06ec5b4b5690" points="274.17 536.49 276.49 583.47 413.51 578.36 421.17 497.68 274.17 536.49"/>
          <path d="M274.97,537.08c.9,15.49,1.76,30.89,2.51,46.34l-1.04-.95,136.96-6.77-2.55,2.41,9.32-80.52,1.25,1.06-146.45,38.43h0ZM273.36,535.9l147.55-39.18,1.36-.36-.11,1.42-6,80.84-.17,2.35-2.38.06-137.08,3.44-.99.02-.05-.97c-.79-15.87-1.49-31.79-2.13-47.62,0,0,.65,15.83,0,0Z"/>
        </g>
        <g>
          <rect class="uuid-9afd334b-1006-4301-8e49-3e08e02ffc02" x="337.04" y="323.84" width="7.66" height="48.38" transform="translate(-78.97 595.13) rotate(-76.07)"/>
          <rect class="uuid-9afd334b-1006-4301-8e49-3e08e02ffc02" x="335.2" y="331.28" width="7.66" height="48.38" transform="translate(-87.58 598.99) rotate(-76.07)"/>
          <rect class="uuid-9afd334b-1006-4301-8e49-3e08e02ffc02" x="333.36" y="338.72" width="7.66" height="48.38" transform="translate(-96.2 602.85) rotate(-76.07)"/>
          <rect class="uuid-9afd334b-1006-4301-8e49-3e08e02ffc02" x="331.51" y="346.15" width="7.66" height="48.38" transform="translate(-104.82 606.7) rotate(-76.07)"/>
          <rect class="uuid-9afd334b-1006-4301-8e49-3e08e02ffc02" x="329.67" y="353.59" width="7.66" height="48.38" transform="translate(-113.44 610.56) rotate(-76.07)"/>
          <rect class="uuid-9afd334b-1006-4301-8e49-3e08e02ffc02" x="327.82" y="361.03" width="7.66" height="48.38" transform="translate(-122.06 614.42) rotate(-76.07)"/>
          <rect class="uuid-9afd334b-1006-4301-8e49-3e08e02ffc02" x="325.98" y="368.46" width="7.66" height="48.38" transform="translate(-130.67 618.28) rotate(-76.07)"/>
          <rect class="uuid-9afd334b-1006-4301-8e49-3e08e02ffc02" x="324.14" y="375.9" width="7.66" height="48.38" transform="translate(-139.29 622.13) rotate(-76.07)"/>
        </g>
        <g>
          <path class="uuid-ea463359-a1f4-4a35-abd4-06ec5b4b5690" d="M399.27,299.81c-.55-1.6-2.06-2.76-3.85-2.76h-7.91c-1.15,0-2.19.48-2.93,1.25.01.01,0,.01,0,.01-.71.73-1.13,1.71-1.13,2.8v38c0,2.24,1.82,4.06,4.06,4.06h7.91c2.24,0,4.06-1.82,4.06-4.06v-38c0-.45-.08-.89-.21-1.3ZM388.23,329.66c-1.31.53-2.74.86-4.23.91,1.65-4.99,2.59-10.73,2.61-16.85.01-2.88-.18-5.68-.55-8.35.07.01.13.02.2.04.77,4.11,1.03,7.08,1.03,7.08l.94.09v2.77l7.21,6.83c-1.23,3.4-3.87,6.13-7.21,7.48Z"/>
          <g>
            <path d="M397.88,300.27c-.32-1.02-1.37-1.82-2.48-1.81-.64,0-2.38-.03-3.04-.03,0,0-4.06-.04-4.06-.04-.43,0-1.2-.05-1.62.11-.44.13-.84.38-1.17.71l-.02-1.8c.15.12.35.48.37.77.08.41-.2.98-.49,1.17-.42.28-.54.24-.75.27,0,0,.88-.39.88-.39-.51.52-.8,1.19-.8,1.97,0,0-.03,3.16-.03,3.16l-.07,6.32c-.07,7.8-.17,20.65-.14,28.43-.03,1.62,1.37,3.07,2.98,3.06,0,0,3.14,0,3.14,0h3.16c.73-.04,2.08.08,2.74-.23,1.8-.68,2.01-2.5,1.87-4.21,0,0-.12-12.63-.12-12.63-.04-4.2-.15-14.9-.2-18.95,0,0-.03-3.16-.03-3.16-.03-.66.1-2.07-.12-2.68h0ZM400.66,299.35c.41,1.08.28,2.49.3,3.6,0,0-.03,3.16-.03,3.16-.04,4.01-.15,14.8-.2,18.95,0,0-.13,12.63-.13,12.63,0,1.15.06,2.48-.5,3.56-.82,1.83-2.82,3.04-4.79,2.97,0,0-1.58,0-1.58,0h-3.16s-3.18-.03-3.18-.03c-1.32-.02-2.62-.6-3.53-1.55-.92-.94-1.44-2.27-1.43-3.57v-3.16c0-6.3-.08-18.97-.14-25.27,0,0-.07-6.32-.07-6.32,0-2.24-.44-5.19,1.43-6.92,0,0,.88-.39.88-.39-.93,0-1.65,1.21-.98,2.06.05.07.07.09.11.12l-.02-1.8c1.17-1.29,2.94-1.79,4.64-1.69,1.34-.01,4.79-.05,6.09-.07,0,0,1.01-.01,1.01-.01,2.32-.04,4.5,1.49,5.26,3.71h0Z"/>
            <path d="M388.78,331.02c-2.08.87-4.5.98-6.73.95,3.2-8.35,4.25-17.58,3.01-26.46,0,0-.2-1.4-.2-1.4l1.34.27c.2.04.71.14.92.18.51,2.61.94,5.19,1.22,7.84,0,0-.95-.96-.95-.96.47.04,1.42.11,1.89.15.01.65.05,3.07.07,3.76,0,0-.35-.81-.35-.81l7.34,6.69.61.56c-1.19,4.07-4.16,7.69-8.17,9.23h0ZM387.68,328.3c2.92-1.22,5.4-3.56,6.53-6.57,0,0,.33,1.39.33,1.39l-7.08-6.97-.36-.35c0-.23.05-2.92.06-3.23,0,0,.97,1.06.97,1.06-.45-.05-1.36-.16-1.81-.21-.12-1.44-.28-2.9-.49-4.35-.16-1.17-.35-2.33-.56-3.49l.71.78s-.04,0-.07-.01l1.14-1.13c1.12,8.6.78,17.42-1.75,25.77,0,0-1.35-1.8-1.35-1.8,1.28-.07,2.55-.38,3.73-.89h0Z"/>
          </g>
        </g>
        <g>
          <path class="uuid-ea463359-a1f4-4a35-abd4-06ec5b4b5690" d="M388.23,287.08v25.5l-.94-.09s-.26-2.97-1.03-7.08c-.07-.02-.13-.03-.2-.04.37,2.67.56,5.47.55,8.35-.02,6.12-.96,11.86-2.61,16.85,1.49-.05,2.92-.38,4.23-.91v18.66h-84.87c-5.35,0-10.43-2.58-13.4-7.03-.64-.97-1.24-1.98-1.79-3.05h-.01c-3.7-7.07-5.51-16.12-6.34-24.59-1.34-13.61-.14-25.72-.14-25.72,0,0,5.45-31.14,53.62-31.14s52.93,30.29,52.93,30.29Z"/>
          <path d="M389.37,286.99l.14,25.59v1.4c-1.01-.09-2.38-.22-3.38-.31,0,0-.11-1.07-.11-1.07-.24-2.3-.61-4.66-1.05-6.95-.02,0,1.01,1.07.91,1.02,0,0,1.5-1.49,1.5-1.49.61,4.31.76,8.67.45,13.01-.31,4.34-1.09,8.66-2.44,12.83l-1.43-1.92c1.96,0,3.97-.92,5.75-1.66,0,0,.01,2.21.01,2.21,0,0,.1,18.66.1,18.66,0,0,0,1.57,0,1.57h-1.59s-52.08.27-52.08.27l-26.04.1h-6.51c-6.04.13-12.2-2.97-15.44-8.14,0,0-1.75-2.98-1.75-2.98,0,0,1.76,1.07,1.76,1.07h-1.21s-.55-1.06-.55-1.06c-4.06-7.93-5.71-16.69-6.59-25.42-.75-8.71-.78-17.36.03-26.08,1.38-5.81,4.46-10.89,8.37-15.28,11.67-12.87,29.88-16.69,46.56-16.59,16.56.03,34.74,3.44,46.46,16.13,3.85,4.25,6.95,9.4,8.12,15.07h0ZM387.09,287.17c-2.38-10.44-10.8-18.84-20.39-23.35-9.89-4.69-21.04-6.1-31.91-6.01-18.41.05-39.44,5.91-48.59,23.24-1.19,1.97-2.33,5.42-2.69,7.05-.3,4.14-.44,8.41-.4,12.62.28,12.37,1.24,25.39,6.79,36.59,0,0-1.79-1.07-1.74-1.06,0,0,1.13,0,1.13,0,0,0,.63,1.07.63,1.07l1.54,2.63c2.56,4.1,7.31,6.47,12.13,6.4,0,0,6.51,0,6.51,0,16.51.05,61.04.27,78.12.36,0,0-1.58,1.58-1.58,1.58l.1-18.66,2.04,1.37c-2.08.92-4.58,1.04-6.83,1.05,3.1-8.42,3.97-17.64,2.8-26.54,0,0-.24-1.85-.24-1.85.49.11,2.35.48,2.89.6.26,1.47.53,2.97.74,4.45.17,1.2.32,2.39.43,3.63l-1.15-1.16.94.1-1.4,1.27.14-25.41h0Z"/>
        </g>
        <g>
          <path class="uuid-7256ee01-6786-4702-85dd-78eb45558ca9" d="M395.44,322.18c-1.23,3.4-3.87,6.13-7.21,7.48-1.31.53-2.74.86-4.23.91,1.65-4.99,2.59-10.73,2.61-16.85.01-2.88-.18-5.68-.55-8.35.07.01.13.02.2.04.77,4.11,1.03,7.08,1.03,7.08l.94.09v2.77l7.21,6.83Z"/>
          <path d="M396.54,321.92c-.04.52-.21,1.12-.46,1.58-2.21,4.6-6.89,7.91-12.04,8.16,0,0-1.54.07-1.54.07,1.51-4.43,2.33-9.08,2.57-13.75.26-4.84-.06-9.73-.86-14.5,0,0,2.08.34,2.08.34.27.04,1.05.24,1.33.31,0,0,.18.99.18.99.43,2.42.78,4.77,1.01,7.23,0,0-1.37-1.38-1.37-1.38.54.05,1.75.18,2.3.23,0,0,0,1.37,0,1.37,0,.92-.03,1.85-.05,2.77l-.46-1.06c2.5,2.46,4.99,5.05,7.3,7.63h0ZM394.34,322.44c-2.63-2.1-5.1-4.19-7.56-6.43-.01-1.14-.06-2.3-.06-3.43,0,0,1.37,1.51,1.37,1.51-.53-.05-1.65-.15-2.18-.2-.25-2.72-.66-5.5-1.18-8.19,0,0,1.11,1.21,1.11,1.21,0,.02,1.77-1.75,1.77-1.75.55,4.33.65,8.7.2,13.04-.42,4.33-1.37,8.6-2.78,12.72,0,0-1.07-1.43-1.07-1.43,4.39-.02,8.67-2.92,10.21-7.08.02-.05,0-.02.01-.02.01.01.07.05.16.05h0Z"/>
        </g>
        <g>
          <path class="uuid-ea463359-a1f4-4a35-abd4-06ec5b4b5690" d="M386.06,305.37c.37,2.67.56,5.47.55,8.35-.02,6.12-.96,11.86-2.61,16.85-.18.02-.37.02-.55.02-.54,0-1.08-.03-1.6-.11-6.29-.78-11.14-6.14-11.14-12.64s4.88-11.88,11.19-12.64c.51-.07,1.02-.1,1.55-.1.89,0,1.77.09,2.61.27Z"/>
          <path d="M386.89,304.6c.22.42.34.94.36,1.42.75,8.36.4,16.85-2.06,24.94,0,0-.23.78-.23.78l-.82.08c-4.04.27-8.08-1.23-10.93-4.12-8.74-8.85-2.34-24.11,10.16-23.84.86,0,1.72.12,2.56.32.31.05.69.18.95.42h0ZM385.23,306.14c.08.16.33.3.44.31-.75-.1-1.53-.15-2.29-.1-15.05,1.25-14.62,22.45.47,22.97,0,0-1.06.86-1.06.86,2.66-7.58,3.48-15.92,2.27-23.88,0,0-.03-.19-.03-.19v-.09c0,.07.08.12.19.12h0Z"/>
        </g>
        <g>
          <path class="uuid-ea463359-a1f4-4a35-abd4-06ec5b4b5690" d="M396.2,317.84c0,1.53-.27,2.99-.76,4.34l-7.21-6.83v-2.77l-.94-.09s-.26-2.97-1.03-7.08c.68.15,1.34.36,1.97.62,3.28,1.32,5.87,3.96,7.13,7.27.54,1.41.84,2.94.84,4.54Z"/>
          <path d="M397.33,317.84c-.02,2.12-.72,4.19-1.49,6.13-2.82-2.8-5.82-5.43-8.79-8.05,0-.33-.11-2.94-.12-3.34,0,0,1.18,1.3,1.18,1.3-.5-.03-1.5-.09-2-.12-.42-3.41-1.1-6.94-1.8-10.32,0,0,2.29.48,2.29.48,6.41,1.19,11.05,7.53,10.74,13.92h0ZM395.07,317.84c-.12-5.2-4.18-9.74-9.14-10.94,0,0,1.82-1.77,1.82-1.77.43,2.41.71,4.78.87,7.24,0,0-1.21-1.22-1.21-1.22.52.07,1.64.21,2.16.28-.03.75-.11,3.13-.14,3.91,0,0-.38-.88-.38-.88,2.33,2.35,4.65,4.72,7.07,6.98,0,0-1.63.39-1.63.39.45-1.29.61-2.65.57-4h0Z"/>
        </g>
        <path class="uuid-9afd334b-1006-4301-8e49-3e08e02ffc02" d="M406.85,292.54l-1.23,5.42-1.53,6.7-1.38,6.06c-.36,1.57-1.67,2.73-3.23,2.91-.17.03-.35.03-.53.03l-3.59-.36-7.13-.72-.94-.09s-.26-2.97-1.03-7.08c-.41-2.14-.95-4.59-1.68-7.1,0,0,.01,0,0-.01-.11-.39-.22-.78-.35-1.17-.99-3.23-2.29-6.47-3.97-9.2h22.91c2.42,0,4.22,2.25,3.68,4.61Z"/>
        <g>
          <path class="uuid-ea463359-a1f4-4a35-abd4-06ec5b4b5690" d="M381.89,313.72c0,19.11,3.06,34.6-21.06,34.6-11.63,0-21.06-15.49-21.06-34.6s9.43-34.6,21.06-34.6c22.47,0,21.06,15.49,21.06,34.6Z"/>
          <path d="M382.99,313.72c.38,18.59,3.14,35.84-21.44,36.2-.88.06-2.29-.11-3.17-.17-.57-.12-1.81-.43-2.36-.58-5.68-1.99-9.94-6.95-12.63-12.06-7.07-14.18-7.02-31.92-.07-46.12,3.35-6.64,9.61-13.18,17.61-13.11,23.64.05,21.9,17.86,22.06,35.84h0ZM380.8,313.72c0-15.42,2.4-33.24-18.47-33.33-1.05-.06-2.33.04-3.36.15-2.36.48-4.61,1.51-6.48,3.11-13.24,11.56-13.79,37.05-6.08,51.86,3.05,5.83,8.13,11.34,15.09,11.17,22.66.31,18.89-16.31,19.29-32.97h0Z"/>
        </g>
        <g>
          <path class="uuid-ea463359-a1f4-4a35-abd4-06ec5b4b5690" d="M386.61,313.72c-.02,6.12-.96,11.86-2.61,16.85-.17.53-.35,1.06-.55,1.57-.95,2.59-2.11,4.95-3.42,7.02-1.82,2.86-3.95,5.16-6.29,6.74-.01.01-.02.01-.03.02-2.3,1.55-4.82,2.4-7.46,2.4-.6,0-1.19-.04-1.77-.13-10.41-1.52-18.59-16.37-18.59-34.47s8.08-32.9,18.4-34.45c.64-.11,1.3-.15,1.96-.14,7.98.12,14.61,7.34,17.98,18,.12.39.24.78.35,1.18.64,2.22,1.14,4.59,1.48,7.06.37,2.67.56,5.47.55,8.35Z"/>
          <path d="M387.7,313.72c.06,11.73-3.71,26.49-13.1,33.08-8.93,6.46-18.96.76-23.75-7.81-4.58-7.77-6.22-16.92-6.17-25.84.15-8.9,2.07-18,6.87-25.63,4.08-6.59,11.74-11.72,19.64-8.5,12.58,5.4,16.42,22.28,16.51,34.7h0ZM385.52,313.72c.05-11.67-3.35-27.66-15.09-32.71-6.86-2.76-13.46,1.98-16.96,7.75-5.9,9.73-7.28,21.78-5.74,32.93,1.39,12.4,11.11,31.67,25.13,23.33,9.52-6.93,12.42-20.06,12.67-31.3h0Z"/>
        </g>
        <g>
          <path class="uuid-ea463359-a1f4-4a35-abd4-06ec5b4b5690" d="M349.09,287.93h-71.15c-2.42,0-4.22,2.25-3.68,4.61l4.14,18.19c.4,1.75,1.97,2.97,3.76,2.94l59.91-1.17s1.34-15.3,7.03-24.56Z"/>
          <path d="M348.22,288.41c-18.96.42-51.28,1.23-69.85,1.2-1.56-.19-2.78,1.12-2.42,2.59,1.07,4.62,2.98,12.94,4.04,17.53.13.49.21,1.12.61,1.48.51.61,1.34.73,2.08.67.76-.02,2.99-.04,3.79-.06,3.18-.05,11.86-.18,15.15-.23,13.47-.16,26.95-.24,40.43-.12,0,0-.98.91-.98.91.89-7.84,2.49-15.69,5.97-22.82.23-.63.58-.74,1.18-1.17h0ZM349.97,287.44c-.16.92-.65,2.15-1.15,3.05-3.47,7.13-5.03,15.11-5.85,22.95-13.76.68-27.53,1.13-41.29,1.51-3.32.08-11.93.29-15.15.36-.77,0-3.03.08-3.79.09-3.04.32-5.79-1.84-6.2-4.88-1.01-4.44-2.86-12.78-3.88-17.25-.12-.53-.23-1.1-.22-1.65-.05-3.09,2.94-5.69,5.93-5.4,0,0,10.32.04,10.32.04,13.9,0,46.94.91,61.26,1.16h0Z"/>
        </g>
        <circle class="uuid-9afd334b-1006-4301-8e49-3e08e02ffc02" cx="276.49" cy="300.89" r="3.91"/>
        <circle class="uuid-9afd334b-1006-4301-8e49-3e08e02ffc02" cx="300.99" cy="300.89" r="3.91"/>
        <circle class="uuid-9afd334b-1006-4301-8e49-3e08e02ffc02" cx="325.49" cy="300.89" r="3.91"/>
        <circle class="uuid-9afd334b-1006-4301-8e49-3e08e02ffc02" cx="403.03" cy="300.89" r="3.91"/>
        <line class="uuid-1ea08e98-7e5e-4b98-a758-2f12147dc5d5" x1="307.8" y1="313.66" x2="313.66" y2="338.24"/>
        <line class="uuid-1ea08e98-7e5e-4b98-a758-2f12147dc5d5" x1="388.23" y1="315.35" x2="386.9" y2="314.09"/>
        <line class="uuid-1ea08e98-7e5e-4b98-a758-2f12147dc5d5" x1="291.21" y1="313.66" x2="297.07" y2="338.24"/>
        <path class="uuid-1ea08e98-7e5e-4b98-a758-2f12147dc5d5" d="M288.16,338.24h37.87c1.78,0,3.14,1.58,2.88,3.34l-1.01,6.74"/>
        <g>
          <polygon class="uuid-ea463359-a1f4-4a35-abd4-06ec5b4b5690" points="366.74 348.32 400.01 349.93 396.1 379.38 356.11 376.32 360.53 348.32 366.74 348.32"/>
          <path d="M366.77,347.32l33.29,1.62s1.09.05,1.09.05l-.14,1.08-3.91,29.45s-.12.91-.12.91l-.95-.04-40.09-1.73-2.67-.11.54-2.59s5.75-27.79,5.75-27.79l.17-.84c.27.03,6.54-.02,7.05,0h0ZM366.72,349.32h-6.19s.99-.84.99-.84l-3.1,28.21-2.13-2.7,39.89,4.4-1.07.87,3.91-29.45.94,1.13-33.25-1.62h0Z"/>
        </g>
        <g>
          <path class="uuid-ea463359-a1f4-4a35-abd4-06ec5b4b5690" d="M235.86,432.23s23.45-24.62,85.26-39.03,111.51-9.14,111.51-9.14c0,0,16.34,86.64-5.45,127.83,0,0-51.6,32.68-99.5,37.11s-60.84-7.15-60.84-7.15l-30.98-109.62Z"/>
          <path d="M234.89,431.99c.27-.64,1-1.13,1.46-1.62,1.18-1.1,2.52-2.17,3.76-3.18,8.54-6.7,18.04-12.15,27.8-16.84,19.52-9.33,40.5-15.57,61.61-19.99,34.11-6.98,69.19-9.95,103.95-7.23,4.13,21.6,6.6,43.46,7.06,65.47.15,21.83-.95,44.67-10.65,64.72,0,0-.37.74-.37.74l-.7.41c-12.35,7.36-25.05,13.61-38.14,19.21-17.96,7.55-36.88,13.8-56.26,16.32-19.05,2.23-50.33,3.4-67.04-6.52-.48-.27-.93-.66-1.41-1.05-.32-.1-30.81-110.25-31.07-110.42h0ZM236.83,432.47c.25-.21,31.45,110.94,30.68,108.63.6.42,1.35.93,2.05,1.28,16.96,8.35,45.77,6.59,64.34,3.98,0,0,2.58-.37,2.58-.37,0,0,2.56-.52,2.56-.52,4.77-.86,10.58-2.36,15.26-3.62,18.44-5.39,36.21-13.09,53.16-22.09,6.15-3.28,12.29-6.77,18.09-10.45l-1.06,1.15c4.94-9.19,7.68-19.57,9.39-29.9,4.85-31.82,2.49-64.58-2.23-96.32,0,0,.88.81.88.81-17.09-1.44-34.4-1.09-51.52.12-45.95,3.8-95.72,13.71-134.51,39.77-3.12,2.21-6.59,4.81-9.36,7.45,0,0-.29.27-.29.27.02,0,.04-.11-.02-.19h0Z"/>
        </g>
        <g>
          <circle class="uuid-ea463359-a1f4-4a35-abd4-06ec5b4b5690" cx="450.51" cy="409.63" r="36.55"/>
          <path d="M488.83,409.63c.31,34.96-41.24,52.62-66,27.68-19.1-19.47-12.09-52.59,13.23-62.56,24.49-9.92,52.45,8.33,52.77,34.88h0ZM485.28,409.63c.33-31.78-37.23-47.47-59.58-24.81-16.91,17.6-10.72,46.88,11.88,56.03,22.12,9.02,47.35-7.08,47.7-31.22h0Z"/>
        </g>
        <g>
          <polygon class="uuid-ea463359-a1f4-4a35-abd4-06ec5b4b5690" points="438.55 365.01 427.31 466.25 378.56 497 340.87 437.25 367.45 371.27 438.55 365.01"/>
          <path d="M439.26,364.31c-2.95,30.87-6.54,72.95-9.53,103.47,0,0-1.05.63-1.05.63l-49.59,29.44s-.84.5-.84.5l-.54-.81s-39.02-58.91-39.02-58.91l-.74-1.11s.53-1.23.53-1.23c0,0,28.05-65.38,28.05-65.38,0,0,.24-.57.24-.57,24.15-2.15,48.43-4.11,72.49-6.01h0ZM437.83,365.71c-23.53,2.28-46.85,4.51-70.29,6.55l.84-.62-25.11,66.57-.21-2.34,36.34,60.6-1.38-.31,47.93-32.06-1.17,1.87,13.05-100.26h0Z"/>
        </g>
        <g>
          <polygon class="uuid-ea463359-a1f4-4a35-abd4-06ec5b4b5690" points="236.85 411.18 228.74 487.14 268.05 511.7 291.21 446.69 284.98 400.09 236.85 411.18"/>
          <path d="M237.6,411.85l-6.83,75.51-.94-1.94,39.35,24.49-3.11,1.08c-.08.17,24.68-66.23,24.17-64.17,0,0-6.24-46.6-6.24-46.6,0,0,1.22.84,1.22.84-15.85,3.66-31.69,7.23-47.61,10.78h0ZM236.1,410.52c16.52-3.93,33.14-7.83,49.72-11.65,0,0,.15,1.09.15,1.09,0,.3,6.26,46.57,6.27,46.83.1.15-22.24,65.43-22.19,65.62,0,0-.85,2.51-.85,2.51l-2.27-1.42-39.26-24.63-1.1-.69s.15-1.25.15-1.25c0,0,9.38-76.41,9.38-76.41h0Z"/>
        </g>
        <circle class="uuid-9afd334b-1006-4301-8e49-3e08e02ffc02" cx="608.78" cy="346.07" r="3.91"/>
        <circle class="uuid-9afd334b-1006-4301-8e49-3e08e02ffc02" cx="618.99" cy="363.81" r="3.91"/>
        <circle class="uuid-9afd334b-1006-4301-8e49-3e08e02ffc02" cx="611.16" cy="381.94" r="3.91"/>
        <g>
          <path class="uuid-ea463359-a1f4-4a35-abd4-06ec5b4b5690" d="M627.44,297.77s30.92,1.54,39.6,11.3,6.34,23.42,6.34,23.42c0,0-20.13,6.3-7.45,22.74"/>
          <path d="M627.49,296.77c11.66.93,31.78,2.97,40.22,11.56,5.81,6.56,7.75,15.78,6.65,24.32,0,0-.09.59-.09.59l-.6.2c-1.93,1.36-3.94,2.54-5.71,3.89-5.81,4.19-5.6,10.03-2.17,15.77.43.88,1.78,2.11.6,2.93-.42.25-.95.17-1.26-.18-1.7-1.88-3.21-4.03-4.15-6.57-2.89-6.91,1.82-14.1,8.26-16.76,1.22-.51,2.45-.87,3.83-.98,0,0-.69.79-.69.79.67-5.27.08-10.92-1.95-15.86-2.01-5.05-5.63-9.09-10.77-11.18-10.08-4.29-21.39-5.69-32.27-6.51-1.29-.05-1.25-2.06.1-2h0Z"/>
        </g>
        <line class="uuid-886af04a-22a6-4912-a3e1-d39cca066e1b" x1="613.38" y1="331.97" x2="641.17" y2="299.28"/>
        <line class="uuid-886af04a-22a6-4912-a3e1-d39cca066e1b" x1="628.36" y1="344.51" x2="665.14" y2="307.32"/>
        <line class="uuid-1ea08e98-7e5e-4b98-a758-2f12147dc5d5" x1="312.78" y1="395.26" x2="327.68" y2="548.99"/>
        <line class="uuid-1ea08e98-7e5e-4b98-a758-2f12147dc5d5" x1="333.5" y1="548.99" x2="331.65" y2="581.41"/>
        <line class="uuid-1ea08e98-7e5e-4b98-a758-2f12147dc5d5" x1="371.88" y1="538.46" x2="354.21" y2="581.41"/>
        <line class="uuid-1ea08e98-7e5e-4b98-a758-2f12147dc5d5" x1="373.77" y1="489.41" x2="368.11" y2="540.57"/>
        <line class="uuid-1ea08e98-7e5e-4b98-a758-2f12147dc5d5" x1="272.45" y1="499.35" x2="287.9" y2="548.99"/>
        <line class="uuid-1ea08e98-7e5e-4b98-a758-2f12147dc5d5" x1="293.54" y1="549.41" x2="302.73" y2="582.49"/>
      </g>
    </g>
    <g>
      <g>
        <path class="uuid-ea463359-a1f4-4a35-abd4-06ec5b4b5690" d="M235.9,859.26l-11.77-11.77v-119.82l11.77-11.81h100.35l11.77,11.81v43.91h-55.69v-9.72h-12.51v51.44h12.51v-9.72h55.69v43.91l-11.77,11.77h-100.34ZM474.66,859.26v-45.96h-68.2v-97.44h-55.69v143.4h123.89ZM601.3,859.26v-131.59l-11.77-11.81h-100.34l-11.77,11.81v131.59h55.69v-48.69h12.51v48.69h55.69ZM533.1,764.57v-2.72h12.51v2.72h-12.51ZM716.17,859.26l11.78-11.77v-71.1l-11.77-11.81h-56.43v-2.72h68.2v-46h-112.12l-11.77,11.81v71.09l11.77,11.81h56.43v2.72h-68.2v45.96h112.11ZM854.59,859.26v-143.4h-55.69v48.72h-12.51v-48.72h-55.69v143.4h55.69v-48.69h12.51v48.69h55.69Z"/>
        <g class="uuid-a76bf66b-31a9-4672-9942-c6dd0e8af79e">
          <rect class="uuid-7256ee01-6786-4702-85dd-78eb45558ca9" x="211.55" y="842.96" width="651.57" height="22.98"/>
        </g>
      </g>
      <g>
        <path class="uuid-0d8cb412-2859-4b7a-a59f-d8ea811d730a" d="M233.09,707.29l-8.97-8.97v-86.08l8.96-9h72.23l8.96,9v32.67h-41.64v-6.92h-6.88v34.58h6.88v-6.92h41.64v32.67l-8.97,8.97h-72.22ZM404.38,707.29v-34.72h-48.52v-69.32h-41.64v104.04h90.15ZM494.47,707.29v-95.04l-8.96-9h-72.23l-8.96,9v95.04h41.64v-34.64h6.88v34.64h41.64ZM584.57,707.29v-95.04l-8.96-9h-81.19v104.04h41.64v-69.29h6.88v69.29h41.64ZM674.66,707.29v-46.52l-5.47-5.49,5.47-5.47v-46.55h-41.64v34.66h-6.88v-34.66h-41.64v104.04h41.64v-34.64h6.88v34.64h41.64ZM764.76,707.29v-34.72h-6.92v-34.58h6.92v-34.74h-90.15v104.04h90.15ZM854.85,707.29v-46.52l-5.47-5.49,5.47-5.47v-37.56l-8.96-9h-81.19v104.04h41.64v-34.64h6.88v34.64h41.64Z"/>
        <g class="uuid-f06a30b5-fd0c-4306-ab88-a491986ab1c7">
          <path class="uuid-35437701-7971-4ff6-a6c3-2bb47d0bf40b" d="M208.62,694.87h664.47s-.36,15.49-2.74,15.92-659.56,0-659.56,0l-2.17-15.92Z"/>
        </g>
      </g>
      <path class="uuid-f3d22c5a-14de-4b2b-b34f-b888d8a29993" d="M303.86,606.76l6.92,6.94v27.72h-34.64v-6.92h-13.88v41.58h13.88v-6.92h34.64v27.72l-6.92,6.92h-69.32l-6.92-6.92v-83.18l6.92-6.94h69.32ZM306.77,599.76h-75.13l-2.05,2.06-6.92,6.94-2.04,2.05v88.97l2.05,2.05,6.92,6.92,2.05,2.05h75.12l2.05-2.05,6.92-6.92,2.05-2.05v-37.62h-48.52v-13.74h48.52v-37.61l-2.04-2.05-6.92-6.94-2.05-2.06h0Z"/>
      <path class="uuid-f3d22c5a-14de-4b2b-b34f-b888d8a29993" d="M352.36,606.76v69.32h48.52v27.72h-83.15v-97.04h34.64ZM359.36,599.76h-48.64v111.04h97.15v-41.72h-48.52v-69.32h0Z"/>
      <path class="uuid-f3d22c5a-14de-4b2b-b34f-b888d8a29993" d="M484.05,606.76l6.92,6.94v90.1h-34.64v-34.64h-13.88v34.64h-34.64v-90.1l6.92-6.94h69.32ZM442.45,641.42h13.88v-6.92h-13.88v6.92h0ZM486.96,599.76h-75.13l-2.05,2.06-6.92,6.94-2.04,2.05v99.99h97.15v-99.99l-2.04-2.05-6.92-6.94-2.05-2.06h0Z"/>
      <path class="uuid-f3d22c5a-14de-4b2b-b34f-b888d8a29993" d="M574.15,606.76l6.92,6.94v90.1h-34.64v-69.29h-13.88v69.29h-34.64v-97.04h76.24ZM577.05,599.76h-86.14v111.04h97.15v-99.99l-2.04-2.05-6.92-6.94-2.05-2.06h0Z"/>
      <path class="uuid-f3d22c5a-14de-4b2b-b34f-b888d8a29993" d="M671.16,606.76v41.6l-6.92,6.92,6.92,6.94v41.58h-34.64v-34.64h-13.88v34.64h-34.64v-97.04h34.64v34.66h13.88v-34.66h34.64ZM678.16,599.76h-97.15v111.04h97.15v-51.47l-2.04-2.05-1.98-1.99,1.98-1.98,2.05-2.05v-51.5h0Z"/>
      <path class="uuid-f3d22c5a-14de-4b2b-b34f-b888d8a29993" d="M761.26,606.76v27.74h-48.52v6.92h41.6v27.74h-41.6v6.92h48.52v27.72h-83.15v-97.04h83.15ZM768.26,599.76h-97.15v111.04h97.15v-41.72h-6.92v-27.58h6.92v-41.74h0Z"/>
      <path class="uuid-f3d22c5a-14de-4b2b-b34f-b888d8a29993" d="M844.44,606.76l6.92,6.94v34.66l-6.92,6.92,6.92,6.94v41.58h-34.64v-34.64h-13.88v34.64h-34.64v-97.04h76.24ZM802.84,641.42h13.88v-6.92h-13.88v6.92h0ZM847.34,599.76h-86.14v111.04h97.15v-51.47l-2.04-2.05-1.98-1.99,1.98-1.98,2.05-2.05v-40.45l-2.04-2.05-6.92-6.94-2.05-2.06h0Z"/>
      <path class="uuid-f3d22c5a-14de-4b2b-b34f-b888d8a29993" d="M334.79,719.35l9.72,9.76v38.96h-48.69v-9.72h-19.51v58.44h19.51v-9.72h48.69v38.96l-9.72,9.72h-97.44l-9.72-9.72v-116.92l9.72-9.76h97.44ZM337.69,712.35h-103.25l-2.05,2.06-9.72,9.76-2.04,2.05v122.71l2.05,2.05,9.72,9.72,2.05,2.05h103.24l2.05-2.05,9.72-9.72,2.05-2.05v-48.86h-62.69v9.72h-5.51v-44.44h5.51v9.72h62.69v-48.86l-2.04-2.05-9.72-9.76-2.05-2.06h0Z"/>
      <path class="uuid-f3d22c5a-14de-4b2b-b34f-b888d8a29993" d="M402.95,719.35v97.44h68.2v38.96h-116.89v-136.4h48.69ZM409.95,712.35h-62.69v150.4h130.89v-52.96h-68.2v-97.44h0Z"/>
      <path class="uuid-f3d22c5a-14de-4b2b-b34f-b888d8a29993" d="M588.08,719.35l9.72,9.76v126.64h-48.69v-48.69h-19.51v48.69h-48.69v-126.64l9.72-9.76h97.44ZM529.6,768.07h19.51v-9.72h-19.51v9.72h0ZM590.98,712.35h-103.25l-2.05,2.06-9.72,9.76-2.04,2.05v136.54h62.69v-48.69h5.51v48.69h62.69v-136.54l-2.04-2.05-9.72-9.76-2.05-2.06h0Z"/>
      <path class="uuid-f3d22c5a-14de-4b2b-b34f-b888d8a29993" d="M724.44,719.35v39h-68.2v9.72h58.48l9.72,9.76v68.2l-9.72,9.72h-107.16v-38.96h68.2v-9.72h-58.48l-9.72-9.76v-68.2l9.72-9.76h107.16ZM731.44,712.35h-117.07l-2.05,2.06-9.72,9.76-2.04,2.05v73.99l2.04,2.05,7.51,7.54h-9.56v52.96h117.06l2.05-2.05,9.72-9.72,2.05-2.05v-73.99l-2.04-2.05-7.51-7.54h9.56v-53h0Z"/>
      <path class="uuid-f3d22c5a-14de-4b2b-b34f-b888d8a29993" d="M851.09,719.35v136.4h-48.69v-48.69h-19.51v48.69h-48.69v-136.4h48.69v48.72h19.51v-48.72h48.69ZM858.09,712.35h-62.69v48.72h-5.51v-48.72h-62.69v150.4h62.69v-48.69h5.51v48.69h62.69v-150.4h0Z"/>
    </g>
    <line class="uuid-e446e71c-0095-49b1-9eff-e2f2a977fe60" x1="423.26" y1="581.41" x2="421.17" y2="603"/>
  </g>
</svg>