<?xml version="1.0" encoding="UTF-8"?>
<svg id="uuid-698bad7e-9cba-46f2-9f3b-8df715bd8699" data-name="POSES" xmlns="http://www.w3.org/2000/svg" viewBox="0 0 500.94 493.28">
  <defs>
    <style>
      .uuid-1f9f1ee6-db0e-484f-b93b-a36c5c547be5 {
        fill: #e6e6e6;
      }
    </style>
  </defs>
  <path class="uuid-1f9f1ee6-db0e-484f-b93b-a36c5c547be5" d="M422.96,163.37c3.71,44-.8,88.86-15.5,130.59l-.83,2.34-.43,1.18c-.38,1.26-1.19,2.63-2.26,3.43-10.53.18-21.59.34-33.09.51l-6.37,32.69c11.51.65,23,1.32,34.47,1.99,1.65.05,2.83,1.83,2.19,3.37l-41.75,105.17c-.38.95-1.28,1.52-2.22,1.54,0,.03-227.92,4.18-227.92,4.2-3.09.07-5.71-2.04-6.42-4.89-11.72-40.44-22.36-82.7-31.91-123.69,10.46.33,20.94.67,31.42,1.03l-3.92-19.78c-9.99.05-19.68.1-28.97.15-2.75.02-5.1-1.73-5.98-4.18-4.07-12.72-7.03-25.26-9.53-38.25-6.49-35.19-8.09-71.4-4.72-107.02.38-3.29.8-6.46,1.49-9.84.23-1.16,1.26-1.96,2.4-1.96h25.88c10.76-29.57,29.96-56.2,56.48-73.49,42.04-27.31,101.53-29.7,147.92-12.67,31.27,11.49,57.59,35.01,74.08,63.73,4.18,7.21,7.85,14.71,10.95,22.43h29.18c1.13,0,2.08.78,2.34,1.83,1.62,6.59,2.34,12.95,3.02,19.6Z"/>
  <g>
    <path d="M422.96,163.37c-.69-6.65-1.41-13.01-3.02-19.6-.26-1.05-1.21-1.83-2.34-1.83h-29.18c-3.11-7.72-6.77-15.22-10.95-22.43-16.49-28.72-42.81-52.24-74.08-63.73-46.39-17.03-105.87-14.65-147.92,12.67-26.51,17.29-45.72,43.92-56.48,73.49h-25.88c-1.14,0-2.17.8-2.4,1.96-.69,3.38-1.11,6.55-1.49,9.84-3.37,35.62-1.77,71.83,4.72,107.02,2.5,13,5.46,25.53,9.53,38.25.88,2.45,3.24,4.2,5.98,4.18,9.28-.05,18.98-.1,28.97-.15l3.92,19.78c-10.48-.36-20.96-.7-31.42-1.03,9.55,41,20.19,83.25,31.91,123.69.72,2.84,3.33,4.95,6.42,4.89,0-.02,227.92-4.17,227.92-4.2.95-.02,1.85-.59,2.22-1.54l41.75-105.17c.64-1.54-.54-3.32-2.19-3.37-11.48-.67-22.97-1.34-34.47-1.99l6.37-32.69c11.49-.16,22.56-.33,33.09-.51,1.06-.8,1.88-2.17,2.26-3.43l.43-1.18.83-2.34c14.7-41.73,19.21-86.59,15.5-130.59ZM109.49,146.85c.56-1.63,1.14-3.27,1.77-4.9,11.02-29.23,31.43-56.43,60.45-71.58,39.07-21.01,94.15-21.95,135-5.33,34.57,13.85,61.15,42.96,75.9,76.91.74,1.62,1.41,3.25,2.04,4.9,2.01,5.03,3.74,10.15,5.2,15.33-36.71-.13-220.95-.92-284.41-1.18,1.11-4.72,2.45-9.46,4.05-14.16ZM103.93,169.71c61.61-.26,250.77-1.01,286.11-1.18h1.46l4.95-.02h1.05c2.44-.11,4.45,1.6,4.92,3.89.11.56.1,1.13.02,1.68l-.15.88-1.34,7.32-2.68,14.68-1.32,7.32-.67,3.66-.15.7c-.34,1.32-1.26,2.5-2.45,3.14-.83.46-1.57.56-2.53.65l-3.01.34-4.4.52c-.21.03-.44.05-.67.08-6.8.8-15.02,1.77-23.95,2.83-2.37.28-4.81.56-7.27.85-24.71,2.91-53.08,6.24-71.42,8.4-.11,0-.21.02-.33.03-1.23.13-2.21,1.18-2.21,2.44-.02,2.89-.08,9.24-.15,17-.15,14.89-.34,35.06-.46,46.46-.02,3.38-.05,6-.07,7.45l-.03,3.4v.15c.11,1.57-.7,2.52-2.16,2.55l-1.78-.02-28.36-.26-28.36-.28-1.77-.02c-.2,0-.18-.02-.23-.02-.59-.03-1.13-.51-1.23-1.08-.02-.07-.02-.15-.02-.21l-.02-.18v-.44l.03-3.55c.02-1.55.05-4.3.08-7.85.1-11.39.29-31.06.42-45.74.08-7.88.13-14.32.16-17.33.03-1.75-.96-3.35-2.47-4.12-.47-.25-1.01-.41-1.57-.47-11.66-1.32-42.57-4.76-69.7-7.78-2.27-.26-4.53-.51-6.75-.77-8.21-.92-15.84-1.77-22.23-2.48-4.35-.49-8.12-.92-11.1-1.26-1.21-.15-2.29-.26-3.22-.38-1.34-.28-2.45-1.41-2.66-2.8l-.9-5.3-3.61-21.18-.92-5.3-.21-1.32-.11-.65-.07-.33c-.39-2.06,1.34-4.15,3.45-4.1h.03c3.12-.02,7.18-.03,12-.05ZM204.54,249.43c-9.68,12.93-27.53,19.06-43.82,12.13-15.46-6.34-23.57-21.92-22.33-37.06,1.06.13,2.16.25,3.24.38l62.92,24.55ZM160.65,227.04c17.9,2.03,35.1,3.99,44.18,5.02.03,3.15.08,7.42.11,12.26l-44.3-17.28ZM167.22,271.13c13.88,2.19,28.16-2.75,37.88-12.65.11,11.85.23,24.36.31,32.55.03,3.6.05,6.37.07,7.9l.03,3.55v.44c-.08,4.41,3.43,8.48,7.83,9.01,1.21.26,29.65-.29,31.55-.2l28.36-.26,1.78-.02c3.79.08,7.49-2.8,8.25-6.54.18-.74.23-1.7.23-2.68-.02-1.26-.08-2.55-.05-3.35-.02-1.49-.05-4.07-.08-7.4-.08-9.1-.21-23.77-.34-36.89,4.3,5.88,10.2,10.79,17.54,13.93,7.86,3.4,16,4.28,23.64,3.11v60.28c-52.18-2.8-104.63-5.31-156.99-7.39v-53.37ZM282.81,230.16c14.12-1.55,33.66-3.69,52.83-5.79l-52.18,18.03c-.21-.43-.39-.87-.56-1.31-.03-4.48-.07-8.29-.1-10.94ZM291.55,253.9c-2.29-2.13-4.23-4.51-5.82-7.09l67.38-23.28c.16,1.5.23,3.06.21,4.64-.82,31.48-38.81,47.65-61.77,25.73ZM93.93,290.5c-12.26-34.42-18.06-71.14-19.48-107.62-.44-11.95-.56-24.14.83-36.03h22.02c-1.54,4.64-2.86,9.35-3.97,14.11h-1.42c-7.55-.2-13.73,7.37-12.13,14.73.25,1.29.95,5.95,1.23,7.27l3.56,21.2c.69,4.4,1.13,9.45,4.87,12.51,1.57,1.39,3.5,2.39,5.54,2.84.69.16,1.47.25,1.81.28l5.21.59,13.96,70.24-22.03-.11ZM112.84,221.61c5.18.59,11.61,1.31,18.68,2.13-1.44,12.42,2.35,25.5,12.19,35.26,5.59,5.57,11.98,9.17,18.6,11.05v54.25c-10.69-.41-21.38-.82-32.05-1.19l-3.45-20.09-2.13-12.37-11.85-69.03ZM395.29,340.94l-39.8,100.3-221.05-4.05c-9.25-35.73-19.5-69.91-30.73-105.24,6.9.33,13.78.64,20.66.95,2.55.11,5.08.21,7.63.33,75.47,3.25,150.42,5.39,226.18,6.98,1.7.03,3.4.08,5.1.11,10.64.21,21.32.43,32.01.62ZM367.55,292.36c-.61,3.06-1.19,6.1-1.78,9.12-2.14,10.92-4.28,21.81-6.34,32.35-10.09-.57-20.19-1.14-30.31-1.68v-61.59c18.05-4.95,32.27-21.43,31.83-42.39-.05-2.24-.25-4.4-.59-6.49,7.94-.87,15.28-1.67,21.53-2.37-4.15,21.15-9.22,46.93-14.34,73.05ZM398.43,290.66c-.21.54-.52,1.34-.83,2.11-8.34-.11-16.66-.23-24.98-.34l14.35-73.66,4.82-.52c1.59-.13,3.22-.51,4.61-1.28,2.66-1.37,4.67-3.91,5.43-6.78.21-.88.78-3.92.95-4.79.87-4.82,3.3-16.93,4.18-21.97.43-2.93,2.29-9.37,1.57-12.15-.82-5.18-5.87-9.25-11.03-9.07l-2.35-.02c-.59-2.17-1.26-4.32-1.85-6.46-.92-2.99-1.91-5.95-2.99-8.89h25.26c.46,2.39.8,4.95,1.08,7.44,4.2,46-1.6,93.17-18.21,136.38Z"/>
    <path d="M128.73,177.82c-11.43-.44-17.62,13.83-9.43,21.94,8.06,8.32,22.38,1.96,21.89-9.45-.18-6.56-5.77-12.37-12.46-12.49ZM122.32,190.31c-.25-9.35,13.86-9.5,13.57,0-.62,8.5-12.98,8.39-13.57,0Z"/>
    <path d="M199.62,193.58c-.23-6.6-5.88-12.33-12.5-12.47-4.28-.18-7.83,1.7-10.18,4.56-1.26,1.55-2.19,3.4-2.68,5.36-.98,4.07-.11,8.61,3.35,12.06,6.57,6.82,17.28,3.89,20.84-3.58.75-1.59,1.19-3.37,1.19-5.31,0-.21,0-.41-.02-.62ZM193.58,196.15c-2.68,5.66-12.26,4.71-12.83-2.57-.02-.72.05-1.41.18-2.01.52-2.29,2.04-3.82,3.89-4.56,3.25-1.31,7.5-.18,8.91,3.47.36.88.54,1.93.51,3.11-.08.96-.31,1.83-.65,2.57Z"/>
    <path d="M236.34,186.08c-5.38,4.64-5.74,13.8-.54,18.83,8.24,8.66,22.92,2.03,22.3-9.69-.46-10.72-13.8-16.53-21.76-9.14ZM239.3,195.21c-.43-9.35,13.71-9.58,13.21,0-.7,7.98-12.47,7.81-13.21,0Z"/>
    <path d="M316.04,190.9c-.47-1.83-1.37-3.51-2.58-4.95-2.35-2.83-5.84-4.71-9.6-4.81-8.27-.38-13.86,6.96-13.31,14.16.15,1.8.67,3.6,1.63,5.25.54.93,1.23,1.83,2.06,2.66,8.19,8.6,22.79,2.03,22.21-9.63-.03-.92-.18-1.81-.43-2.68ZM298.24,195.98c-.34-.7-.57-1.5-.65-2.4-.05-1.23.15-2.31.56-3.22,1.49-3.55,5.75-4.67,8.94-3.33,1.73.72,3.14,2.16,3.63,4.33.15.67.21,1.41.18,2.22-.59,7.18-10.04,7.88-12.65,2.4Z"/>
    <path d="M362.25,177.84c-11.39-.41-17.52,13.8-9.38,21.85,8.01,8.27,22.26,1.98,21.82-9.38-.16-6.56-5.79-12.37-12.44-12.47ZM355.75,190.31c-.18-9.38,13.91-9.51,13.68,0-.61,8.58-13.11,8.48-13.68,0Z"/>
  </g>
</svg>